G04 #@! TF.FileFunction,Legend,Bot*
%FSLAX46Y46*%
G04 Gerber Fmt 4.6, Leading zero omitted, Abs format (unit mm)*
G04 Created by KiCad (PCBNEW (2016-07-22 BZR 6991, Git 146a78a)-product) date Tue Jul 26 18:11:02 2016*
%MOMM*%
%LPD*%
G01*
G04 APERTURE LIST*
%ADD10C,0.100000*%
%ADD11C,0.200000*%
%ADD12C,0.250000*%
%ADD13C,0.275000*%
%ADD14C,0.150000*%
%ADD15C,1.416000*%
%ADD16R,2.432000X2.432000*%
%ADD17O,2.432000X2.432000*%
%ADD18R,2.432000X2.127200*%
%ADD19O,2.432000X2.127200*%
%ADD20R,2.398980X1.799540*%
%ADD21R,1.700480X2.851100*%
%ADD22O,1.504800X2.012800*%
%ADD23C,18.180000*%
G04 APERTURE END LIST*
D10*
D11*
X48000000Y-28250000D02*
G75*
G03X48000000Y-28250000I-4000000J0D01*
G01*
X54750000Y-21500000D02*
G75*
G03X54750000Y-21500000I-4000000J0D01*
G01*
X32757142Y-33196666D02*
X33957142Y-33196666D01*
X33957142Y-32815714D01*
X33900000Y-32720476D01*
X33842857Y-32672857D01*
X33728571Y-32625238D01*
X33557142Y-32625238D01*
X33442857Y-32672857D01*
X33385714Y-32720476D01*
X33328571Y-32815714D01*
X33328571Y-33196666D01*
X32757142Y-32053809D02*
X32814285Y-32149047D01*
X32871428Y-32196666D01*
X32985714Y-32244285D01*
X33328571Y-32244285D01*
X33442857Y-32196666D01*
X33500000Y-32149047D01*
X33557142Y-32053809D01*
X33557142Y-31910952D01*
X33500000Y-31815714D01*
X33442857Y-31768095D01*
X33328571Y-31720476D01*
X32985714Y-31720476D01*
X32871428Y-31768095D01*
X32814285Y-31815714D01*
X32757142Y-31910952D01*
X32757142Y-32053809D01*
X33557142Y-30863333D02*
X32585714Y-30863333D01*
X32471428Y-30910952D01*
X32414285Y-30958571D01*
X32357142Y-31053809D01*
X32357142Y-31196666D01*
X32414285Y-31291904D01*
X32814285Y-30863333D02*
X32757142Y-30958571D01*
X32757142Y-31149047D01*
X32814285Y-31244285D01*
X32871428Y-31291904D01*
X32985714Y-31339523D01*
X33328571Y-31339523D01*
X33442857Y-31291904D01*
X33500000Y-31244285D01*
X33557142Y-31149047D01*
X33557142Y-30958571D01*
X33500000Y-30863333D01*
X32757142Y-30244285D02*
X32814285Y-30339523D01*
X32871428Y-30387142D01*
X32985714Y-30434761D01*
X33328571Y-30434761D01*
X33442857Y-30387142D01*
X33500000Y-30339523D01*
X33557142Y-30244285D01*
X33557142Y-30101428D01*
X33500000Y-30006190D01*
X33442857Y-29958571D01*
X33328571Y-29910952D01*
X32985714Y-29910952D01*
X32871428Y-29958571D01*
X32814285Y-30006190D01*
X32757142Y-30101428D01*
X32757142Y-30244285D01*
X33214285Y-29482380D02*
X33214285Y-28720476D01*
X33385714Y-28244285D02*
X33385714Y-27910952D01*
X32757142Y-27768095D02*
X32757142Y-28244285D01*
X33957142Y-28244285D01*
X33957142Y-27768095D01*
X32757142Y-27196666D02*
X32814285Y-27291904D01*
X32928571Y-27339523D01*
X33957142Y-27339523D01*
X33557142Y-26958571D02*
X33557142Y-26577619D01*
X32757142Y-26815714D02*
X33785714Y-26815714D01*
X33900000Y-26768095D01*
X33957142Y-26672857D01*
X33957142Y-26577619D01*
X32757142Y-25482380D02*
X33557142Y-25482380D01*
X33328571Y-25482380D02*
X33442857Y-25434761D01*
X33500000Y-25387142D01*
X33557142Y-25291904D01*
X33557142Y-25196666D01*
X32814285Y-24482380D02*
X32757142Y-24577619D01*
X32757142Y-24768095D01*
X32814285Y-24863333D01*
X32928571Y-24910952D01*
X33385714Y-24910952D01*
X33500000Y-24863333D01*
X33557142Y-24768095D01*
X33557142Y-24577619D01*
X33500000Y-24482380D01*
X33385714Y-24434761D01*
X33271428Y-24434761D01*
X33157142Y-24910952D01*
X33557142Y-24101428D02*
X32757142Y-23863333D01*
X33557142Y-23625238D01*
X32757142Y-22720476D02*
X32757142Y-23291904D01*
X32757142Y-23006190D02*
X33957142Y-23006190D01*
X33785714Y-23101428D01*
X33671428Y-23196666D01*
X33614285Y-23291904D01*
X30757142Y-43291904D02*
X31957142Y-43291904D01*
X31214285Y-43196666D02*
X30757142Y-42910952D01*
X31557142Y-42910952D02*
X31099999Y-43291904D01*
X31557142Y-42482380D02*
X30757142Y-42482380D01*
X31442857Y-42482380D02*
X31499999Y-42434761D01*
X31557142Y-42339523D01*
X31557142Y-42196666D01*
X31499999Y-42101428D01*
X31385714Y-42053809D01*
X30757142Y-42053809D01*
X30757142Y-41577619D02*
X31557142Y-41577619D01*
X31957142Y-41577619D02*
X31899999Y-41625238D01*
X31842857Y-41577619D01*
X31899999Y-41530000D01*
X31957142Y-41577619D01*
X31842857Y-41577619D01*
X30814285Y-40720476D02*
X30757142Y-40815714D01*
X30757142Y-41006190D01*
X30814285Y-41101428D01*
X30928571Y-41149047D01*
X31385714Y-41149047D01*
X31499999Y-41101428D01*
X31557142Y-41006190D01*
X31557142Y-40815714D01*
X31499999Y-40720476D01*
X31385714Y-40672857D01*
X31271428Y-40672857D01*
X31157142Y-41149047D01*
X30757142Y-40101428D02*
X30814285Y-40196666D01*
X30928571Y-40244285D01*
X31957142Y-40244285D01*
X30814285Y-39768095D02*
X30757142Y-39672857D01*
X30757142Y-39482380D01*
X30814285Y-39387142D01*
X30928571Y-39339523D01*
X30985714Y-39339523D01*
X31099999Y-39387142D01*
X31157142Y-39482380D01*
X31157142Y-39625238D01*
X31214285Y-39720476D01*
X31328571Y-39768095D01*
X31385714Y-39768095D01*
X31499999Y-39720476D01*
X31557142Y-39625238D01*
X31557142Y-39482380D01*
X31499999Y-39387142D01*
X30814285Y-38530000D02*
X30757142Y-38625238D01*
X30757142Y-38815714D01*
X30814285Y-38910952D01*
X30928571Y-38958571D01*
X31385714Y-38958571D01*
X31499999Y-38910952D01*
X31557142Y-38815714D01*
X31557142Y-38625238D01*
X31499999Y-38530000D01*
X31385714Y-38482380D01*
X31271428Y-38482380D01*
X31157142Y-38958571D01*
X31557142Y-38053809D02*
X30757142Y-38053809D01*
X31442857Y-38053809D02*
X31499999Y-38006190D01*
X31557142Y-37910952D01*
X31557142Y-37768095D01*
X31499999Y-37672857D01*
X31385714Y-37625238D01*
X30757142Y-37625238D01*
X31214285Y-37149047D02*
X31214285Y-36387142D01*
X30757142Y-35910952D02*
X31957142Y-35910952D01*
X30757142Y-35482380D02*
X31385714Y-35482380D01*
X31499999Y-35530000D01*
X31557142Y-35625238D01*
X31557142Y-35768095D01*
X31499999Y-35863333D01*
X31442857Y-35910952D01*
X31557142Y-34577619D02*
X30357142Y-34577619D01*
X30814285Y-34577619D02*
X30757142Y-34672857D01*
X30757142Y-34863333D01*
X30814285Y-34958571D01*
X30871428Y-35006190D01*
X30985714Y-35053809D01*
X31328571Y-35053809D01*
X31442857Y-35006190D01*
X31499999Y-34958571D01*
X31557142Y-34863333D01*
X31557142Y-34672857D01*
X31499999Y-34577619D01*
X30871428Y-34101428D02*
X30814285Y-34053809D01*
X30757142Y-34101428D01*
X30814285Y-34149047D01*
X30871428Y-34101428D01*
X30757142Y-34101428D01*
X30757142Y-33482380D02*
X30814285Y-33577619D01*
X30871428Y-33625238D01*
X30985714Y-33672857D01*
X31328571Y-33672857D01*
X31442857Y-33625238D01*
X31499999Y-33577619D01*
X31557142Y-33482380D01*
X31557142Y-33339523D01*
X31499999Y-33244285D01*
X31442857Y-33196666D01*
X31328571Y-33149047D01*
X30985714Y-33149047D01*
X30871428Y-33196666D01*
X30814285Y-33244285D01*
X30757142Y-33339523D01*
X30757142Y-33482380D01*
X30757142Y-32720476D02*
X31557142Y-32720476D01*
X31328571Y-32720476D02*
X31442857Y-32672857D01*
X31499999Y-32625238D01*
X31557142Y-32530000D01*
X31557142Y-32434761D01*
X31557142Y-31672857D02*
X30585714Y-31672857D01*
X30471428Y-31720476D01*
X30414285Y-31768095D01*
X30357142Y-31863333D01*
X30357142Y-32006190D01*
X30414285Y-32101428D01*
X30814285Y-31672857D02*
X30757142Y-31768095D01*
X30757142Y-31958571D01*
X30814285Y-32053809D01*
X30871428Y-32101428D01*
X30985714Y-32149047D01*
X31328571Y-32149047D01*
X31442857Y-32101428D01*
X31500000Y-32053809D01*
X31557142Y-31958571D01*
X31557142Y-31768095D01*
X31500000Y-31672857D01*
X32014285Y-30482380D02*
X30471428Y-31339523D01*
X31557142Y-30149047D02*
X30357142Y-30149047D01*
X31500000Y-30149047D02*
X31557142Y-30053809D01*
X31557142Y-29863333D01*
X31500000Y-29768095D01*
X31442857Y-29720476D01*
X31328571Y-29672857D01*
X30985714Y-29672857D01*
X30871428Y-29720476D01*
X30814285Y-29768095D01*
X30757142Y-29863333D01*
X30757142Y-30053809D01*
X30814285Y-30149047D01*
X30757142Y-29101428D02*
X30814285Y-29196666D01*
X30871428Y-29244285D01*
X30985714Y-29291904D01*
X31328571Y-29291904D01*
X31442857Y-29244285D01*
X31500000Y-29196666D01*
X31557142Y-29101428D01*
X31557142Y-28958571D01*
X31500000Y-28863333D01*
X31442857Y-28815714D01*
X31328571Y-28768095D01*
X30985714Y-28768095D01*
X30871428Y-28815714D01*
X30814285Y-28863333D01*
X30757142Y-28958571D01*
X30757142Y-29101428D01*
X31557142Y-27910952D02*
X30585714Y-27910952D01*
X30471428Y-27958571D01*
X30414285Y-28006190D01*
X30357142Y-28101428D01*
X30357142Y-28244285D01*
X30414285Y-28339523D01*
X30814285Y-27910952D02*
X30757142Y-28006190D01*
X30757142Y-28196666D01*
X30814285Y-28291904D01*
X30871428Y-28339523D01*
X30985714Y-28387142D01*
X31328571Y-28387142D01*
X31442857Y-28339523D01*
X31500000Y-28291904D01*
X31557142Y-28196666D01*
X31557142Y-28006190D01*
X31500000Y-27910952D01*
X30757142Y-27291904D02*
X30814285Y-27387142D01*
X30871428Y-27434761D01*
X30985714Y-27482380D01*
X31328571Y-27482380D01*
X31442857Y-27434761D01*
X31500000Y-27387142D01*
X31557142Y-27291904D01*
X31557142Y-27149047D01*
X31500000Y-27053809D01*
X31442857Y-27006190D01*
X31328571Y-26958571D01*
X30985714Y-26958571D01*
X30871428Y-27006190D01*
X30814285Y-27053809D01*
X30757142Y-27149047D01*
X30757142Y-27291904D01*
X31214285Y-26530000D02*
X31214285Y-25768095D01*
X30814285Y-24910952D02*
X30757142Y-25006190D01*
X30757142Y-25196666D01*
X30814285Y-25291904D01*
X30928571Y-25339523D01*
X31385714Y-25339523D01*
X31500000Y-25291904D01*
X31557142Y-25196666D01*
X31557142Y-25006190D01*
X31500000Y-24910952D01*
X31385714Y-24863333D01*
X31271428Y-24863333D01*
X31157142Y-25339523D01*
X30757142Y-24291904D02*
X30814285Y-24387142D01*
X30928571Y-24434761D01*
X31957142Y-24434761D01*
X31557142Y-24053809D02*
X31557142Y-23672857D01*
X30757142Y-23910952D02*
X31785714Y-23910952D01*
X31900000Y-23863333D01*
X31957142Y-23768095D01*
X31957142Y-23672857D01*
X32014285Y-22625238D02*
X30471428Y-23482380D01*
D12*
X55380001Y-26611877D02*
X55784062Y-26207816D01*
X54723402Y-25147156D01*
X54541574Y-26339136D02*
X54258732Y-26621978D01*
X54693097Y-27298781D02*
X55097158Y-26894720D01*
X54036498Y-25834059D01*
X53632437Y-26238120D01*
X54329442Y-27662436D02*
X53268782Y-26601775D01*
X53066752Y-26803806D01*
X52996041Y-26975532D01*
X53016244Y-27157359D01*
X53076853Y-27298781D01*
X53238478Y-27541217D01*
X53390000Y-27692740D01*
X53632437Y-27854365D01*
X53773858Y-27914974D01*
X53955686Y-27935177D01*
X54127412Y-27864466D01*
X54329442Y-27662436D01*
X53076853Y-28106903D02*
X52430356Y-28753400D01*
X52430356Y-29561522D02*
X51369695Y-28500862D01*
X52066701Y-29925177D02*
X51511117Y-29369593D01*
X51450508Y-29228172D01*
X51480812Y-29096852D01*
X51602030Y-28975634D01*
X51733350Y-28945329D01*
X51824264Y-28955431D01*
X51288883Y-30601979D02*
X51420203Y-30571675D01*
X51581827Y-30410050D01*
X51612132Y-30278731D01*
X51551523Y-30137309D01*
X51147462Y-29733248D01*
X51006040Y-29672639D01*
X50874721Y-29702944D01*
X50713096Y-29864568D01*
X50682792Y-29995888D01*
X50743401Y-30137309D01*
X50844416Y-30238325D01*
X51349492Y-29935279D01*
X50571675Y-31420203D02*
X50016091Y-30864619D01*
X49955482Y-30723198D01*
X49985786Y-30591878D01*
X50147411Y-30430254D01*
X50278731Y-30399949D01*
X50521167Y-31369695D02*
X50652487Y-31339391D01*
X50854518Y-31137360D01*
X50884822Y-31006040D01*
X50824213Y-30864619D01*
X50723198Y-30763604D01*
X50581776Y-30702995D01*
X50450457Y-30733299D01*
X50248426Y-30935330D01*
X50117106Y-30965634D01*
X50167614Y-31824264D02*
X49460507Y-31117157D01*
X49662538Y-31319188D02*
X49521116Y-31258579D01*
X49430203Y-31248477D01*
X49298883Y-31278782D01*
X49218070Y-31359594D01*
X49056446Y-31521218D02*
X48733197Y-31844467D01*
X48581674Y-31288883D02*
X49490812Y-32198020D01*
X49551421Y-32339442D01*
X49521116Y-32470762D01*
X49440304Y-32551574D01*
X48510964Y-33480914D02*
X47803857Y-32773807D01*
X48005887Y-32975838D02*
X47864466Y-32915229D01*
X47773552Y-32905127D01*
X47642233Y-32935432D01*
X47561420Y-33016244D01*
X47611928Y-34278935D02*
X47743248Y-34248630D01*
X47904872Y-34087006D01*
X47935177Y-33955686D01*
X47874568Y-33814265D01*
X47470507Y-33410204D01*
X47329085Y-33349594D01*
X47197765Y-33379899D01*
X47036141Y-33541523D01*
X47005836Y-33672843D01*
X47066446Y-33814265D01*
X47167461Y-33915280D01*
X47672537Y-33612234D01*
X46632080Y-33945584D02*
X47137156Y-34854722D01*
X46228019Y-34349645D01*
X46167410Y-35824468D02*
X46652283Y-35339595D01*
X46409846Y-35582032D02*
X45349186Y-34521371D01*
X45581521Y-34592082D01*
X45763349Y-34612285D01*
X45894669Y-34581980D01*
X61713658Y-23813754D02*
X60652997Y-22753094D01*
X61228784Y-23490506D02*
X61390409Y-24137003D01*
X60683302Y-23429896D02*
X61410612Y-23510709D01*
X60319647Y-23793551D02*
X61026754Y-24500658D01*
X60420662Y-23894567D02*
X60329749Y-23884465D01*
X60198429Y-23914770D01*
X60077210Y-24035988D01*
X60046906Y-24167308D01*
X60107515Y-24308729D01*
X60663099Y-24864313D01*
X60259038Y-25268374D02*
X59551931Y-24561267D01*
X59198378Y-24207714D02*
X59289291Y-24217815D01*
X59299393Y-24308729D01*
X59208479Y-24298628D01*
X59198378Y-24207714D01*
X59299393Y-24308729D01*
X59481220Y-25945176D02*
X59612540Y-25914872D01*
X59774165Y-25753247D01*
X59804469Y-25621927D01*
X59743860Y-25480506D01*
X59339799Y-25076445D01*
X59198378Y-25015836D01*
X59067058Y-25046141D01*
X58905433Y-25207765D01*
X58875129Y-25339085D01*
X58935738Y-25480506D01*
X59036753Y-25581521D01*
X59541830Y-25278476D01*
X59006449Y-26520963D02*
X59036753Y-26389643D01*
X58976144Y-26248222D01*
X58067007Y-25339085D01*
X58673098Y-26753298D02*
X58642794Y-26884618D01*
X58481169Y-27046243D01*
X58349850Y-27076547D01*
X58208428Y-27015938D01*
X58157921Y-26965430D01*
X58097311Y-26824009D01*
X58127616Y-26692689D01*
X58248834Y-26571471D01*
X58279139Y-26440151D01*
X58218530Y-26298730D01*
X58168022Y-26248222D01*
X58026601Y-26187613D01*
X57895281Y-26217917D01*
X57774063Y-26339136D01*
X57743758Y-26470456D01*
X57622540Y-27803857D02*
X57753860Y-27773552D01*
X57915484Y-27611928D01*
X57945789Y-27480608D01*
X57885179Y-27339187D01*
X57481118Y-26935126D01*
X57339697Y-26874517D01*
X57208377Y-26904821D01*
X57046753Y-27066446D01*
X57016448Y-27197765D01*
X57077057Y-27339187D01*
X57178073Y-27440202D01*
X57683149Y-27137156D01*
X56561880Y-27551319D02*
X57268986Y-28258426D01*
X56662895Y-27652334D02*
X56571981Y-27642233D01*
X56440661Y-27672537D01*
X56319443Y-27793755D01*
X56289138Y-27925075D01*
X56349747Y-28066497D01*
X56905331Y-28622081D01*
X56097209Y-28622081D02*
X55450712Y-29268578D01*
X55450712Y-30076700D02*
X54390052Y-29016040D01*
X55087057Y-30440355D02*
X54531473Y-29884771D01*
X54470864Y-29743350D01*
X54501168Y-29612030D01*
X54622387Y-29490812D01*
X54753706Y-29460507D01*
X54844620Y-29470609D01*
X53612234Y-30500964D02*
X54672894Y-31561624D01*
X54268833Y-31157563D02*
X54400153Y-31127259D01*
X54561777Y-30965634D01*
X54592082Y-30834315D01*
X54581981Y-30743401D01*
X54521371Y-30601980D01*
X54218326Y-30298934D01*
X54076904Y-30238325D01*
X53985991Y-30228223D01*
X53854671Y-30258528D01*
X53693046Y-30420152D01*
X53662742Y-30551472D01*
X53814265Y-31511117D02*
X53824366Y-31602031D01*
X53915280Y-31612132D01*
X53905178Y-31521218D01*
X53814265Y-31511117D01*
X53915280Y-31612132D01*
X53390001Y-32137411D02*
X53420305Y-32006092D01*
X53410204Y-31915178D01*
X53349594Y-31773756D01*
X53046549Y-31470711D01*
X52905127Y-31410102D01*
X52814214Y-31400000D01*
X52682894Y-31430305D01*
X52561675Y-31551523D01*
X52531371Y-31682843D01*
X52541472Y-31773756D01*
X52602082Y-31915178D01*
X52905127Y-32218224D01*
X53046549Y-32278833D01*
X53137462Y-32288934D01*
X53268782Y-32258630D01*
X53390001Y-32137411D01*
X52743503Y-32783909D02*
X52036396Y-32076802D01*
X52238427Y-32278833D02*
X52097005Y-32218224D01*
X52006092Y-32208122D01*
X51874772Y-32238427D01*
X51793960Y-32319239D01*
X51147462Y-32965736D02*
X52006092Y-33824366D01*
X52147513Y-33884975D01*
X52238427Y-33895077D01*
X52369746Y-33864772D01*
X52490965Y-33743554D01*
X52521269Y-33612234D01*
X51804061Y-33622336D02*
X51935381Y-33592031D01*
X52097005Y-33430407D01*
X52127310Y-33299087D01*
X52117208Y-33208173D01*
X52056599Y-33066752D01*
X51753553Y-32763706D01*
X51612132Y-32703097D01*
X51521218Y-32692995D01*
X51389898Y-32723300D01*
X51228274Y-32884924D01*
X51197970Y-33016244D01*
X49733248Y-33571828D02*
X51824264Y-34208224D01*
X50440355Y-35087057D02*
X50470660Y-34955737D01*
X50410051Y-34814316D01*
X49500913Y-33905178D01*
X49743350Y-35683047D02*
X49874670Y-35652742D01*
X50036294Y-35491118D01*
X50066599Y-35359798D01*
X50005990Y-35218377D01*
X49601928Y-34814316D01*
X49460507Y-34753706D01*
X49329187Y-34784011D01*
X49167563Y-34945635D01*
X49137258Y-35076955D01*
X49197867Y-35218377D01*
X49298883Y-35319392D01*
X49803959Y-35016346D01*
X49026142Y-36501270D02*
X47965481Y-35440610D01*
X48975634Y-36450763D02*
X49106954Y-36420458D01*
X49268578Y-36258834D01*
X49298883Y-36127514D01*
X49288781Y-36036600D01*
X49228172Y-35895179D01*
X48925126Y-35592133D01*
X48783705Y-35531524D01*
X48692791Y-35521422D01*
X48561471Y-35551727D01*
X48399847Y-35713351D01*
X48369542Y-35844671D01*
X48218020Y-36501270D02*
X47571522Y-37147768D01*
X47571522Y-37955890D02*
X46510862Y-36895230D01*
X47207867Y-38319545D02*
X46652283Y-37763961D01*
X46591674Y-37622540D01*
X46621978Y-37491220D01*
X46743197Y-37370002D01*
X46874517Y-37339697D01*
X46965430Y-37349799D01*
X46430050Y-38996347D02*
X46561369Y-38966043D01*
X46722994Y-38804418D01*
X46753298Y-38673098D01*
X46692689Y-38531677D01*
X46288628Y-38127616D01*
X46147207Y-38067007D01*
X46015887Y-38097311D01*
X45854263Y-38258936D01*
X45823958Y-38390256D01*
X45884567Y-38531677D01*
X45985582Y-38632692D01*
X46490659Y-38329646D01*
X45712841Y-39814571D02*
X45157257Y-39258987D01*
X45096648Y-39117565D01*
X45126953Y-38986246D01*
X45288577Y-38824621D01*
X45419897Y-38794317D01*
X45662334Y-39764063D02*
X45793653Y-39733759D01*
X45995684Y-39531728D01*
X46025988Y-39400408D01*
X45965379Y-39258987D01*
X45864364Y-39157972D01*
X45722943Y-39097362D01*
X45591623Y-39127667D01*
X45389592Y-39329697D01*
X45258273Y-39360002D01*
X45308780Y-40218632D02*
X44601673Y-39511525D01*
X44803704Y-39713555D02*
X44662283Y-39652946D01*
X44571369Y-39642845D01*
X44440049Y-39673149D01*
X44359237Y-39753962D01*
X44197612Y-39915586D02*
X43874364Y-40238835D01*
X43722841Y-39683251D02*
X44631978Y-40592388D01*
X44692587Y-40733810D01*
X44662283Y-40865129D01*
X44581470Y-40945942D01*
X42581368Y-40723708D02*
X44672384Y-41360104D01*
D13*
X72128392Y-61916071D02*
X72723630Y-61916071D01*
X72723630Y-60416071D01*
X71711726Y-61130357D02*
X71295059Y-61130357D01*
X71116488Y-61916071D02*
X71711726Y-61916071D01*
X71711726Y-60416071D01*
X71116488Y-60416071D01*
X70580773Y-61916071D02*
X70580773Y-60416071D01*
X70283154Y-60416071D01*
X70104583Y-60487500D01*
X69985535Y-60630357D01*
X69926011Y-60773214D01*
X69866488Y-61058928D01*
X69866488Y-61273214D01*
X69926011Y-61558928D01*
X69985535Y-61701785D01*
X70104583Y-61844642D01*
X70283154Y-61916071D01*
X70580773Y-61916071D01*
X69330773Y-61344642D02*
X68378392Y-61344642D01*
X67783154Y-61916071D02*
X67783154Y-60916071D01*
X67783154Y-61201785D02*
X67723630Y-61058928D01*
X67664107Y-60987500D01*
X67545059Y-60916071D01*
X67426011Y-60916071D01*
X67009345Y-61916071D02*
X67009345Y-60916071D01*
X67009345Y-60416071D02*
X67068869Y-60487500D01*
X67009345Y-60558928D01*
X66949821Y-60487500D01*
X67009345Y-60416071D01*
X67009345Y-60558928D01*
X66414107Y-60916071D02*
X66414107Y-61916071D01*
X66414107Y-61058928D02*
X66354583Y-60987500D01*
X66235535Y-60916071D01*
X66056964Y-60916071D01*
X65937916Y-60987500D01*
X65878392Y-61130357D01*
X65878392Y-61916071D01*
X64747440Y-60916071D02*
X64747440Y-62130357D01*
X64806964Y-62273214D01*
X64866488Y-62344642D01*
X64985535Y-62416071D01*
X65164107Y-62416071D01*
X65283154Y-62344642D01*
X64747440Y-61844642D02*
X64866488Y-61916071D01*
X65104583Y-61916071D01*
X65223630Y-61844642D01*
X65283154Y-61773214D01*
X65342678Y-61630357D01*
X65342678Y-61201785D01*
X65283154Y-61058928D01*
X65223630Y-60987500D01*
X65104583Y-60916071D01*
X64866488Y-60916071D01*
X64747440Y-60987500D01*
X63199821Y-61916071D02*
X63199821Y-60916071D01*
X63199821Y-61201785D02*
X63140297Y-61058928D01*
X63080773Y-60987500D01*
X62961726Y-60916071D01*
X62842678Y-60916071D01*
X61949821Y-61844642D02*
X62068869Y-61916071D01*
X62306964Y-61916071D01*
X62426011Y-61844642D01*
X62485535Y-61701785D01*
X62485535Y-61130357D01*
X62426011Y-60987500D01*
X62306964Y-60916071D01*
X62068869Y-60916071D01*
X61949821Y-60987500D01*
X61890297Y-61130357D01*
X61890297Y-61273214D01*
X62485535Y-61416071D01*
X61473630Y-60916071D02*
X61176011Y-61916071D01*
X60878392Y-60916071D01*
X59747440Y-61916071D02*
X60461726Y-61916071D01*
X60104583Y-61916071D02*
X60104583Y-60416071D01*
X60223630Y-60630357D01*
X60342678Y-60773214D01*
X60461726Y-60844642D01*
X72723630Y-64441071D02*
X72723630Y-62941071D01*
X72604583Y-63869642D02*
X72247440Y-64441071D01*
X72247440Y-63441071D02*
X72723630Y-64012500D01*
X71711726Y-63441071D02*
X71711726Y-64441071D01*
X71711726Y-63583928D02*
X71652202Y-63512500D01*
X71533154Y-63441071D01*
X71354583Y-63441071D01*
X71235535Y-63512500D01*
X71176011Y-63655357D01*
X71176011Y-64441071D01*
X70580773Y-64441071D02*
X70580773Y-63441071D01*
X70580773Y-62941071D02*
X70640297Y-63012500D01*
X70580773Y-63083928D01*
X70521250Y-63012500D01*
X70580773Y-62941071D01*
X70580773Y-63083928D01*
X69509345Y-64369642D02*
X69628392Y-64441071D01*
X69866488Y-64441071D01*
X69985535Y-64369642D01*
X70045059Y-64226785D01*
X70045059Y-63655357D01*
X69985535Y-63512500D01*
X69866488Y-63441071D01*
X69628392Y-63441071D01*
X69509345Y-63512500D01*
X69449821Y-63655357D01*
X69449821Y-63798214D01*
X70045059Y-63941071D01*
X68735535Y-64441071D02*
X68854583Y-64369642D01*
X68914107Y-64226785D01*
X68914107Y-62941071D01*
X68318869Y-64369642D02*
X68199821Y-64441071D01*
X67961726Y-64441071D01*
X67842678Y-64369642D01*
X67783154Y-64226785D01*
X67783154Y-64155357D01*
X67842678Y-64012500D01*
X67961726Y-63941071D01*
X68140297Y-63941071D01*
X68259345Y-63869642D01*
X68318869Y-63726785D01*
X68318869Y-63655357D01*
X68259345Y-63512500D01*
X68140297Y-63441071D01*
X67961726Y-63441071D01*
X67842678Y-63512500D01*
X66771250Y-64369642D02*
X66890297Y-64441071D01*
X67128392Y-64441071D01*
X67247440Y-64369642D01*
X67306964Y-64226785D01*
X67306964Y-63655357D01*
X67247440Y-63512500D01*
X67128392Y-63441071D01*
X66890297Y-63441071D01*
X66771250Y-63512500D01*
X66711726Y-63655357D01*
X66711726Y-63798214D01*
X67306964Y-63941071D01*
X66176011Y-63441071D02*
X66176011Y-64441071D01*
X66176011Y-63583928D02*
X66116488Y-63512500D01*
X65997440Y-63441071D01*
X65818869Y-63441071D01*
X65699821Y-63512500D01*
X65640297Y-63655357D01*
X65640297Y-64441071D01*
X65045059Y-63869642D02*
X64092678Y-63869642D01*
X63497440Y-64441071D02*
X63497440Y-62941071D01*
X62961726Y-64441071D02*
X62961726Y-63655357D01*
X63021250Y-63512500D01*
X63140297Y-63441071D01*
X63318869Y-63441071D01*
X63437916Y-63512500D01*
X63497440Y-63583928D01*
X61830773Y-63441071D02*
X61830773Y-64941071D01*
X61830773Y-64369642D02*
X61949821Y-64441071D01*
X62187916Y-64441071D01*
X62306964Y-64369642D01*
X62366488Y-64298214D01*
X62426011Y-64155357D01*
X62426011Y-63726785D01*
X62366488Y-63583928D01*
X62306964Y-63512500D01*
X62187916Y-63441071D01*
X61949821Y-63441071D01*
X61830773Y-63512500D01*
X61235535Y-64298214D02*
X61176011Y-64369642D01*
X61235535Y-64441071D01*
X61295059Y-64369642D01*
X61235535Y-64298214D01*
X61235535Y-64441071D01*
X60461726Y-64441071D02*
X60580773Y-64369642D01*
X60640297Y-64298214D01*
X60699821Y-64155357D01*
X60699821Y-63726785D01*
X60640297Y-63583928D01*
X60580773Y-63512500D01*
X60461726Y-63441071D01*
X60283154Y-63441071D01*
X60164107Y-63512500D01*
X60104583Y-63583928D01*
X60045059Y-63726785D01*
X60045059Y-64155357D01*
X60104583Y-64298214D01*
X60164107Y-64369642D01*
X60283154Y-64441071D01*
X60461726Y-64441071D01*
X59509345Y-64441071D02*
X59509345Y-63441071D01*
X59509345Y-63726785D02*
X59449821Y-63583928D01*
X59390297Y-63512500D01*
X59271250Y-63441071D01*
X59152202Y-63441071D01*
X58199821Y-63441071D02*
X58199821Y-64655357D01*
X58259345Y-64798214D01*
X58318869Y-64869642D01*
X58437916Y-64941071D01*
X58616488Y-64941071D01*
X58735535Y-64869642D01*
X58199821Y-64369642D02*
X58318869Y-64441071D01*
X58556964Y-64441071D01*
X58676011Y-64369642D01*
X58735535Y-64298214D01*
X58795059Y-64155357D01*
X58795059Y-63726785D01*
X58735535Y-63583928D01*
X58676011Y-63512500D01*
X58556964Y-63441071D01*
X58318869Y-63441071D01*
X58199821Y-63512500D01*
X56711726Y-62869642D02*
X57783154Y-64798214D01*
X56116488Y-64441071D02*
X56235535Y-64369642D01*
X56295059Y-64226785D01*
X56295059Y-62941071D01*
X55164107Y-64369642D02*
X55283154Y-64441071D01*
X55521250Y-64441071D01*
X55640297Y-64369642D01*
X55699821Y-64226785D01*
X55699821Y-63655357D01*
X55640297Y-63512500D01*
X55521250Y-63441071D01*
X55283154Y-63441071D01*
X55164107Y-63512500D01*
X55104583Y-63655357D01*
X55104583Y-63798214D01*
X55699821Y-63941071D01*
X54033154Y-64441071D02*
X54033154Y-62941071D01*
X54033154Y-64369642D02*
X54152202Y-64441071D01*
X54390297Y-64441071D01*
X54509345Y-64369642D01*
X54568869Y-64298214D01*
X54628392Y-64155357D01*
X54628392Y-63726785D01*
X54568869Y-63583928D01*
X54509345Y-63512500D01*
X54390297Y-63441071D01*
X54152202Y-63441071D01*
X54033154Y-63512500D01*
X53437916Y-63869642D02*
X52485535Y-63869642D01*
X51890297Y-64441071D02*
X51890297Y-63441071D01*
X51890297Y-63726785D02*
X51830773Y-63583928D01*
X51771250Y-63512500D01*
X51652202Y-63441071D01*
X51533154Y-63441071D01*
X51116488Y-64441071D02*
X51116488Y-63441071D01*
X51116488Y-62941071D02*
X51176011Y-63012500D01*
X51116488Y-63083928D01*
X51056964Y-63012500D01*
X51116488Y-62941071D01*
X51116488Y-63083928D01*
X50521250Y-63441071D02*
X50521250Y-64441071D01*
X50521250Y-63583928D02*
X50461726Y-63512500D01*
X50342678Y-63441071D01*
X50164107Y-63441071D01*
X50045059Y-63512500D01*
X49985535Y-63655357D01*
X49985535Y-64441071D01*
X48854583Y-63441071D02*
X48854583Y-64655357D01*
X48914107Y-64798214D01*
X48973630Y-64869642D01*
X49092678Y-64941071D01*
X49271250Y-64941071D01*
X49390297Y-64869642D01*
X48854583Y-64369642D02*
X48973630Y-64441071D01*
X49211726Y-64441071D01*
X49330773Y-64369642D01*
X49390297Y-64298214D01*
X49449821Y-64155357D01*
X49449821Y-63726785D01*
X49390297Y-63583928D01*
X49330773Y-63512500D01*
X49211726Y-63441071D01*
X48973630Y-63441071D01*
X48854583Y-63512500D01*
X47366488Y-62869642D02*
X48437916Y-64798214D01*
D14*
X38500000Y-17500000D02*
G75*
G03X37000000Y-16000000I-1500000J0D01*
G01*
X28500000Y-16000000D02*
G75*
G03X27000000Y-17500000I0J-1500000D01*
G01*
X37000000Y-58000000D02*
G75*
G03X38500000Y-56500000I0J1500000D01*
G01*
X27000000Y-56500000D02*
G75*
G03X28500000Y-58000000I1500000J0D01*
G01*
X43260000Y-54760000D02*
X43000000Y-54500000D01*
X43580000Y-55060000D02*
X43260000Y-54760000D01*
X43860000Y-55280000D02*
X43580000Y-55060000D01*
X44170000Y-55550000D02*
X43860000Y-55280000D01*
X44480000Y-55780000D02*
X44170000Y-55550000D01*
X44810000Y-55990000D02*
X44480000Y-55780000D01*
X45100000Y-56190000D02*
X44810000Y-55990000D01*
X45460000Y-56410000D02*
X45100000Y-56190000D01*
X45800000Y-56590000D02*
X45460000Y-56410000D01*
X46240000Y-56810000D02*
X45800000Y-56590000D01*
X46540000Y-56960000D02*
X46240000Y-56810000D01*
X46880000Y-57100000D02*
X46540000Y-56960000D01*
X47180000Y-57230000D02*
X46880000Y-57100000D01*
X47570000Y-57370000D02*
X47180000Y-57230000D01*
X48000000Y-57500000D02*
X47570000Y-57370000D01*
X48400000Y-57620000D02*
X48000000Y-57500000D01*
X48790000Y-57720000D02*
X48400000Y-57620000D01*
X49190000Y-57800000D02*
X48790000Y-57720000D01*
X49600000Y-57880000D02*
X49190000Y-57800000D01*
X49980000Y-57930000D02*
X49600000Y-57880000D01*
X50300000Y-57960000D02*
X49980000Y-57930000D01*
X50500000Y-58000000D02*
X50300000Y-57960000D01*
X53010000Y-57940000D02*
X52500000Y-58000000D01*
X53350000Y-57890000D02*
X53010000Y-57940000D01*
X53800000Y-57800000D02*
X53350000Y-57890000D01*
X54260000Y-57720000D02*
X53800000Y-57800000D01*
X54650000Y-57620000D02*
X54260000Y-57720000D01*
X54940000Y-57510000D02*
X54650000Y-57620000D01*
X55530000Y-57340000D02*
X54940000Y-57510000D01*
X55860000Y-57230000D02*
X55530000Y-57340000D01*
X56130000Y-57090000D02*
X55860000Y-57230000D01*
X56540000Y-56930000D02*
X56130000Y-57090000D01*
X56830000Y-56790000D02*
X56540000Y-56930000D01*
X57180000Y-56590000D02*
X56830000Y-56790000D01*
X57620000Y-56360000D02*
X57180000Y-56590000D01*
X57920000Y-56180000D02*
X57620000Y-56360000D01*
X58200000Y-55980000D02*
X57920000Y-56180000D01*
X58610000Y-55700000D02*
X58200000Y-55980000D01*
X58930000Y-55470000D02*
X58610000Y-55700000D01*
X59150000Y-55270000D02*
X58930000Y-55470000D01*
X59500000Y-54980000D02*
X59150000Y-55270000D01*
X59710000Y-54790000D02*
X59500000Y-54980000D01*
X60000000Y-54500000D02*
X59710000Y-54790000D01*
X52500000Y-59000000D02*
X77000000Y-59000000D01*
X50500000Y-59000000D02*
X34000000Y-59000000D01*
X34000000Y-58000000D02*
G75*
G03X34000000Y-59000000I0J-500000D01*
G01*
X52500000Y-58000000D02*
G75*
G03X52500000Y-59000000I0J-500000D01*
G01*
X50500000Y-59000000D02*
G75*
G03X50500000Y-58000000I0J500000D01*
G01*
X32000000Y-59000000D02*
G75*
G03X32500000Y-58500000I0J500000D01*
G01*
X32000000Y-59000000D02*
X27000000Y-59000000D01*
X77000000Y-66000000D02*
X77000000Y-59000000D01*
X27000000Y-66000000D02*
X77000000Y-66000000D01*
X27000000Y-59000000D02*
X27000000Y-66000000D01*
X38500000Y-47000000D02*
X38500000Y-56500000D01*
X38500000Y-30000000D02*
X38500000Y-45000000D01*
X42990000Y-54480000D02*
X43000000Y-54500000D01*
X42650000Y-54130000D02*
X42990000Y-54480000D01*
X42380000Y-53830000D02*
X42650000Y-54130000D01*
X42200000Y-53610000D02*
X42380000Y-53830000D01*
X41880000Y-53210000D02*
X42200000Y-53610000D01*
X41650000Y-52900000D02*
X41880000Y-53210000D01*
X41510000Y-52680000D02*
X41650000Y-52900000D01*
X41250000Y-52290000D02*
X41510000Y-52680000D01*
X41040000Y-51950000D02*
X41250000Y-52290000D01*
X40910000Y-51690000D02*
X41040000Y-51950000D01*
X40700000Y-51300000D02*
X40910000Y-51690000D01*
X40530000Y-50950000D02*
X40700000Y-51300000D01*
X40400000Y-50600000D02*
X40530000Y-50950000D01*
X40220000Y-50180000D02*
X40400000Y-50600000D01*
X40100000Y-49840000D02*
X40220000Y-50180000D01*
X40000000Y-49500000D02*
X40100000Y-49840000D01*
X39830000Y-48980000D02*
X40000000Y-49500000D01*
X39760000Y-48650000D02*
X39830000Y-48980000D01*
X39700000Y-48310000D02*
X39760000Y-48650000D01*
X39610000Y-47830000D02*
X39700000Y-48310000D01*
X39540000Y-47420000D02*
X39610000Y-47830000D01*
X39500000Y-47000000D02*
X39540000Y-47420000D01*
X39500000Y-47000000D02*
G75*
G03X38500000Y-47000000I-500000J0D01*
G01*
X38500000Y-45000000D02*
G75*
G03X39500000Y-45000000I500000J0D01*
G01*
X39540000Y-44810000D02*
X39500000Y-45000000D01*
X39580000Y-44450000D02*
X39540000Y-44810000D01*
X39640000Y-44020000D02*
X39580000Y-44450000D01*
X39710000Y-43660000D02*
X39640000Y-44020000D01*
X39800000Y-43210000D02*
X39710000Y-43660000D01*
X39900000Y-42840000D02*
X39800000Y-43210000D01*
X40000000Y-42500000D02*
X39900000Y-42840000D01*
X40150000Y-42040000D02*
X40000000Y-42500000D01*
X40260000Y-41730000D02*
X40150000Y-42040000D01*
X40400000Y-41390000D02*
X40260000Y-41730000D01*
X40600000Y-40940000D02*
X40400000Y-41390000D01*
X40750000Y-40620000D02*
X40600000Y-40940000D01*
X40910000Y-40300000D02*
X40750000Y-40620000D01*
X41160000Y-39870000D02*
X40910000Y-40300000D01*
X41300000Y-39640000D02*
X41160000Y-39870000D01*
X41550000Y-39260000D02*
X41300000Y-39640000D01*
X41800000Y-38910000D02*
X41550000Y-39260000D01*
X42020000Y-38600000D02*
X41800000Y-38910000D01*
X42260000Y-38320000D02*
X42020000Y-38600000D01*
X42520000Y-38010000D02*
X42260000Y-38320000D01*
X42710000Y-37790000D02*
X42520000Y-38010000D01*
X43000000Y-37500000D02*
X42710000Y-37790000D01*
X38500000Y-17500000D02*
X38500000Y-28000000D01*
X60000000Y-20500000D02*
G75*
G03X43000000Y-20500000I-8500000J-8500000D01*
G01*
X42650000Y-37160000D02*
X43000000Y-37500000D01*
X42440000Y-36910000D02*
X42650000Y-37160000D01*
X42200000Y-36600000D02*
X42440000Y-36910000D01*
X41960000Y-36330000D02*
X42200000Y-36600000D01*
X41780000Y-36080000D02*
X41960000Y-36330000D01*
X41510000Y-35690000D02*
X41780000Y-36080000D01*
X41280000Y-35330000D02*
X41510000Y-35690000D01*
X41080000Y-35000000D02*
X41280000Y-35330000D01*
X40900000Y-34680000D02*
X41080000Y-35000000D01*
X40710000Y-34320000D02*
X40900000Y-34680000D01*
X40550000Y-33990000D02*
X40710000Y-34320000D01*
X40400000Y-33600000D02*
X40550000Y-33990000D01*
X40260000Y-33280000D02*
X40400000Y-33600000D01*
X40120000Y-32890000D02*
X40260000Y-33280000D01*
X40000000Y-32500000D02*
X40120000Y-32890000D01*
X39820000Y-31860000D02*
X40000000Y-32500000D01*
X39700000Y-31320000D02*
X39820000Y-31860000D01*
X39600000Y-30750000D02*
X39700000Y-31320000D01*
X39500000Y-30000000D02*
X39600000Y-30750000D01*
X39600000Y-27300000D02*
X39500000Y-28000000D01*
X39720000Y-26620000D02*
X39600000Y-27300000D01*
X39860000Y-26000000D02*
X39720000Y-26620000D01*
X40000000Y-25490000D02*
X39860000Y-26000000D01*
X40170000Y-24990000D02*
X40000000Y-25490000D01*
X40400000Y-24390000D02*
X40170000Y-24990000D01*
X40730000Y-23690000D02*
X40400000Y-24390000D01*
X40910000Y-23320000D02*
X40730000Y-23690000D01*
X41240000Y-22770000D02*
X40910000Y-23320000D01*
X41540000Y-22280000D02*
X41240000Y-22770000D01*
X41770000Y-21970000D02*
X41540000Y-22280000D01*
X42170000Y-21430000D02*
X41770000Y-21970000D01*
X42330000Y-21240000D02*
X42170000Y-21430000D01*
X42610000Y-20930000D02*
X42330000Y-21240000D01*
X43000000Y-20500000D02*
X42610000Y-20930000D01*
X39500000Y-30000000D02*
G75*
G03X38500000Y-30000000I-500000J0D01*
G01*
X38500000Y-28000000D02*
G75*
G03X39500000Y-28000000I500000J0D01*
G01*
X77000000Y-37500000D02*
X60000000Y-20500000D01*
X60000000Y-54500000D02*
X77000000Y-37500000D01*
X37000000Y-58000000D02*
X34000000Y-58000000D01*
X32000000Y-58000000D02*
X28500000Y-58000000D01*
X32500000Y-58500000D02*
G75*
G03X32000000Y-58000000I-500000J0D01*
G01*
X28500000Y-16000000D02*
X37000000Y-16000000D01*
X27000000Y-56500000D02*
X27000000Y-17500000D01*
X56567148Y-54302996D02*
G75*
G02X63390454Y-47565459I6913108J-177260D01*
G01*
X56565459Y-54390454D02*
G75*
G02X54410197Y-56545715I-2065459J-89802D01*
G01*
X65545715Y-45410197D02*
G75*
G02X63390454Y-47565459I-2065459J-89803D01*
G01*
X65545715Y-45410197D02*
X65545715Y-41638490D01*
X50638490Y-56545715D02*
X54410197Y-56545715D01*
X43454285Y-49361510D02*
X50638490Y-56545715D01*
X43454285Y-45589803D02*
X43454285Y-49361510D01*
X54589803Y-34454285D02*
X43454285Y-45589803D01*
X58361510Y-34454285D02*
X54589803Y-34454285D01*
X65545715Y-41638490D02*
X58361510Y-34454285D01*
%LPC*%
D15*
X67196051Y-33900000D03*
X66298025Y-33001975D03*
X65400000Y-32103949D03*
X64501974Y-31205924D03*
X63603949Y-30307898D03*
X65400000Y-33900000D03*
X64501974Y-33001975D03*
X63603949Y-32103949D03*
X62705923Y-31205924D03*
X31060000Y-63135000D03*
X32330000Y-63135000D03*
X33600000Y-63135000D03*
X34870000Y-63135000D03*
X36140000Y-63135000D03*
X32330000Y-61865000D03*
X33600000Y-61865000D03*
X34870000Y-61865000D03*
X36140000Y-61865000D03*
D16*
X29050000Y-63800000D03*
D17*
X29050000Y-61260000D03*
D16*
X36068000Y-45212000D03*
D17*
X33528000Y-45212000D03*
D16*
X36068000Y-40132000D03*
D17*
X33528000Y-40132000D03*
D16*
X36068000Y-37592000D03*
D17*
X33528000Y-37592000D03*
D18*
X28800000Y-27420000D03*
D19*
X28800000Y-29960000D03*
X28800000Y-32500000D03*
X28800000Y-35040000D03*
X28800000Y-37580000D03*
X28800000Y-40120000D03*
D20*
X35920680Y-20810220D03*
X30119320Y-20810220D03*
D21*
X35745420Y-17929860D03*
X30294580Y-17929860D03*
D22*
X30460000Y-54111000D03*
X31730000Y-54111000D03*
X33000000Y-54111000D03*
X34270000Y-54111000D03*
X35540000Y-54111000D03*
X30460000Y-55889000D03*
X31730000Y-55889000D03*
X33000000Y-55889000D03*
X34270000Y-55889000D03*
X35540000Y-55889000D03*
D10*
G36*
X61684205Y-34440849D02*
X65559151Y-38315795D01*
X63480257Y-40394689D01*
X59605311Y-36519743D01*
X61684205Y-34440849D01*
X61684205Y-34440849D01*
G37*
G36*
X45519743Y-50605311D02*
X49394689Y-54480257D01*
X47315795Y-56559151D01*
X43440849Y-52684205D01*
X45519743Y-50605311D01*
X45519743Y-50605311D01*
G37*
D23*
X54500000Y-45500000D03*
D16*
X36068000Y-42672000D03*
D17*
X33528000Y-42672000D03*
D16*
X36068000Y-35052000D03*
D17*
X33528000Y-35052000D03*
M02*
