G04 #@! TF.FileFunction,Copper,L2,Bot,Signal*
%FSLAX46Y46*%
G04 Gerber Fmt 4.6, Leading zero omitted, Abs format (unit mm)*
G04 Created by KiCad (PCBNEW (2016-07-22 BZR 6991, Git 146a78a)-product) date Tue Jul 26 18:11:02 2016*
%MOMM*%
%LPD*%
G01*
G04 APERTURE LIST*
%ADD10C,0.100000*%
%ADD11C,0.150000*%
%ADD12C,1.016000*%
%ADD13R,2.032000X2.032000*%
%ADD14O,2.032000X2.032000*%
%ADD15R,2.032000X1.727200*%
%ADD16O,2.032000X1.727200*%
%ADD17O,1.104800X1.612800*%
%ADD18C,17.780000*%
%ADD19C,8.000000*%
%ADD20C,0.635000*%
%ADD21C,0.254000*%
%ADD22C,0.152400*%
%ADD23C,0.508000*%
%ADD24C,0.304800*%
%ADD25C,0.203200*%
%ADD26C,0.381000*%
G04 APERTURE END LIST*
D10*
D11*
X38500000Y-17500000D02*
G75*
G03X37000000Y-16000000I-1500000J0D01*
G01*
X28500000Y-16000000D02*
G75*
G03X27000000Y-17500000I0J-1500000D01*
G01*
X37000000Y-58000000D02*
G75*
G03X38500000Y-56500000I0J1500000D01*
G01*
X27000000Y-56500000D02*
G75*
G03X28500000Y-58000000I1500000J0D01*
G01*
X43260000Y-54760000D02*
X43000000Y-54500000D01*
X43580000Y-55060000D02*
X43260000Y-54760000D01*
X43860000Y-55280000D02*
X43580000Y-55060000D01*
X44170000Y-55550000D02*
X43860000Y-55280000D01*
X44480000Y-55780000D02*
X44170000Y-55550000D01*
X44810000Y-55990000D02*
X44480000Y-55780000D01*
X45100000Y-56190000D02*
X44810000Y-55990000D01*
X45460000Y-56410000D02*
X45100000Y-56190000D01*
X45800000Y-56590000D02*
X45460000Y-56410000D01*
X46240000Y-56810000D02*
X45800000Y-56590000D01*
X46540000Y-56960000D02*
X46240000Y-56810000D01*
X46880000Y-57100000D02*
X46540000Y-56960000D01*
X47180000Y-57230000D02*
X46880000Y-57100000D01*
X47570000Y-57370000D02*
X47180000Y-57230000D01*
X48000000Y-57500000D02*
X47570000Y-57370000D01*
X48400000Y-57620000D02*
X48000000Y-57500000D01*
X48790000Y-57720000D02*
X48400000Y-57620000D01*
X49190000Y-57800000D02*
X48790000Y-57720000D01*
X49600000Y-57880000D02*
X49190000Y-57800000D01*
X49980000Y-57930000D02*
X49600000Y-57880000D01*
X50300000Y-57960000D02*
X49980000Y-57930000D01*
X50500000Y-58000000D02*
X50300000Y-57960000D01*
X53010000Y-57940000D02*
X52500000Y-58000000D01*
X53350000Y-57890000D02*
X53010000Y-57940000D01*
X53800000Y-57800000D02*
X53350000Y-57890000D01*
X54260000Y-57720000D02*
X53800000Y-57800000D01*
X54650000Y-57620000D02*
X54260000Y-57720000D01*
X54940000Y-57510000D02*
X54650000Y-57620000D01*
X55530000Y-57340000D02*
X54940000Y-57510000D01*
X55860000Y-57230000D02*
X55530000Y-57340000D01*
X56130000Y-57090000D02*
X55860000Y-57230000D01*
X56540000Y-56930000D02*
X56130000Y-57090000D01*
X56830000Y-56790000D02*
X56540000Y-56930000D01*
X57180000Y-56590000D02*
X56830000Y-56790000D01*
X57620000Y-56360000D02*
X57180000Y-56590000D01*
X57920000Y-56180000D02*
X57620000Y-56360000D01*
X58200000Y-55980000D02*
X57920000Y-56180000D01*
X58610000Y-55700000D02*
X58200000Y-55980000D01*
X58930000Y-55470000D02*
X58610000Y-55700000D01*
X59150000Y-55270000D02*
X58930000Y-55470000D01*
X59500000Y-54980000D02*
X59150000Y-55270000D01*
X59710000Y-54790000D02*
X59500000Y-54980000D01*
X60000000Y-54500000D02*
X59710000Y-54790000D01*
X52500000Y-59000000D02*
X77000000Y-59000000D01*
X50500000Y-59000000D02*
X34000000Y-59000000D01*
X34000000Y-58000000D02*
G75*
G03X34000000Y-59000000I0J-500000D01*
G01*
X52500000Y-58000000D02*
G75*
G03X52500000Y-59000000I0J-500000D01*
G01*
X50500000Y-59000000D02*
G75*
G03X50500000Y-58000000I0J500000D01*
G01*
X32000000Y-59000000D02*
G75*
G03X32500000Y-58500000I0J500000D01*
G01*
X32000000Y-59000000D02*
X27000000Y-59000000D01*
X77000000Y-66000000D02*
X77000000Y-59000000D01*
X27000000Y-66000000D02*
X77000000Y-66000000D01*
X27000000Y-59000000D02*
X27000000Y-66000000D01*
X38500000Y-47000000D02*
X38500000Y-56500000D01*
X38500000Y-30000000D02*
X38500000Y-45000000D01*
X42990000Y-54480000D02*
X43000000Y-54500000D01*
X42650000Y-54130000D02*
X42990000Y-54480000D01*
X42380000Y-53830000D02*
X42650000Y-54130000D01*
X42200000Y-53610000D02*
X42380000Y-53830000D01*
X41880000Y-53210000D02*
X42200000Y-53610000D01*
X41650000Y-52900000D02*
X41880000Y-53210000D01*
X41510000Y-52680000D02*
X41650000Y-52900000D01*
X41250000Y-52290000D02*
X41510000Y-52680000D01*
X41040000Y-51950000D02*
X41250000Y-52290000D01*
X40910000Y-51690000D02*
X41040000Y-51950000D01*
X40700000Y-51300000D02*
X40910000Y-51690000D01*
X40530000Y-50950000D02*
X40700000Y-51300000D01*
X40400000Y-50600000D02*
X40530000Y-50950000D01*
X40220000Y-50180000D02*
X40400000Y-50600000D01*
X40100000Y-49840000D02*
X40220000Y-50180000D01*
X40000000Y-49500000D02*
X40100000Y-49840000D01*
X39830000Y-48980000D02*
X40000000Y-49500000D01*
X39760000Y-48650000D02*
X39830000Y-48980000D01*
X39700000Y-48310000D02*
X39760000Y-48650000D01*
X39610000Y-47830000D02*
X39700000Y-48310000D01*
X39540000Y-47420000D02*
X39610000Y-47830000D01*
X39500000Y-47000000D02*
X39540000Y-47420000D01*
X39500000Y-47000000D02*
G75*
G03X38500000Y-47000000I-500000J0D01*
G01*
X38500000Y-45000000D02*
G75*
G03X39500000Y-45000000I500000J0D01*
G01*
X39540000Y-44810000D02*
X39500000Y-45000000D01*
X39580000Y-44450000D02*
X39540000Y-44810000D01*
X39640000Y-44020000D02*
X39580000Y-44450000D01*
X39710000Y-43660000D02*
X39640000Y-44020000D01*
X39800000Y-43210000D02*
X39710000Y-43660000D01*
X39900000Y-42840000D02*
X39800000Y-43210000D01*
X40000000Y-42500000D02*
X39900000Y-42840000D01*
X40150000Y-42040000D02*
X40000000Y-42500000D01*
X40260000Y-41730000D02*
X40150000Y-42040000D01*
X40400000Y-41390000D02*
X40260000Y-41730000D01*
X40600000Y-40940000D02*
X40400000Y-41390000D01*
X40750000Y-40620000D02*
X40600000Y-40940000D01*
X40910000Y-40300000D02*
X40750000Y-40620000D01*
X41160000Y-39870000D02*
X40910000Y-40300000D01*
X41300000Y-39640000D02*
X41160000Y-39870000D01*
X41550000Y-39260000D02*
X41300000Y-39640000D01*
X41800000Y-38910000D02*
X41550000Y-39260000D01*
X42020000Y-38600000D02*
X41800000Y-38910000D01*
X42260000Y-38320000D02*
X42020000Y-38600000D01*
X42520000Y-38010000D02*
X42260000Y-38320000D01*
X42710000Y-37790000D02*
X42520000Y-38010000D01*
X43000000Y-37500000D02*
X42710000Y-37790000D01*
X38500000Y-17500000D02*
X38500000Y-28000000D01*
X60000000Y-20500000D02*
G75*
G03X43000000Y-20500000I-8500000J-8500000D01*
G01*
X42650000Y-37160000D02*
X43000000Y-37500000D01*
X42440000Y-36910000D02*
X42650000Y-37160000D01*
X42200000Y-36600000D02*
X42440000Y-36910000D01*
X41960000Y-36330000D02*
X42200000Y-36600000D01*
X41780000Y-36080000D02*
X41960000Y-36330000D01*
X41510000Y-35690000D02*
X41780000Y-36080000D01*
X41280000Y-35330000D02*
X41510000Y-35690000D01*
X41080000Y-35000000D02*
X41280000Y-35330000D01*
X40900000Y-34680000D02*
X41080000Y-35000000D01*
X40710000Y-34320000D02*
X40900000Y-34680000D01*
X40550000Y-33990000D02*
X40710000Y-34320000D01*
X40400000Y-33600000D02*
X40550000Y-33990000D01*
X40260000Y-33280000D02*
X40400000Y-33600000D01*
X40120000Y-32890000D02*
X40260000Y-33280000D01*
X40000000Y-32500000D02*
X40120000Y-32890000D01*
X39820000Y-31860000D02*
X40000000Y-32500000D01*
X39700000Y-31320000D02*
X39820000Y-31860000D01*
X39600000Y-30750000D02*
X39700000Y-31320000D01*
X39500000Y-30000000D02*
X39600000Y-30750000D01*
X39600000Y-27300000D02*
X39500000Y-28000000D01*
X39720000Y-26620000D02*
X39600000Y-27300000D01*
X39860000Y-26000000D02*
X39720000Y-26620000D01*
X40000000Y-25490000D02*
X39860000Y-26000000D01*
X40170000Y-24990000D02*
X40000000Y-25490000D01*
X40400000Y-24390000D02*
X40170000Y-24990000D01*
X40730000Y-23690000D02*
X40400000Y-24390000D01*
X40910000Y-23320000D02*
X40730000Y-23690000D01*
X41240000Y-22770000D02*
X40910000Y-23320000D01*
X41540000Y-22280000D02*
X41240000Y-22770000D01*
X41770000Y-21970000D02*
X41540000Y-22280000D01*
X42170000Y-21430000D02*
X41770000Y-21970000D01*
X42330000Y-21240000D02*
X42170000Y-21430000D01*
X42610000Y-20930000D02*
X42330000Y-21240000D01*
X43000000Y-20500000D02*
X42610000Y-20930000D01*
X39500000Y-30000000D02*
G75*
G03X38500000Y-30000000I-500000J0D01*
G01*
X38500000Y-28000000D02*
G75*
G03X39500000Y-28000000I500000J0D01*
G01*
X77000000Y-37500000D02*
X60000000Y-20500000D01*
X60000000Y-54500000D02*
X77000000Y-37500000D01*
X37000000Y-58000000D02*
X34000000Y-58000000D01*
X32000000Y-58000000D02*
X28500000Y-58000000D01*
X32500000Y-58500000D02*
G75*
G03X32000000Y-58000000I-500000J0D01*
G01*
X28500000Y-16000000D02*
X37000000Y-16000000D01*
X27000000Y-56500000D02*
X27000000Y-17500000D01*
D12*
X67196051Y-33900000D03*
X66298025Y-33001975D03*
X65400000Y-32103949D03*
X64501974Y-31205924D03*
X63603949Y-30307898D03*
X65400000Y-33900000D03*
X64501974Y-33001975D03*
X63603949Y-32103949D03*
X62705923Y-31205924D03*
X31060000Y-63135000D03*
X32330000Y-63135000D03*
X33600000Y-63135000D03*
X34870000Y-63135000D03*
X36140000Y-63135000D03*
X32330000Y-61865000D03*
X33600000Y-61865000D03*
X34870000Y-61865000D03*
X36140000Y-61865000D03*
D13*
X29050000Y-63800000D03*
D14*
X29050000Y-61260000D03*
D13*
X36068000Y-45212000D03*
D14*
X33528000Y-45212000D03*
D13*
X36068000Y-40132000D03*
D14*
X33528000Y-40132000D03*
D13*
X36068000Y-37592000D03*
D14*
X33528000Y-37592000D03*
D15*
X28800000Y-27420000D03*
D16*
X28800000Y-29960000D03*
X28800000Y-32500000D03*
X28800000Y-35040000D03*
X28800000Y-37580000D03*
X28800000Y-40120000D03*
D17*
X30460000Y-54111000D03*
X31730000Y-54111000D03*
X33000000Y-54111000D03*
X34270000Y-54111000D03*
X35540000Y-54111000D03*
X30460000Y-55889000D03*
X31730000Y-55889000D03*
X33000000Y-55889000D03*
X34270000Y-55889000D03*
X35540000Y-55889000D03*
D10*
G36*
X61684205Y-34723692D02*
X65276308Y-38315795D01*
X63480257Y-40111846D01*
X59888154Y-36519743D01*
X61684205Y-34723692D01*
X61684205Y-34723692D01*
G37*
G36*
X45519743Y-50888154D02*
X49111846Y-54480257D01*
X47315795Y-56276308D01*
X43723692Y-52684205D01*
X45519743Y-50888154D01*
X45519743Y-50888154D01*
G37*
D18*
X54500000Y-45500000D03*
D19*
X50750000Y-21500000D03*
X44000000Y-28250000D03*
D13*
X36068000Y-42672000D03*
D14*
X33528000Y-42672000D03*
D13*
X36068000Y-35052000D03*
D14*
X33528000Y-35052000D03*
D20*
X67940000Y-62670000D03*
X63450000Y-62620000D03*
X58950000Y-62680000D03*
X54340000Y-62670000D03*
X49890000Y-62670000D03*
X72360000Y-62670000D03*
X33795511Y-60754578D03*
X45900000Y-63033623D03*
X43904054Y-62603695D03*
X35469908Y-60277478D03*
X32866184Y-60332302D03*
X35680462Y-64849363D03*
X31350000Y-61080098D03*
X37219427Y-62871081D03*
X37037496Y-63700685D03*
X37450000Y-64384426D03*
X38255731Y-64862682D03*
X47530098Y-63948056D03*
X39096022Y-62648077D03*
X51390000Y-63800000D03*
X40095187Y-63566524D03*
X42693555Y-63093245D03*
X46278545Y-62322205D03*
X39199484Y-63614263D03*
X51640982Y-62939346D03*
X56130551Y-62370165D03*
X40128233Y-61746110D03*
X43214617Y-61712583D03*
X60550000Y-62300000D03*
X65530000Y-61390000D03*
X37459961Y-60310541D03*
X65020137Y-63826910D03*
X39649992Y-64963560D03*
X69515328Y-63954890D03*
X40650000Y-64963552D03*
X65050000Y-62300000D03*
X41007421Y-61667760D03*
X38242062Y-60191908D03*
X69600000Y-62300000D03*
X70130000Y-61330000D03*
X39150000Y-60036449D03*
X73750000Y-61170000D03*
X40123758Y-60009416D03*
X31656802Y-52908264D03*
X37150309Y-24498249D03*
X32921479Y-46815973D03*
X31658628Y-44150509D03*
X29918694Y-50297334D03*
X32119608Y-50251290D03*
X29693719Y-49281069D03*
X32164313Y-49357196D03*
X36700000Y-52100000D03*
X36400000Y-31800000D03*
X35000000Y-31800000D03*
X32900000Y-29900000D03*
X35400000Y-24800000D03*
X31200000Y-22500000D03*
X45530065Y-38195663D03*
X46252064Y-37481032D03*
X44300000Y-50300000D03*
X43700000Y-49700000D03*
X47500000Y-51300000D03*
X47500000Y-52200000D03*
X49650000Y-44200000D03*
X43000000Y-34900000D03*
X44150808Y-44589535D03*
X45300000Y-48000000D03*
X44748855Y-45587510D03*
X58144511Y-29969609D03*
X61196124Y-30743806D03*
X45020730Y-46478133D03*
X46825000Y-33975000D03*
X45150000Y-33900000D03*
X61242228Y-34602228D03*
X60250000Y-35580000D03*
X65350000Y-37860000D03*
X65360000Y-38920000D03*
X64770000Y-39550000D03*
X64470000Y-36880000D03*
X46100000Y-50300000D03*
X47488268Y-56229453D03*
X45750000Y-49200000D03*
X37200000Y-28800000D03*
D21*
X63450000Y-63230000D02*
X67960000Y-63230000D01*
X67960000Y-63230000D02*
X70462977Y-63230000D01*
X67940000Y-62670000D02*
X67940000Y-63210000D01*
X67940000Y-63210000D02*
X67960000Y-63230000D01*
X58930000Y-63230000D02*
X63450000Y-63230000D01*
X63450000Y-63069012D02*
X63450000Y-63230000D01*
X63450000Y-62620000D02*
X63450000Y-63069012D01*
X55664070Y-63230000D02*
X58930000Y-63230000D01*
X58950000Y-63210000D02*
X58930000Y-63230000D01*
X58950000Y-62680000D02*
X58950000Y-63210000D01*
X54734070Y-62300000D02*
X55664070Y-63230000D01*
X54330000Y-62300000D02*
X54734070Y-62300000D01*
X70462977Y-63230000D02*
X71022977Y-62670000D01*
X71022977Y-62670000D02*
X72360000Y-62670000D01*
X54330000Y-62300000D02*
X49804873Y-62300000D01*
X54340000Y-62670000D02*
X54330000Y-62660000D01*
X54330000Y-62660000D02*
X54330000Y-62300000D01*
X49804873Y-62300000D02*
X49640000Y-62464873D01*
X49640000Y-62464873D02*
X49363341Y-62741532D01*
X49890000Y-62670000D02*
X49684873Y-62464873D01*
X49684873Y-62464873D02*
X49640000Y-62464873D01*
X49363341Y-62741532D02*
X46942283Y-62741532D01*
X46942283Y-62741532D02*
X46650192Y-63033623D01*
X46650192Y-63033623D02*
X45900000Y-63033623D01*
D22*
X33440422Y-60754578D02*
X33795511Y-60754578D01*
X32330000Y-61865000D02*
X33440422Y-60754578D01*
D21*
X43857749Y-62650000D02*
X43904054Y-62603695D01*
D22*
X42750257Y-62487522D02*
X42826231Y-62563496D01*
X41974974Y-62673222D02*
X42227623Y-62673222D01*
X43163496Y-62563496D02*
X43250000Y-62650000D01*
X42826231Y-62563496D02*
X43163496Y-62563496D01*
X42227623Y-62673222D02*
X42413323Y-62487522D01*
X42413323Y-62487522D02*
X42750257Y-62487522D01*
D21*
X43250000Y-62650000D02*
X43857749Y-62650000D01*
D23*
X33167818Y-60030668D02*
X35223098Y-60030668D01*
X35223098Y-60030668D02*
X35469908Y-60277478D01*
X32866184Y-60332302D02*
X33167818Y-60030668D01*
D21*
X36530302Y-60277478D02*
X37792265Y-61539441D01*
X35469908Y-60277478D02*
X36530302Y-60277478D01*
D23*
X30577599Y-60748176D02*
X30993473Y-60332302D01*
X30993473Y-60332302D02*
X32866184Y-60332302D01*
D21*
X37792265Y-61539441D02*
X39000556Y-61539441D01*
X40125927Y-62664812D02*
X41966564Y-62664812D01*
X41966564Y-62664812D02*
X41974974Y-62673222D01*
X39000556Y-61539441D02*
X40125927Y-62664812D01*
D23*
X30577599Y-60748176D02*
X30577599Y-62272401D01*
X30577599Y-62272401D02*
X30400000Y-62450000D01*
X31623363Y-64849363D02*
X35680462Y-64849363D01*
X30574000Y-63800000D02*
X31623363Y-64849363D01*
X29050000Y-63800000D02*
X30574000Y-63800000D01*
X30400000Y-62450000D02*
X29050000Y-63800000D01*
D21*
X31060000Y-63135000D02*
X30400000Y-62475000D01*
X30400000Y-62475000D02*
X30400000Y-62450000D01*
D22*
X31350000Y-61080098D02*
X31350000Y-62155000D01*
X31350000Y-62155000D02*
X32330000Y-63135000D01*
X36901928Y-62553582D02*
X36828582Y-62553582D01*
X36828582Y-62553582D02*
X36140000Y-61865000D01*
X36873745Y-62525399D02*
X36901928Y-62553582D01*
X36901928Y-62553582D02*
X37219427Y-62871081D01*
X36719997Y-63383186D02*
X36388186Y-63383186D01*
X36388186Y-63383186D02*
X36140000Y-63135000D01*
X36719997Y-63383186D02*
X37037496Y-63700685D01*
X37450000Y-64384426D02*
X36784426Y-64384426D01*
X36784426Y-64384426D02*
X36271601Y-63871601D01*
X36271601Y-63871601D02*
X35606601Y-63871601D01*
X35606601Y-63871601D02*
X34870000Y-63135000D01*
X38255731Y-64862682D02*
X38172386Y-64946027D01*
X38172386Y-64946027D02*
X36827251Y-64946027D01*
X36827251Y-64946027D02*
X36067119Y-64185895D01*
X36067119Y-64185895D02*
X34650895Y-64185895D01*
X34650895Y-64185895D02*
X33600000Y-63135000D01*
X42178914Y-64248968D02*
X42042585Y-64112639D01*
X35606601Y-61128399D02*
X34870000Y-61865000D01*
X39940279Y-64242212D02*
X38951204Y-64242212D01*
X38550000Y-63841008D02*
X38550000Y-63231151D01*
X38951204Y-64242212D02*
X38550000Y-63841008D01*
X40069852Y-64112639D02*
X39940279Y-64242212D01*
X42042585Y-64112639D02*
X40069852Y-64112639D01*
X47229186Y-64248968D02*
X42178914Y-64248968D01*
X38550000Y-63231151D02*
X36447248Y-61128399D01*
X47530098Y-63948056D02*
X47229186Y-64248968D01*
X36447248Y-61128399D02*
X35606601Y-61128399D01*
X33600000Y-61865000D02*
X34641412Y-60823588D01*
X34641412Y-60823588D02*
X36573503Y-60823588D01*
X36573503Y-60823588D02*
X38397992Y-62648077D01*
X38397992Y-62648077D02*
X39096022Y-62648077D01*
X48189353Y-63799079D02*
X51389079Y-63799079D01*
X51389079Y-63799079D02*
X51390000Y-63800000D01*
X40095187Y-63566524D02*
X41927537Y-63566524D01*
X47267968Y-63401954D02*
X47792228Y-63401954D01*
X42305170Y-63944157D02*
X46725765Y-63944157D01*
X41927537Y-63566524D02*
X42305170Y-63944157D01*
X46725765Y-63944157D02*
X47267968Y-63401954D01*
X47792228Y-63401954D02*
X48189353Y-63799079D01*
X44768688Y-63274922D02*
X43324244Y-63274922D01*
X45721405Y-62322205D02*
X44768688Y-63274922D01*
X43324244Y-63274922D02*
X43142567Y-63093245D01*
X46278545Y-62322205D02*
X45721405Y-62322205D01*
X43142567Y-63093245D02*
X42693555Y-63093245D01*
X41835262Y-63020423D02*
X39793324Y-63020423D01*
X39793324Y-63020423D02*
X39199484Y-63614263D01*
X46563563Y-63639346D02*
X42454185Y-63639346D01*
X42454185Y-63639346D02*
X41835262Y-63020423D01*
X47105766Y-63097143D02*
X46563563Y-63639346D01*
X48078186Y-63256845D02*
X47918484Y-63097143D01*
X51323483Y-63256845D02*
X48078186Y-63256845D01*
X51640982Y-62939346D02*
X51323483Y-63256845D01*
X47918484Y-63097143D02*
X47105766Y-63097143D01*
X42287067Y-62182711D02*
X42876513Y-62182711D01*
X55536481Y-61776095D02*
X56130551Y-62370165D01*
X43949408Y-61776095D02*
X55536481Y-61776095D01*
X42952487Y-62258685D02*
X43466818Y-62258685D01*
X42876513Y-62182711D02*
X42952487Y-62258685D01*
X42255908Y-62213870D02*
X42287067Y-62182711D01*
X40595993Y-62213870D02*
X42255908Y-62213870D01*
X40128233Y-61746110D02*
X40595993Y-62213870D01*
X43466818Y-62258685D02*
X43949408Y-61776095D01*
X60550000Y-62300000D02*
X59721284Y-61471284D01*
X43455916Y-61471284D02*
X43214617Y-61712583D01*
X59721284Y-61471284D02*
X43455916Y-61471284D01*
X64455930Y-60861662D02*
X65001662Y-60861662D01*
X65001662Y-60861662D02*
X65530000Y-61390000D01*
X38314560Y-61165140D02*
X37459961Y-60310541D01*
X40701811Y-61165140D02*
X38314560Y-61165140D01*
X41005289Y-60861662D02*
X40701811Y-61165140D01*
X64455930Y-60861662D02*
X41005289Y-60861662D01*
X42052658Y-64553779D02*
X64293268Y-64553779D01*
X64702638Y-64144409D02*
X65020137Y-63826910D01*
X40196108Y-64417450D02*
X41916329Y-64417450D01*
X64293268Y-64553779D02*
X64702638Y-64144409D01*
X41916329Y-64417450D02*
X42052658Y-64553779D01*
X39650003Y-64963555D02*
X40196108Y-64417450D01*
X40649992Y-64963560D02*
X68506658Y-64963560D01*
X68506658Y-64963560D02*
X69197829Y-64272389D01*
X69197829Y-64272389D02*
X69515328Y-63954890D01*
X63916473Y-61166473D02*
X41508708Y-61166473D01*
X65050000Y-62300000D02*
X63916473Y-61166473D01*
X41508708Y-61166473D02*
X41007421Y-61667760D01*
X38559561Y-60509407D02*
X38242062Y-60191908D01*
X40575555Y-60860329D02*
X38910483Y-60860329D01*
X38910483Y-60860329D02*
X38559561Y-60509407D01*
X69600000Y-62300000D02*
X69282501Y-61982501D01*
X69282501Y-61982501D02*
X66945242Y-61982501D01*
X66945242Y-61982501D02*
X65519592Y-60556851D01*
X40879033Y-60556851D02*
X40575555Y-60860329D01*
X65519592Y-60556851D02*
X40879033Y-60556851D01*
X39669073Y-60555518D02*
X39150002Y-60036447D01*
X65645848Y-60252040D02*
X40752777Y-60252040D01*
X66723808Y-61330000D02*
X65645848Y-60252040D01*
X70130000Y-61330000D02*
X66723808Y-61330000D01*
X40449299Y-60555518D02*
X39669073Y-60555518D01*
X40752777Y-60252040D02*
X40449299Y-60555518D01*
X66591061Y-60766187D02*
X70870000Y-60766187D01*
X70870000Y-60766187D02*
X73346187Y-60766187D01*
X73346187Y-60766187D02*
X73750000Y-61170000D01*
X40123758Y-60009416D02*
X40185945Y-59947229D01*
X40185945Y-59947229D02*
X65772103Y-59947229D01*
X65772103Y-59947229D02*
X66591061Y-60766187D01*
D24*
X31730000Y-54365000D02*
X31730000Y-52981462D01*
X31730000Y-52981462D02*
X31656802Y-52908264D01*
D21*
X37796902Y-25144842D02*
X37150309Y-24498249D01*
X37338000Y-45212000D02*
X37796902Y-44753098D01*
X36068000Y-45212000D02*
X37338000Y-45212000D01*
X37796902Y-44753098D02*
X37796902Y-25144842D01*
D25*
X31730000Y-55635000D02*
X31730000Y-56013435D01*
X32257999Y-46152493D02*
X32921479Y-46815973D01*
X32257999Y-41744909D02*
X32257999Y-46152493D01*
X33528000Y-40474908D02*
X32257999Y-41744909D01*
X33528000Y-40132000D02*
X33528000Y-40474908D01*
X31658628Y-43130000D02*
X31658628Y-44150509D01*
X31850000Y-41650000D02*
X31850000Y-42938628D01*
X31850000Y-42938628D02*
X31658628Y-43130000D01*
X32200000Y-41300000D02*
X31850000Y-41650000D01*
X32200000Y-38920000D02*
X32200000Y-41300000D01*
X33528000Y-37592000D02*
X32200000Y-38920000D01*
X33528000Y-37592000D02*
X33528000Y-35052000D01*
X29964738Y-50251290D02*
X29918694Y-50297334D01*
X32119608Y-50251290D02*
X29964738Y-50251290D01*
X29769846Y-49357196D02*
X29693719Y-49281069D01*
X32164313Y-49357196D02*
X29769846Y-49357196D01*
X28800000Y-35040000D02*
X28952400Y-35040000D01*
X36700000Y-52100000D02*
X36700000Y-56123435D01*
X35205975Y-56949410D02*
X34270000Y-56013435D01*
X36700000Y-56123435D02*
X35874025Y-56949410D01*
X35874025Y-56949410D02*
X35205975Y-56949410D01*
X34270000Y-56013435D02*
X34270000Y-55635000D01*
D22*
X32100000Y-24800000D02*
X32100000Y-23400000D01*
X35400000Y-24800000D02*
X32100000Y-24800000D01*
X32100000Y-23400000D02*
X31200000Y-22500000D01*
D23*
X47500000Y-51300000D02*
X48100000Y-50700000D01*
X48100000Y-50700000D02*
X49000000Y-50700000D01*
X49000000Y-50700000D02*
X53100000Y-46600000D01*
X47500000Y-52200000D02*
X54200000Y-45500000D01*
D22*
X44150808Y-44589535D02*
X44150808Y-42059192D01*
X44150808Y-42059192D02*
X44980000Y-41230000D01*
X63485796Y-28489054D02*
X65400000Y-30403258D01*
X44980000Y-41230000D02*
X44980000Y-40344719D01*
X44980000Y-40344719D02*
X56835665Y-28489054D01*
X56835665Y-28489054D02*
X63485796Y-28489054D01*
X65400000Y-30403258D02*
X65400000Y-32103949D01*
X64501974Y-29936298D02*
X63359541Y-28793865D01*
X45284811Y-41586255D02*
X44764809Y-42106257D01*
X57114690Y-28793865D02*
X45284811Y-40623744D01*
X44190000Y-46890000D02*
X45300000Y-48000000D01*
X44764809Y-44783764D02*
X44190000Y-45358573D01*
X63359541Y-28793865D02*
X57114690Y-28793865D01*
X64501974Y-31205924D02*
X64501974Y-29936298D01*
X44764809Y-42106257D02*
X44764809Y-44783764D01*
X44190000Y-45358573D02*
X44190000Y-46890000D01*
X45284811Y-40623744D02*
X45284811Y-41586255D01*
X57350750Y-29098676D02*
X62394727Y-29098676D01*
X62394727Y-29098676D02*
X63603949Y-30307898D01*
X45589622Y-40859804D02*
X57350750Y-29098676D01*
X45069620Y-42232513D02*
X45589622Y-41712511D01*
X45589622Y-41712511D02*
X45589622Y-40859804D01*
X44748855Y-45587510D02*
X45069620Y-45266745D01*
X45069620Y-45266745D02*
X45069620Y-42232513D01*
X64501974Y-33001975D02*
X62681975Y-33001975D01*
X59649609Y-29969609D02*
X62681975Y-33001975D01*
X58144511Y-29969609D02*
X59649609Y-29969609D01*
X63603949Y-32103949D02*
X62302347Y-32103949D01*
X62302347Y-32103949D02*
X61196124Y-30997726D01*
X61196124Y-30997726D02*
X61196124Y-30743806D01*
X45894433Y-40986060D02*
X57477006Y-29403487D01*
X57477006Y-29403487D02*
X60903486Y-29403487D01*
X60903486Y-29403487D02*
X62705923Y-31205924D01*
X45894433Y-41838767D02*
X45894433Y-40986060D01*
X45020730Y-46478133D02*
X45374430Y-46124433D01*
X45374430Y-46124433D02*
X45374430Y-42358770D01*
X45374430Y-42358770D02*
X45894433Y-41838767D01*
X46825000Y-33975000D02*
X46825000Y-32759941D01*
X46825000Y-32759941D02*
X49670428Y-29914513D01*
X49670428Y-29914513D02*
X49670428Y-26679572D01*
X49670428Y-26679572D02*
X50750000Y-25600000D01*
X50750000Y-25600000D02*
X50750000Y-21500000D01*
X44000000Y-28250000D02*
X44000000Y-32750000D01*
X44000000Y-32750000D02*
X45150000Y-33900000D01*
D26*
X61662741Y-34602228D02*
X61242228Y-34602228D01*
X62582231Y-35521718D02*
X61662741Y-34602228D01*
X62582231Y-37417769D02*
X62582231Y-35521718D01*
D21*
X65400000Y-33900000D02*
X62582231Y-36717769D01*
X62582231Y-36717769D02*
X62582231Y-37417769D01*
D26*
X62582231Y-37417769D02*
X62087769Y-37417769D01*
X62087769Y-37417769D02*
X60250000Y-35580000D01*
X62582231Y-37417769D02*
X64907769Y-37417769D01*
X64907769Y-37417769D02*
X65350000Y-37860000D01*
X62582231Y-37417769D02*
X63857769Y-37417769D01*
X63857769Y-37417769D02*
X65360000Y-38920000D01*
X62582231Y-37417769D02*
X62637769Y-37417769D01*
X62637769Y-37417769D02*
X64770000Y-39550000D01*
X62582231Y-37417769D02*
X63932231Y-37417769D01*
X63932231Y-37417769D02*
X64470000Y-36880000D01*
X45750000Y-49200000D02*
X45750000Y-50600000D01*
X45750000Y-50600000D02*
X45750000Y-51018411D01*
X46100000Y-50300000D02*
X45782501Y-50617499D01*
X45767499Y-50617499D02*
X45750000Y-50600000D01*
X45782501Y-50617499D02*
X45767499Y-50617499D01*
X45750000Y-51018411D02*
X46417769Y-51686180D01*
D22*
X46417769Y-55478282D02*
X47168940Y-56229453D01*
X47168940Y-56229453D02*
X47488268Y-56229453D01*
X46417769Y-53582231D02*
X46417769Y-55478282D01*
D26*
X46417769Y-53582231D02*
X46417769Y-51686180D01*
D25*
X36068000Y-42672000D02*
X37338001Y-41401999D01*
X37338001Y-28938001D02*
X37200000Y-28800000D01*
X37338001Y-41401999D02*
X37338001Y-28938001D01*
G36*
X76620200Y-65398400D02*
X44501600Y-65398400D01*
X44501600Y-65344560D01*
X68506658Y-65344560D01*
X68652461Y-65315558D01*
X68776066Y-65232968D01*
X69431915Y-64577118D01*
X69638568Y-64577298D01*
X69867372Y-64482758D01*
X70042581Y-64307855D01*
X70137520Y-64079216D01*
X70137736Y-63831650D01*
X70043196Y-63602846D01*
X69868293Y-63427637D01*
X69639654Y-63332698D01*
X69392088Y-63332482D01*
X69163284Y-63427022D01*
X68988075Y-63601925D01*
X68893136Y-63830564D01*
X68892955Y-64038448D01*
X68348842Y-64582560D01*
X64803302Y-64582560D01*
X64936724Y-64449138D01*
X65143377Y-64449318D01*
X65372181Y-64354778D01*
X65547390Y-64179875D01*
X65642329Y-63951236D01*
X65642545Y-63703670D01*
X65548005Y-63474866D01*
X65373102Y-63299657D01*
X65144463Y-63204718D01*
X64896897Y-63204502D01*
X64668093Y-63299042D01*
X64492884Y-63473945D01*
X64397945Y-63702584D01*
X64397764Y-63910468D01*
X64135452Y-64172779D01*
X51897404Y-64172779D01*
X51917253Y-64152965D01*
X52012192Y-63924326D01*
X52012408Y-63676760D01*
X51935625Y-63490932D01*
X51993026Y-63467214D01*
X52168235Y-63292311D01*
X52263174Y-63063672D01*
X52263390Y-62816106D01*
X52168850Y-62587302D01*
X51993947Y-62412093D01*
X51765308Y-62317154D01*
X51517742Y-62316938D01*
X51288938Y-62411478D01*
X51113729Y-62586381D01*
X51018790Y-62815020D01*
X51018737Y-62875845D01*
X48236002Y-62875845D01*
X48187892Y-62827735D01*
X48064287Y-62745145D01*
X47918484Y-62716143D01*
X47105771Y-62716143D01*
X47105766Y-62716142D01*
X46959964Y-62745145D01*
X46836358Y-62827735D01*
X46405747Y-63258346D01*
X45324080Y-63258346D01*
X45829358Y-62753067D01*
X45925580Y-62849458D01*
X46154219Y-62944397D01*
X46401785Y-62944613D01*
X46630589Y-62850073D01*
X46805798Y-62675170D01*
X46900737Y-62446531D01*
X46900953Y-62198965D01*
X46883653Y-62157095D01*
X55378665Y-62157095D01*
X55508323Y-62286753D01*
X55508143Y-62493405D01*
X55602683Y-62722209D01*
X55777586Y-62897418D01*
X56006225Y-62992357D01*
X56253791Y-62992573D01*
X56482595Y-62898033D01*
X56657804Y-62723130D01*
X56752743Y-62494491D01*
X56752959Y-62246925D01*
X56658419Y-62018121D01*
X56492872Y-61852284D01*
X59563468Y-61852284D01*
X59927772Y-62216588D01*
X59927592Y-62423240D01*
X60022132Y-62652044D01*
X60197035Y-62827253D01*
X60425674Y-62922192D01*
X60673240Y-62922408D01*
X60902044Y-62827868D01*
X61077253Y-62652965D01*
X61172192Y-62424326D01*
X61172408Y-62176760D01*
X61077868Y-61947956D01*
X60902965Y-61772747D01*
X60674326Y-61677808D01*
X60466442Y-61677627D01*
X60336289Y-61547473D01*
X63758657Y-61547473D01*
X64427772Y-62216588D01*
X64427592Y-62423240D01*
X64522132Y-62652044D01*
X64697035Y-62827253D01*
X64925674Y-62922192D01*
X65173240Y-62922408D01*
X65402044Y-62827868D01*
X65577253Y-62652965D01*
X65672192Y-62424326D01*
X65672408Y-62176760D01*
X65604481Y-62012365D01*
X65653240Y-62012408D01*
X65882044Y-61917868D01*
X66057253Y-61742965D01*
X66089421Y-61665495D01*
X66675832Y-62251906D01*
X66675834Y-62251909D01*
X66745363Y-62298366D01*
X66799440Y-62334499D01*
X66945242Y-62363502D01*
X66945247Y-62363501D01*
X68977644Y-62363501D01*
X68977592Y-62423240D01*
X69072132Y-62652044D01*
X69247035Y-62827253D01*
X69475674Y-62922192D01*
X69723240Y-62922408D01*
X69952044Y-62827868D01*
X70127253Y-62652965D01*
X70222192Y-62424326D01*
X70222408Y-62176760D01*
X70129663Y-61952300D01*
X70253240Y-61952408D01*
X70482044Y-61857868D01*
X70657253Y-61682965D01*
X70752192Y-61454326D01*
X70752408Y-61206760D01*
X70727793Y-61147187D01*
X73127719Y-61147187D01*
X73127592Y-61293240D01*
X73222132Y-61522044D01*
X73397035Y-61697253D01*
X73625674Y-61792192D01*
X73873240Y-61792408D01*
X74102044Y-61697868D01*
X74277253Y-61522965D01*
X74372192Y-61294326D01*
X74372408Y-61046760D01*
X74277868Y-60817956D01*
X74102965Y-60642747D01*
X73874326Y-60547808D01*
X73666443Y-60547627D01*
X73615595Y-60496779D01*
X73491990Y-60414189D01*
X73346187Y-60385187D01*
X66748876Y-60385187D01*
X66041511Y-59677821D01*
X65927438Y-59601600D01*
X76620200Y-59601600D01*
X76620200Y-65398400D01*
X76620200Y-65398400D01*
G37*
X76620200Y-65398400D02*
X44501600Y-65398400D01*
X44501600Y-65344560D01*
X68506658Y-65344560D01*
X68652461Y-65315558D01*
X68776066Y-65232968D01*
X69431915Y-64577118D01*
X69638568Y-64577298D01*
X69867372Y-64482758D01*
X70042581Y-64307855D01*
X70137520Y-64079216D01*
X70137736Y-63831650D01*
X70043196Y-63602846D01*
X69868293Y-63427637D01*
X69639654Y-63332698D01*
X69392088Y-63332482D01*
X69163284Y-63427022D01*
X68988075Y-63601925D01*
X68893136Y-63830564D01*
X68892955Y-64038448D01*
X68348842Y-64582560D01*
X64803302Y-64582560D01*
X64936724Y-64449138D01*
X65143377Y-64449318D01*
X65372181Y-64354778D01*
X65547390Y-64179875D01*
X65642329Y-63951236D01*
X65642545Y-63703670D01*
X65548005Y-63474866D01*
X65373102Y-63299657D01*
X65144463Y-63204718D01*
X64896897Y-63204502D01*
X64668093Y-63299042D01*
X64492884Y-63473945D01*
X64397945Y-63702584D01*
X64397764Y-63910468D01*
X64135452Y-64172779D01*
X51897404Y-64172779D01*
X51917253Y-64152965D01*
X52012192Y-63924326D01*
X52012408Y-63676760D01*
X51935625Y-63490932D01*
X51993026Y-63467214D01*
X52168235Y-63292311D01*
X52263174Y-63063672D01*
X52263390Y-62816106D01*
X52168850Y-62587302D01*
X51993947Y-62412093D01*
X51765308Y-62317154D01*
X51517742Y-62316938D01*
X51288938Y-62411478D01*
X51113729Y-62586381D01*
X51018790Y-62815020D01*
X51018737Y-62875845D01*
X48236002Y-62875845D01*
X48187892Y-62827735D01*
X48064287Y-62745145D01*
X47918484Y-62716143D01*
X47105771Y-62716143D01*
X47105766Y-62716142D01*
X46959964Y-62745145D01*
X46836358Y-62827735D01*
X46405747Y-63258346D01*
X45324080Y-63258346D01*
X45829358Y-62753067D01*
X45925580Y-62849458D01*
X46154219Y-62944397D01*
X46401785Y-62944613D01*
X46630589Y-62850073D01*
X46805798Y-62675170D01*
X46900737Y-62446531D01*
X46900953Y-62198965D01*
X46883653Y-62157095D01*
X55378665Y-62157095D01*
X55508323Y-62286753D01*
X55508143Y-62493405D01*
X55602683Y-62722209D01*
X55777586Y-62897418D01*
X56006225Y-62992357D01*
X56253791Y-62992573D01*
X56482595Y-62898033D01*
X56657804Y-62723130D01*
X56752743Y-62494491D01*
X56752959Y-62246925D01*
X56658419Y-62018121D01*
X56492872Y-61852284D01*
X59563468Y-61852284D01*
X59927772Y-62216588D01*
X59927592Y-62423240D01*
X60022132Y-62652044D01*
X60197035Y-62827253D01*
X60425674Y-62922192D01*
X60673240Y-62922408D01*
X60902044Y-62827868D01*
X61077253Y-62652965D01*
X61172192Y-62424326D01*
X61172408Y-62176760D01*
X61077868Y-61947956D01*
X60902965Y-61772747D01*
X60674326Y-61677808D01*
X60466442Y-61677627D01*
X60336289Y-61547473D01*
X63758657Y-61547473D01*
X64427772Y-62216588D01*
X64427592Y-62423240D01*
X64522132Y-62652044D01*
X64697035Y-62827253D01*
X64925674Y-62922192D01*
X65173240Y-62922408D01*
X65402044Y-62827868D01*
X65577253Y-62652965D01*
X65672192Y-62424326D01*
X65672408Y-62176760D01*
X65604481Y-62012365D01*
X65653240Y-62012408D01*
X65882044Y-61917868D01*
X66057253Y-61742965D01*
X66089421Y-61665495D01*
X66675832Y-62251906D01*
X66675834Y-62251909D01*
X66745363Y-62298366D01*
X66799440Y-62334499D01*
X66945242Y-62363502D01*
X66945247Y-62363501D01*
X68977644Y-62363501D01*
X68977592Y-62423240D01*
X69072132Y-62652044D01*
X69247035Y-62827253D01*
X69475674Y-62922192D01*
X69723240Y-62922408D01*
X69952044Y-62827868D01*
X70127253Y-62652965D01*
X70222192Y-62424326D01*
X70222408Y-62176760D01*
X70129663Y-61952300D01*
X70253240Y-61952408D01*
X70482044Y-61857868D01*
X70657253Y-61682965D01*
X70752192Y-61454326D01*
X70752408Y-61206760D01*
X70727793Y-61147187D01*
X73127719Y-61147187D01*
X73127592Y-61293240D01*
X73222132Y-61522044D01*
X73397035Y-61697253D01*
X73625674Y-61792192D01*
X73873240Y-61792408D01*
X74102044Y-61697868D01*
X74277253Y-61522965D01*
X74372192Y-61294326D01*
X74372408Y-61046760D01*
X74277868Y-60817956D01*
X74102965Y-60642747D01*
X73874326Y-60547808D01*
X73666443Y-60547627D01*
X73615595Y-60496779D01*
X73491990Y-60414189D01*
X73346187Y-60385187D01*
X66748876Y-60385187D01*
X66041511Y-59677821D01*
X65927438Y-59601600D01*
X76620200Y-59601600D01*
X76620200Y-65398400D01*
G36*
X37890018Y-59664040D02*
X37783007Y-59770864D01*
X37584287Y-59688349D01*
X37336721Y-59688133D01*
X37107917Y-59782673D01*
X36932708Y-59957576D01*
X36837769Y-60186215D01*
X36837553Y-60433781D01*
X36918557Y-60629826D01*
X36842911Y-60554180D01*
X36719306Y-60471590D01*
X36573503Y-60442588D01*
X34641412Y-60442588D01*
X34495609Y-60471590D01*
X34383002Y-60546832D01*
X34323379Y-60402534D01*
X34148476Y-60227325D01*
X33919837Y-60132386D01*
X33672271Y-60132170D01*
X33443467Y-60226710D01*
X33268258Y-60401613D01*
X33257580Y-60427329D01*
X33171014Y-60485170D01*
X32571141Y-61085043D01*
X32492385Y-61052341D01*
X32169033Y-61052059D01*
X31972254Y-61133367D01*
X31972408Y-60956858D01*
X31877868Y-60728054D01*
X31702965Y-60552845D01*
X31474326Y-60457906D01*
X31226760Y-60457690D01*
X30997956Y-60552230D01*
X30822747Y-60727133D01*
X30727808Y-60955772D01*
X30727592Y-61203338D01*
X30822132Y-61432142D01*
X30969000Y-61579267D01*
X30969000Y-62155000D01*
X30998002Y-62300803D01*
X31012002Y-62321756D01*
X30905333Y-62320837D01*
X30605540Y-62442000D01*
X30593666Y-62449934D01*
X30546149Y-62585228D01*
X31060000Y-63099079D01*
X31074143Y-63084937D01*
X31110064Y-63120858D01*
X31095921Y-63135000D01*
X31609772Y-63648851D01*
X31672493Y-63626822D01*
X31868984Y-63823657D01*
X32167615Y-63947659D01*
X32490967Y-63947941D01*
X32789813Y-63824460D01*
X32965105Y-63649474D01*
X33138984Y-63823657D01*
X33437615Y-63947659D01*
X33760967Y-63947941D01*
X33841040Y-63914856D01*
X34381487Y-64455303D01*
X34505092Y-64537893D01*
X34650895Y-64566895D01*
X35909303Y-64566895D01*
X36557843Y-65215435D01*
X36681448Y-65298025D01*
X36827251Y-65327027D01*
X37839968Y-65327027D01*
X37902766Y-65389935D01*
X37923152Y-65398400D01*
X27379800Y-65398400D01*
X27379800Y-63901600D01*
X27729200Y-63901600D01*
X27729200Y-64876629D01*
X27775603Y-64988656D01*
X27861345Y-65074397D01*
X27973372Y-65120800D01*
X28948400Y-65120800D01*
X29024600Y-65044600D01*
X29024600Y-63825400D01*
X29075400Y-63825400D01*
X29075400Y-65044600D01*
X29151600Y-65120800D01*
X30126628Y-65120800D01*
X30238655Y-65074397D01*
X30324397Y-64988656D01*
X30370800Y-64876629D01*
X30370800Y-63901600D01*
X30294600Y-63825400D01*
X29075400Y-63825400D01*
X29024600Y-63825400D01*
X27805400Y-63825400D01*
X27729200Y-63901600D01*
X27379800Y-63901600D01*
X27379800Y-61260000D01*
X27703324Y-61260000D01*
X27803864Y-61765448D01*
X28090177Y-62193947D01*
X28517090Y-62479200D01*
X27973372Y-62479200D01*
X27861345Y-62525603D01*
X27775603Y-62611344D01*
X27729200Y-62723371D01*
X27729200Y-63698400D01*
X27805400Y-63774600D01*
X29024600Y-63774600D01*
X29024600Y-63754600D01*
X29075400Y-63754600D01*
X29075400Y-63774600D01*
X30294600Y-63774600D01*
X30370800Y-63698400D01*
X30370800Y-63684772D01*
X30546149Y-63684772D01*
X30593666Y-63820066D01*
X30891327Y-63946377D01*
X31214667Y-63949163D01*
X31514460Y-63828000D01*
X31526334Y-63820066D01*
X31573851Y-63684772D01*
X31060000Y-63170921D01*
X30546149Y-63684772D01*
X30370800Y-63684772D01*
X30370800Y-63595147D01*
X30374934Y-63601334D01*
X30510228Y-63648851D01*
X31024079Y-63135000D01*
X30510228Y-62621149D01*
X30374934Y-62668666D01*
X30361375Y-62700618D01*
X30324397Y-62611344D01*
X30238655Y-62525603D01*
X30126628Y-62479200D01*
X29582910Y-62479200D01*
X30009823Y-62193947D01*
X30296136Y-61765448D01*
X30396676Y-61260000D01*
X30296136Y-60754552D01*
X30009823Y-60326053D01*
X29581324Y-60039740D01*
X29075876Y-59939200D01*
X29024124Y-59939200D01*
X28518676Y-60039740D01*
X28090177Y-60326053D01*
X27803864Y-60754552D01*
X27703324Y-61260000D01*
X27379800Y-61260000D01*
X27379800Y-59601600D01*
X38041134Y-59601600D01*
X37890018Y-59664040D01*
X37890018Y-59664040D01*
G37*
X37890018Y-59664040D02*
X37783007Y-59770864D01*
X37584287Y-59688349D01*
X37336721Y-59688133D01*
X37107917Y-59782673D01*
X36932708Y-59957576D01*
X36837769Y-60186215D01*
X36837553Y-60433781D01*
X36918557Y-60629826D01*
X36842911Y-60554180D01*
X36719306Y-60471590D01*
X36573503Y-60442588D01*
X34641412Y-60442588D01*
X34495609Y-60471590D01*
X34383002Y-60546832D01*
X34323379Y-60402534D01*
X34148476Y-60227325D01*
X33919837Y-60132386D01*
X33672271Y-60132170D01*
X33443467Y-60226710D01*
X33268258Y-60401613D01*
X33257580Y-60427329D01*
X33171014Y-60485170D01*
X32571141Y-61085043D01*
X32492385Y-61052341D01*
X32169033Y-61052059D01*
X31972254Y-61133367D01*
X31972408Y-60956858D01*
X31877868Y-60728054D01*
X31702965Y-60552845D01*
X31474326Y-60457906D01*
X31226760Y-60457690D01*
X30997956Y-60552230D01*
X30822747Y-60727133D01*
X30727808Y-60955772D01*
X30727592Y-61203338D01*
X30822132Y-61432142D01*
X30969000Y-61579267D01*
X30969000Y-62155000D01*
X30998002Y-62300803D01*
X31012002Y-62321756D01*
X30905333Y-62320837D01*
X30605540Y-62442000D01*
X30593666Y-62449934D01*
X30546149Y-62585228D01*
X31060000Y-63099079D01*
X31074143Y-63084937D01*
X31110064Y-63120858D01*
X31095921Y-63135000D01*
X31609772Y-63648851D01*
X31672493Y-63626822D01*
X31868984Y-63823657D01*
X32167615Y-63947659D01*
X32490967Y-63947941D01*
X32789813Y-63824460D01*
X32965105Y-63649474D01*
X33138984Y-63823657D01*
X33437615Y-63947659D01*
X33760967Y-63947941D01*
X33841040Y-63914856D01*
X34381487Y-64455303D01*
X34505092Y-64537893D01*
X34650895Y-64566895D01*
X35909303Y-64566895D01*
X36557843Y-65215435D01*
X36681448Y-65298025D01*
X36827251Y-65327027D01*
X37839968Y-65327027D01*
X37902766Y-65389935D01*
X37923152Y-65398400D01*
X27379800Y-65398400D01*
X27379800Y-63901600D01*
X27729200Y-63901600D01*
X27729200Y-64876629D01*
X27775603Y-64988656D01*
X27861345Y-65074397D01*
X27973372Y-65120800D01*
X28948400Y-65120800D01*
X29024600Y-65044600D01*
X29024600Y-63825400D01*
X29075400Y-63825400D01*
X29075400Y-65044600D01*
X29151600Y-65120800D01*
X30126628Y-65120800D01*
X30238655Y-65074397D01*
X30324397Y-64988656D01*
X30370800Y-64876629D01*
X30370800Y-63901600D01*
X30294600Y-63825400D01*
X29075400Y-63825400D01*
X29024600Y-63825400D01*
X27805400Y-63825400D01*
X27729200Y-63901600D01*
X27379800Y-63901600D01*
X27379800Y-61260000D01*
X27703324Y-61260000D01*
X27803864Y-61765448D01*
X28090177Y-62193947D01*
X28517090Y-62479200D01*
X27973372Y-62479200D01*
X27861345Y-62525603D01*
X27775603Y-62611344D01*
X27729200Y-62723371D01*
X27729200Y-63698400D01*
X27805400Y-63774600D01*
X29024600Y-63774600D01*
X29024600Y-63754600D01*
X29075400Y-63754600D01*
X29075400Y-63774600D01*
X30294600Y-63774600D01*
X30370800Y-63698400D01*
X30370800Y-63684772D01*
X30546149Y-63684772D01*
X30593666Y-63820066D01*
X30891327Y-63946377D01*
X31214667Y-63949163D01*
X31514460Y-63828000D01*
X31526334Y-63820066D01*
X31573851Y-63684772D01*
X31060000Y-63170921D01*
X30546149Y-63684772D01*
X30370800Y-63684772D01*
X30370800Y-63595147D01*
X30374934Y-63601334D01*
X30510228Y-63648851D01*
X31024079Y-63135000D01*
X30510228Y-62621149D01*
X30374934Y-62668666D01*
X30361375Y-62700618D01*
X30324397Y-62611344D01*
X30238655Y-62525603D01*
X30126628Y-62479200D01*
X29582910Y-62479200D01*
X30009823Y-62193947D01*
X30296136Y-61765448D01*
X30396676Y-61260000D01*
X30296136Y-60754552D01*
X30009823Y-60326053D01*
X29581324Y-60039740D01*
X29075876Y-59939200D01*
X29024124Y-59939200D01*
X28518676Y-60039740D01*
X28090177Y-60326053D01*
X27803864Y-60754552D01*
X27703324Y-61260000D01*
X27379800Y-61260000D01*
X27379800Y-59601600D01*
X38041134Y-59601600D01*
X37890018Y-59664040D01*
G36*
X43898400Y-62893922D02*
X43482060Y-62893922D01*
X43411975Y-62823837D01*
X43288370Y-62741247D01*
X43204893Y-62724642D01*
X43120084Y-62639685D01*
X43466818Y-62639685D01*
X43612621Y-62610683D01*
X43736226Y-62528093D01*
X43898400Y-62365919D01*
X43898400Y-62893922D01*
X43898400Y-62893922D01*
G37*
X43898400Y-62893922D02*
X43482060Y-62893922D01*
X43411975Y-62823837D01*
X43288370Y-62741247D01*
X43204893Y-62724642D01*
X43120084Y-62639685D01*
X43466818Y-62639685D01*
X43612621Y-62610683D01*
X43736226Y-62528093D01*
X43898400Y-62365919D01*
X43898400Y-62893922D01*
G36*
X37335635Y-60932733D02*
X37543519Y-60932914D01*
X38045150Y-61434545D01*
X38045152Y-61434548D01*
X38168758Y-61517138D01*
X38314560Y-61546140D01*
X39537451Y-61546140D01*
X39506041Y-61621784D01*
X39505825Y-61869350D01*
X39600365Y-62098154D01*
X39775268Y-62273363D01*
X40003907Y-62368302D01*
X40211791Y-62368483D01*
X40326583Y-62483275D01*
X40326585Y-62483278D01*
X40403558Y-62534709D01*
X40450191Y-62565868D01*
X40595993Y-62594871D01*
X40595998Y-62594870D01*
X42255908Y-62594870D01*
X42325916Y-62580945D01*
X42166302Y-62740280D01*
X42145069Y-62791414D01*
X42104670Y-62751015D01*
X41981065Y-62668425D01*
X41835262Y-62639423D01*
X39793329Y-62639423D01*
X39793324Y-62639422D01*
X39718317Y-62654342D01*
X39718430Y-62524837D01*
X39623890Y-62296033D01*
X39448987Y-62120824D01*
X39220348Y-62025885D01*
X38972782Y-62025669D01*
X38743978Y-62120209D01*
X38596853Y-62267077D01*
X38555808Y-62267077D01*
X37140392Y-60851661D01*
X37335635Y-60932733D01*
X37335635Y-60932733D01*
G37*
X37335635Y-60932733D02*
X37543519Y-60932914D01*
X38045150Y-61434545D01*
X38045152Y-61434548D01*
X38168758Y-61517138D01*
X38314560Y-61546140D01*
X39537451Y-61546140D01*
X39506041Y-61621784D01*
X39505825Y-61869350D01*
X39600365Y-62098154D01*
X39775268Y-62273363D01*
X40003907Y-62368302D01*
X40211791Y-62368483D01*
X40326583Y-62483275D01*
X40326585Y-62483278D01*
X40403558Y-62534709D01*
X40450191Y-62565868D01*
X40595993Y-62594871D01*
X40595998Y-62594870D01*
X42255908Y-62594870D01*
X42325916Y-62580945D01*
X42166302Y-62740280D01*
X42145069Y-62791414D01*
X42104670Y-62751015D01*
X41981065Y-62668425D01*
X41835262Y-62639423D01*
X39793329Y-62639423D01*
X39793324Y-62639422D01*
X39718317Y-62654342D01*
X39718430Y-62524837D01*
X39623890Y-62296033D01*
X39448987Y-62120824D01*
X39220348Y-62025885D01*
X38972782Y-62025669D01*
X38743978Y-62120209D01*
X38596853Y-62267077D01*
X38555808Y-62267077D01*
X37140392Y-60851661D01*
X37335635Y-60932733D01*
G36*
X37386192Y-16567650D02*
X37713590Y-16786410D01*
X37932350Y-17113808D01*
X38018600Y-17547414D01*
X38018600Y-24612199D01*
X37874236Y-24467834D01*
X37874334Y-24354888D01*
X37764359Y-24088728D01*
X37560901Y-23884914D01*
X37294933Y-23774475D01*
X37006948Y-23774224D01*
X36740788Y-23884199D01*
X36536974Y-24087657D01*
X36426535Y-24353625D01*
X36426284Y-24641610D01*
X36536259Y-24907770D01*
X36739717Y-25111584D01*
X37005685Y-25222023D01*
X37119841Y-25222122D01*
X37263502Y-25365783D01*
X37263502Y-28076155D01*
X37056639Y-28075975D01*
X36790479Y-28185950D01*
X36586665Y-28389408D01*
X36476226Y-28655376D01*
X36475975Y-28943361D01*
X36585950Y-29209521D01*
X36789408Y-29413335D01*
X36830001Y-29430191D01*
X36830001Y-33621639D01*
X35052000Y-33621639D01*
X34893431Y-33653180D01*
X34759003Y-33743003D01*
X34669180Y-33877431D01*
X34637639Y-34036000D01*
X34637639Y-34173768D01*
X34533789Y-34018345D01*
X34072329Y-33710008D01*
X33528000Y-33601734D01*
X32983671Y-33710008D01*
X32522211Y-34018345D01*
X32213874Y-34479805D01*
X32105600Y-35024134D01*
X32105600Y-35079866D01*
X32213874Y-35624195D01*
X32522211Y-36085655D01*
X32875927Y-36322000D01*
X32522211Y-36558345D01*
X32213874Y-37019805D01*
X32105600Y-37564134D01*
X32105600Y-37619866D01*
X32213874Y-38164195D01*
X32223291Y-38178289D01*
X31840790Y-38560790D01*
X31730669Y-38725597D01*
X31692000Y-38920000D01*
X31692000Y-41089580D01*
X31490790Y-41290790D01*
X31380669Y-41455597D01*
X31342000Y-41650000D01*
X31342000Y-42728208D01*
X31299418Y-42770790D01*
X31189297Y-42935597D01*
X31150628Y-43130000D01*
X31150628Y-43634766D01*
X31045293Y-43739917D01*
X30934854Y-44005885D01*
X30934603Y-44293870D01*
X31044578Y-44560030D01*
X31248036Y-44763844D01*
X31514004Y-44874283D01*
X31749999Y-44874489D01*
X31749999Y-46152493D01*
X31788668Y-46346896D01*
X31898789Y-46511703D01*
X32197584Y-46810498D01*
X32197454Y-46959334D01*
X32307429Y-47225494D01*
X32510887Y-47429308D01*
X32776855Y-47539747D01*
X33064840Y-47539998D01*
X33331000Y-47430023D01*
X33534814Y-47226565D01*
X33645253Y-46960597D01*
X33645504Y-46672612D01*
X33632630Y-46641454D01*
X34072329Y-46553992D01*
X34533789Y-46245655D01*
X34637639Y-46090232D01*
X34637639Y-46228000D01*
X34669180Y-46386569D01*
X34759003Y-46520997D01*
X34893431Y-46610820D01*
X35052000Y-46642361D01*
X37084000Y-46642361D01*
X37242569Y-46610820D01*
X37376997Y-46520997D01*
X37466820Y-46386569D01*
X37498361Y-46228000D01*
X37498361Y-45713502D01*
X37542123Y-45704797D01*
X37715171Y-45589171D01*
X38058141Y-45246200D01*
X38065910Y-45285258D01*
X38065910Y-45285261D01*
X38097490Y-45361501D01*
X38137790Y-45458794D01*
X38137794Y-45458798D01*
X38246174Y-45620999D01*
X38246176Y-45621003D01*
X38378997Y-45753824D01*
X38379001Y-45753826D01*
X38398400Y-45766788D01*
X38398400Y-46233212D01*
X38379001Y-46246174D01*
X38378997Y-46246176D01*
X38246176Y-46378997D01*
X38246174Y-46379001D01*
X38137794Y-46541202D01*
X38137790Y-46541206D01*
X38100193Y-46631974D01*
X38065910Y-46714739D01*
X38065910Y-46714742D01*
X38027850Y-46906084D01*
X38027850Y-46953497D01*
X38018600Y-47000000D01*
X38018600Y-56452586D01*
X37932350Y-56886192D01*
X37713590Y-57213590D01*
X37386192Y-57432350D01*
X36952586Y-57518600D01*
X34000000Y-57518600D01*
X33953497Y-57527850D01*
X33906085Y-57527850D01*
X33714742Y-57565910D01*
X33714739Y-57565910D01*
X33625418Y-57602909D01*
X33541207Y-57637790D01*
X33541205Y-57637792D01*
X33379001Y-57746174D01*
X33378997Y-57746176D01*
X33246176Y-57878997D01*
X33246174Y-57879001D01*
X33233212Y-57898400D01*
X32766788Y-57898400D01*
X32753826Y-57879001D01*
X32753824Y-57878997D01*
X32621003Y-57746176D01*
X32620999Y-57746174D01*
X32458798Y-57637794D01*
X32458794Y-57637790D01*
X32352292Y-57593676D01*
X32285261Y-57565910D01*
X32285258Y-57565910D01*
X32093916Y-57527850D01*
X32046503Y-57527850D01*
X32000000Y-57518600D01*
X28547414Y-57518600D01*
X28113808Y-57432350D01*
X27786410Y-57213590D01*
X27567650Y-56886192D01*
X27481400Y-56452586D01*
X27481400Y-54415896D01*
X29489181Y-54415896D01*
X29582557Y-54783538D01*
X29740631Y-54995217D01*
X29574184Y-55244323D01*
X29501200Y-55611240D01*
X29501200Y-56166760D01*
X29574184Y-56533677D01*
X29782026Y-56844734D01*
X30093083Y-57052576D01*
X30460000Y-57125560D01*
X30826917Y-57052576D01*
X31095000Y-56873448D01*
X31363083Y-57052576D01*
X31730000Y-57125560D01*
X32096917Y-57052576D01*
X32365000Y-56873448D01*
X32633083Y-57052576D01*
X33000000Y-57125560D01*
X33366917Y-57052576D01*
X33635000Y-56873448D01*
X33903083Y-57052576D01*
X34270000Y-57125560D01*
X34598385Y-57060241D01*
X34846765Y-57308621D01*
X34984585Y-57400709D01*
X35011572Y-57418741D01*
X35205975Y-57457410D01*
X35874025Y-57457410D01*
X36068428Y-57418741D01*
X36233235Y-57308620D01*
X37059210Y-56482645D01*
X37169331Y-56317838D01*
X37208000Y-56123435D01*
X37208000Y-52615743D01*
X37313335Y-52510592D01*
X37423774Y-52244624D01*
X37424025Y-51956639D01*
X37314050Y-51690479D01*
X37110592Y-51486665D01*
X36844624Y-51376226D01*
X36556639Y-51375975D01*
X36290479Y-51485950D01*
X36086665Y-51689408D01*
X35976226Y-51955376D01*
X35975975Y-52243361D01*
X36085950Y-52509521D01*
X36192000Y-52615757D01*
X36192000Y-53137911D01*
X35906917Y-52947424D01*
X35540000Y-52874440D01*
X35173083Y-52947424D01*
X34905000Y-53126552D01*
X34636917Y-52947424D01*
X34270000Y-52874440D01*
X33903083Y-52947424D01*
X33635000Y-53126552D01*
X33366917Y-52947424D01*
X33000000Y-52874440D01*
X32633083Y-52947424D01*
X32365000Y-53126552D01*
X32353249Y-53118700D01*
X32380576Y-53052888D01*
X32380827Y-52764903D01*
X32270852Y-52498743D01*
X32067394Y-52294929D01*
X31801426Y-52184490D01*
X31513441Y-52184239D01*
X31247281Y-52294214D01*
X31043467Y-52497672D01*
X30933028Y-52763640D01*
X30932788Y-53039269D01*
X30758606Y-52945884D01*
X30612400Y-53013456D01*
X30612400Y-53958600D01*
X30632400Y-53958600D01*
X30632400Y-54263400D01*
X30612400Y-54263400D01*
X30612400Y-54283400D01*
X30307600Y-54283400D01*
X30307600Y-54263400D01*
X29594771Y-54263400D01*
X29489181Y-54415896D01*
X27481400Y-54415896D01*
X27481400Y-53806104D01*
X29489181Y-53806104D01*
X29594771Y-53958600D01*
X30307600Y-53958600D01*
X30307600Y-53013456D01*
X30161394Y-52945884D01*
X29809516Y-53134538D01*
X29582557Y-53438462D01*
X29489181Y-53806104D01*
X27481400Y-53806104D01*
X27481400Y-49424430D01*
X28969694Y-49424430D01*
X29079669Y-49690590D01*
X29283127Y-49894404D01*
X29299376Y-49901151D01*
X29194920Y-50152710D01*
X29194669Y-50440695D01*
X29304644Y-50706855D01*
X29508102Y-50910669D01*
X29774070Y-51021108D01*
X30062055Y-51021359D01*
X30328215Y-50911384D01*
X30480575Y-50759290D01*
X31603865Y-50759290D01*
X31709016Y-50864625D01*
X31974984Y-50975064D01*
X32262969Y-50975315D01*
X32529129Y-50865340D01*
X32732943Y-50661882D01*
X32843382Y-50395914D01*
X32843633Y-50107929D01*
X32733658Y-49841769D01*
X32718624Y-49826709D01*
X32777648Y-49767788D01*
X32888087Y-49501820D01*
X32888338Y-49213835D01*
X32778363Y-48947675D01*
X32574905Y-48743861D01*
X32308937Y-48633422D01*
X32020952Y-48633171D01*
X31754792Y-48743146D01*
X31648556Y-48849196D01*
X30285456Y-48849196D01*
X30104311Y-48667734D01*
X29838343Y-48557295D01*
X29550358Y-48557044D01*
X29284198Y-48667019D01*
X29080384Y-48870477D01*
X28969945Y-49136445D01*
X28969694Y-49424430D01*
X27481400Y-49424430D01*
X27481400Y-40658379D01*
X27721708Y-41018026D01*
X28133726Y-41293327D01*
X28619734Y-41390000D01*
X28980266Y-41390000D01*
X29466274Y-41293327D01*
X29878292Y-41018026D01*
X30153593Y-40606008D01*
X30250266Y-40120000D01*
X30153593Y-39633992D01*
X29878292Y-39221974D01*
X29466274Y-38946673D01*
X28980266Y-38850000D01*
X29466274Y-38753327D01*
X29878292Y-38478026D01*
X30153593Y-38066008D01*
X30250266Y-37580000D01*
X30153593Y-37093992D01*
X29878292Y-36681974D01*
X29466274Y-36406673D01*
X28980266Y-36310000D01*
X29466274Y-36213327D01*
X29878292Y-35938026D01*
X30153593Y-35526008D01*
X30250266Y-35040000D01*
X30153593Y-34553992D01*
X29878292Y-34141974D01*
X29466274Y-33866673D01*
X28980266Y-33770000D01*
X28619734Y-33770000D01*
X28133726Y-33866673D01*
X27721708Y-34141974D01*
X27481400Y-34501621D01*
X27481400Y-32961330D01*
X27620149Y-33246487D01*
X27984027Y-33582853D01*
X28448928Y-33754364D01*
X28647600Y-33668400D01*
X28647600Y-32652400D01*
X28952400Y-32652400D01*
X28952400Y-33668400D01*
X29151072Y-33754364D01*
X29615973Y-33582853D01*
X29979851Y-33246487D01*
X30173860Y-32847760D01*
X30110818Y-32652400D01*
X28952400Y-32652400D01*
X28647600Y-32652400D01*
X28627600Y-32652400D01*
X28627600Y-32347600D01*
X28647600Y-32347600D01*
X28647600Y-31331600D01*
X28952400Y-31331600D01*
X28952400Y-32347600D01*
X30110818Y-32347600D01*
X30173860Y-32152240D01*
X29979851Y-31753513D01*
X29615973Y-31417147D01*
X29151072Y-31245636D01*
X28952400Y-31331600D01*
X28647600Y-31331600D01*
X28448928Y-31245636D01*
X27984027Y-31417147D01*
X27620149Y-31753513D01*
X27481400Y-32038670D01*
X27481400Y-30498379D01*
X27721708Y-30858026D01*
X28133726Y-31133327D01*
X28619734Y-31230000D01*
X28980266Y-31230000D01*
X29466274Y-31133327D01*
X29878292Y-30858026D01*
X30153593Y-30446008D01*
X30250266Y-29960000D01*
X30153593Y-29473992D01*
X29878292Y-29061974D01*
X29466274Y-28786673D01*
X29020289Y-28697961D01*
X29816000Y-28697961D01*
X29974569Y-28666420D01*
X30108997Y-28576597D01*
X30198820Y-28442169D01*
X30230361Y-28283600D01*
X30230361Y-26556400D01*
X30198820Y-26397831D01*
X30108997Y-26263403D01*
X29974569Y-26173580D01*
X29816000Y-26142039D01*
X27784000Y-26142039D01*
X27625431Y-26173580D01*
X27491003Y-26263403D01*
X27481400Y-26277775D01*
X27481400Y-20592592D01*
X29862780Y-20592592D01*
X29862780Y-21027848D01*
X29918464Y-21307789D01*
X30077037Y-21545111D01*
X30314359Y-21703684D01*
X30594300Y-21759368D01*
X30874241Y-21703684D01*
X31111563Y-21545111D01*
X31270136Y-21307789D01*
X31325820Y-21027848D01*
X31325820Y-20592592D01*
X34714180Y-20592592D01*
X34714180Y-21027848D01*
X34769864Y-21307789D01*
X34928437Y-21545111D01*
X35165759Y-21703684D01*
X35445700Y-21759368D01*
X35725641Y-21703684D01*
X35962963Y-21545111D01*
X36121536Y-21307789D01*
X36177220Y-21027848D01*
X36177220Y-20592592D01*
X36121536Y-20312651D01*
X35962963Y-20075329D01*
X35725641Y-19916756D01*
X35445700Y-19861072D01*
X35165759Y-19916756D01*
X34928437Y-20075329D01*
X34769864Y-20312651D01*
X34714180Y-20592592D01*
X31325820Y-20592592D01*
X31270136Y-20312651D01*
X31111563Y-20075329D01*
X30874241Y-19916756D01*
X30594300Y-19861072D01*
X30314359Y-19916756D01*
X30077037Y-20075329D01*
X29918464Y-20312651D01*
X29862780Y-20592592D01*
X27481400Y-20592592D01*
X27481400Y-17547414D01*
X27488568Y-17511374D01*
X29537660Y-17511374D01*
X29537660Y-18048626D01*
X29595277Y-18338287D01*
X29759357Y-18583849D01*
X30004919Y-18747929D01*
X30294580Y-18805546D01*
X30584241Y-18747929D01*
X30829803Y-18583849D01*
X30993883Y-18338287D01*
X31051500Y-18048626D01*
X31051500Y-17511374D01*
X34988500Y-17511374D01*
X34988500Y-18048626D01*
X35046117Y-18338287D01*
X35210197Y-18583849D01*
X35455759Y-18747929D01*
X35745420Y-18805546D01*
X36035081Y-18747929D01*
X36280643Y-18583849D01*
X36444723Y-18338287D01*
X36502340Y-18048626D01*
X36502340Y-17511374D01*
X36444723Y-17221713D01*
X36280643Y-16976151D01*
X36035081Y-16812071D01*
X35745420Y-16754454D01*
X35455759Y-16812071D01*
X35210197Y-16976151D01*
X35046117Y-17221713D01*
X34988500Y-17511374D01*
X31051500Y-17511374D01*
X30993883Y-17221713D01*
X30829803Y-16976151D01*
X30584241Y-16812071D01*
X30294580Y-16754454D01*
X30004919Y-16812071D01*
X29759357Y-16976151D01*
X29595277Y-17221713D01*
X29537660Y-17511374D01*
X27488568Y-17511374D01*
X27567650Y-17113808D01*
X27786410Y-16786410D01*
X28113808Y-16567650D01*
X28547414Y-16481400D01*
X36952586Y-16481400D01*
X37386192Y-16567650D01*
X37386192Y-16567650D01*
G37*
X37386192Y-16567650D02*
X37713590Y-16786410D01*
X37932350Y-17113808D01*
X38018600Y-17547414D01*
X38018600Y-24612199D01*
X37874236Y-24467834D01*
X37874334Y-24354888D01*
X37764359Y-24088728D01*
X37560901Y-23884914D01*
X37294933Y-23774475D01*
X37006948Y-23774224D01*
X36740788Y-23884199D01*
X36536974Y-24087657D01*
X36426535Y-24353625D01*
X36426284Y-24641610D01*
X36536259Y-24907770D01*
X36739717Y-25111584D01*
X37005685Y-25222023D01*
X37119841Y-25222122D01*
X37263502Y-25365783D01*
X37263502Y-28076155D01*
X37056639Y-28075975D01*
X36790479Y-28185950D01*
X36586665Y-28389408D01*
X36476226Y-28655376D01*
X36475975Y-28943361D01*
X36585950Y-29209521D01*
X36789408Y-29413335D01*
X36830001Y-29430191D01*
X36830001Y-33621639D01*
X35052000Y-33621639D01*
X34893431Y-33653180D01*
X34759003Y-33743003D01*
X34669180Y-33877431D01*
X34637639Y-34036000D01*
X34637639Y-34173768D01*
X34533789Y-34018345D01*
X34072329Y-33710008D01*
X33528000Y-33601734D01*
X32983671Y-33710008D01*
X32522211Y-34018345D01*
X32213874Y-34479805D01*
X32105600Y-35024134D01*
X32105600Y-35079866D01*
X32213874Y-35624195D01*
X32522211Y-36085655D01*
X32875927Y-36322000D01*
X32522211Y-36558345D01*
X32213874Y-37019805D01*
X32105600Y-37564134D01*
X32105600Y-37619866D01*
X32213874Y-38164195D01*
X32223291Y-38178289D01*
X31840790Y-38560790D01*
X31730669Y-38725597D01*
X31692000Y-38920000D01*
X31692000Y-41089580D01*
X31490790Y-41290790D01*
X31380669Y-41455597D01*
X31342000Y-41650000D01*
X31342000Y-42728208D01*
X31299418Y-42770790D01*
X31189297Y-42935597D01*
X31150628Y-43130000D01*
X31150628Y-43634766D01*
X31045293Y-43739917D01*
X30934854Y-44005885D01*
X30934603Y-44293870D01*
X31044578Y-44560030D01*
X31248036Y-44763844D01*
X31514004Y-44874283D01*
X31749999Y-44874489D01*
X31749999Y-46152493D01*
X31788668Y-46346896D01*
X31898789Y-46511703D01*
X32197584Y-46810498D01*
X32197454Y-46959334D01*
X32307429Y-47225494D01*
X32510887Y-47429308D01*
X32776855Y-47539747D01*
X33064840Y-47539998D01*
X33331000Y-47430023D01*
X33534814Y-47226565D01*
X33645253Y-46960597D01*
X33645504Y-46672612D01*
X33632630Y-46641454D01*
X34072329Y-46553992D01*
X34533789Y-46245655D01*
X34637639Y-46090232D01*
X34637639Y-46228000D01*
X34669180Y-46386569D01*
X34759003Y-46520997D01*
X34893431Y-46610820D01*
X35052000Y-46642361D01*
X37084000Y-46642361D01*
X37242569Y-46610820D01*
X37376997Y-46520997D01*
X37466820Y-46386569D01*
X37498361Y-46228000D01*
X37498361Y-45713502D01*
X37542123Y-45704797D01*
X37715171Y-45589171D01*
X38058141Y-45246200D01*
X38065910Y-45285258D01*
X38065910Y-45285261D01*
X38097490Y-45361501D01*
X38137790Y-45458794D01*
X38137794Y-45458798D01*
X38246174Y-45620999D01*
X38246176Y-45621003D01*
X38378997Y-45753824D01*
X38379001Y-45753826D01*
X38398400Y-45766788D01*
X38398400Y-46233212D01*
X38379001Y-46246174D01*
X38378997Y-46246176D01*
X38246176Y-46378997D01*
X38246174Y-46379001D01*
X38137794Y-46541202D01*
X38137790Y-46541206D01*
X38100193Y-46631974D01*
X38065910Y-46714739D01*
X38065910Y-46714742D01*
X38027850Y-46906084D01*
X38027850Y-46953497D01*
X38018600Y-47000000D01*
X38018600Y-56452586D01*
X37932350Y-56886192D01*
X37713590Y-57213590D01*
X37386192Y-57432350D01*
X36952586Y-57518600D01*
X34000000Y-57518600D01*
X33953497Y-57527850D01*
X33906085Y-57527850D01*
X33714742Y-57565910D01*
X33714739Y-57565910D01*
X33625418Y-57602909D01*
X33541207Y-57637790D01*
X33541205Y-57637792D01*
X33379001Y-57746174D01*
X33378997Y-57746176D01*
X33246176Y-57878997D01*
X33246174Y-57879001D01*
X33233212Y-57898400D01*
X32766788Y-57898400D01*
X32753826Y-57879001D01*
X32753824Y-57878997D01*
X32621003Y-57746176D01*
X32620999Y-57746174D01*
X32458798Y-57637794D01*
X32458794Y-57637790D01*
X32352292Y-57593676D01*
X32285261Y-57565910D01*
X32285258Y-57565910D01*
X32093916Y-57527850D01*
X32046503Y-57527850D01*
X32000000Y-57518600D01*
X28547414Y-57518600D01*
X28113808Y-57432350D01*
X27786410Y-57213590D01*
X27567650Y-56886192D01*
X27481400Y-56452586D01*
X27481400Y-54415896D01*
X29489181Y-54415896D01*
X29582557Y-54783538D01*
X29740631Y-54995217D01*
X29574184Y-55244323D01*
X29501200Y-55611240D01*
X29501200Y-56166760D01*
X29574184Y-56533677D01*
X29782026Y-56844734D01*
X30093083Y-57052576D01*
X30460000Y-57125560D01*
X30826917Y-57052576D01*
X31095000Y-56873448D01*
X31363083Y-57052576D01*
X31730000Y-57125560D01*
X32096917Y-57052576D01*
X32365000Y-56873448D01*
X32633083Y-57052576D01*
X33000000Y-57125560D01*
X33366917Y-57052576D01*
X33635000Y-56873448D01*
X33903083Y-57052576D01*
X34270000Y-57125560D01*
X34598385Y-57060241D01*
X34846765Y-57308621D01*
X34984585Y-57400709D01*
X35011572Y-57418741D01*
X35205975Y-57457410D01*
X35874025Y-57457410D01*
X36068428Y-57418741D01*
X36233235Y-57308620D01*
X37059210Y-56482645D01*
X37169331Y-56317838D01*
X37208000Y-56123435D01*
X37208000Y-52615743D01*
X37313335Y-52510592D01*
X37423774Y-52244624D01*
X37424025Y-51956639D01*
X37314050Y-51690479D01*
X37110592Y-51486665D01*
X36844624Y-51376226D01*
X36556639Y-51375975D01*
X36290479Y-51485950D01*
X36086665Y-51689408D01*
X35976226Y-51955376D01*
X35975975Y-52243361D01*
X36085950Y-52509521D01*
X36192000Y-52615757D01*
X36192000Y-53137911D01*
X35906917Y-52947424D01*
X35540000Y-52874440D01*
X35173083Y-52947424D01*
X34905000Y-53126552D01*
X34636917Y-52947424D01*
X34270000Y-52874440D01*
X33903083Y-52947424D01*
X33635000Y-53126552D01*
X33366917Y-52947424D01*
X33000000Y-52874440D01*
X32633083Y-52947424D01*
X32365000Y-53126552D01*
X32353249Y-53118700D01*
X32380576Y-53052888D01*
X32380827Y-52764903D01*
X32270852Y-52498743D01*
X32067394Y-52294929D01*
X31801426Y-52184490D01*
X31513441Y-52184239D01*
X31247281Y-52294214D01*
X31043467Y-52497672D01*
X30933028Y-52763640D01*
X30932788Y-53039269D01*
X30758606Y-52945884D01*
X30612400Y-53013456D01*
X30612400Y-53958600D01*
X30632400Y-53958600D01*
X30632400Y-54263400D01*
X30612400Y-54263400D01*
X30612400Y-54283400D01*
X30307600Y-54283400D01*
X30307600Y-54263400D01*
X29594771Y-54263400D01*
X29489181Y-54415896D01*
X27481400Y-54415896D01*
X27481400Y-53806104D01*
X29489181Y-53806104D01*
X29594771Y-53958600D01*
X30307600Y-53958600D01*
X30307600Y-53013456D01*
X30161394Y-52945884D01*
X29809516Y-53134538D01*
X29582557Y-53438462D01*
X29489181Y-53806104D01*
X27481400Y-53806104D01*
X27481400Y-49424430D01*
X28969694Y-49424430D01*
X29079669Y-49690590D01*
X29283127Y-49894404D01*
X29299376Y-49901151D01*
X29194920Y-50152710D01*
X29194669Y-50440695D01*
X29304644Y-50706855D01*
X29508102Y-50910669D01*
X29774070Y-51021108D01*
X30062055Y-51021359D01*
X30328215Y-50911384D01*
X30480575Y-50759290D01*
X31603865Y-50759290D01*
X31709016Y-50864625D01*
X31974984Y-50975064D01*
X32262969Y-50975315D01*
X32529129Y-50865340D01*
X32732943Y-50661882D01*
X32843382Y-50395914D01*
X32843633Y-50107929D01*
X32733658Y-49841769D01*
X32718624Y-49826709D01*
X32777648Y-49767788D01*
X32888087Y-49501820D01*
X32888338Y-49213835D01*
X32778363Y-48947675D01*
X32574905Y-48743861D01*
X32308937Y-48633422D01*
X32020952Y-48633171D01*
X31754792Y-48743146D01*
X31648556Y-48849196D01*
X30285456Y-48849196D01*
X30104311Y-48667734D01*
X29838343Y-48557295D01*
X29550358Y-48557044D01*
X29284198Y-48667019D01*
X29080384Y-48870477D01*
X28969945Y-49136445D01*
X28969694Y-49424430D01*
X27481400Y-49424430D01*
X27481400Y-40658379D01*
X27721708Y-41018026D01*
X28133726Y-41293327D01*
X28619734Y-41390000D01*
X28980266Y-41390000D01*
X29466274Y-41293327D01*
X29878292Y-41018026D01*
X30153593Y-40606008D01*
X30250266Y-40120000D01*
X30153593Y-39633992D01*
X29878292Y-39221974D01*
X29466274Y-38946673D01*
X28980266Y-38850000D01*
X29466274Y-38753327D01*
X29878292Y-38478026D01*
X30153593Y-38066008D01*
X30250266Y-37580000D01*
X30153593Y-37093992D01*
X29878292Y-36681974D01*
X29466274Y-36406673D01*
X28980266Y-36310000D01*
X29466274Y-36213327D01*
X29878292Y-35938026D01*
X30153593Y-35526008D01*
X30250266Y-35040000D01*
X30153593Y-34553992D01*
X29878292Y-34141974D01*
X29466274Y-33866673D01*
X28980266Y-33770000D01*
X28619734Y-33770000D01*
X28133726Y-33866673D01*
X27721708Y-34141974D01*
X27481400Y-34501621D01*
X27481400Y-32961330D01*
X27620149Y-33246487D01*
X27984027Y-33582853D01*
X28448928Y-33754364D01*
X28647600Y-33668400D01*
X28647600Y-32652400D01*
X28952400Y-32652400D01*
X28952400Y-33668400D01*
X29151072Y-33754364D01*
X29615973Y-33582853D01*
X29979851Y-33246487D01*
X30173860Y-32847760D01*
X30110818Y-32652400D01*
X28952400Y-32652400D01*
X28647600Y-32652400D01*
X28627600Y-32652400D01*
X28627600Y-32347600D01*
X28647600Y-32347600D01*
X28647600Y-31331600D01*
X28952400Y-31331600D01*
X28952400Y-32347600D01*
X30110818Y-32347600D01*
X30173860Y-32152240D01*
X29979851Y-31753513D01*
X29615973Y-31417147D01*
X29151072Y-31245636D01*
X28952400Y-31331600D01*
X28647600Y-31331600D01*
X28448928Y-31245636D01*
X27984027Y-31417147D01*
X27620149Y-31753513D01*
X27481400Y-32038670D01*
X27481400Y-30498379D01*
X27721708Y-30858026D01*
X28133726Y-31133327D01*
X28619734Y-31230000D01*
X28980266Y-31230000D01*
X29466274Y-31133327D01*
X29878292Y-30858026D01*
X30153593Y-30446008D01*
X30250266Y-29960000D01*
X30153593Y-29473992D01*
X29878292Y-29061974D01*
X29466274Y-28786673D01*
X29020289Y-28697961D01*
X29816000Y-28697961D01*
X29974569Y-28666420D01*
X30108997Y-28576597D01*
X30198820Y-28442169D01*
X30230361Y-28283600D01*
X30230361Y-26556400D01*
X30198820Y-26397831D01*
X30108997Y-26263403D01*
X29974569Y-26173580D01*
X29816000Y-26142039D01*
X27784000Y-26142039D01*
X27625431Y-26173580D01*
X27491003Y-26263403D01*
X27481400Y-26277775D01*
X27481400Y-20592592D01*
X29862780Y-20592592D01*
X29862780Y-21027848D01*
X29918464Y-21307789D01*
X30077037Y-21545111D01*
X30314359Y-21703684D01*
X30594300Y-21759368D01*
X30874241Y-21703684D01*
X31111563Y-21545111D01*
X31270136Y-21307789D01*
X31325820Y-21027848D01*
X31325820Y-20592592D01*
X34714180Y-20592592D01*
X34714180Y-21027848D01*
X34769864Y-21307789D01*
X34928437Y-21545111D01*
X35165759Y-21703684D01*
X35445700Y-21759368D01*
X35725641Y-21703684D01*
X35962963Y-21545111D01*
X36121536Y-21307789D01*
X36177220Y-21027848D01*
X36177220Y-20592592D01*
X36121536Y-20312651D01*
X35962963Y-20075329D01*
X35725641Y-19916756D01*
X35445700Y-19861072D01*
X35165759Y-19916756D01*
X34928437Y-20075329D01*
X34769864Y-20312651D01*
X34714180Y-20592592D01*
X31325820Y-20592592D01*
X31270136Y-20312651D01*
X31111563Y-20075329D01*
X30874241Y-19916756D01*
X30594300Y-19861072D01*
X30314359Y-19916756D01*
X30077037Y-20075329D01*
X29918464Y-20312651D01*
X29862780Y-20592592D01*
X27481400Y-20592592D01*
X27481400Y-17547414D01*
X27488568Y-17511374D01*
X29537660Y-17511374D01*
X29537660Y-18048626D01*
X29595277Y-18338287D01*
X29759357Y-18583849D01*
X30004919Y-18747929D01*
X30294580Y-18805546D01*
X30584241Y-18747929D01*
X30829803Y-18583849D01*
X30993883Y-18338287D01*
X31051500Y-18048626D01*
X31051500Y-17511374D01*
X34988500Y-17511374D01*
X34988500Y-18048626D01*
X35046117Y-18338287D01*
X35210197Y-18583849D01*
X35455759Y-18747929D01*
X35745420Y-18805546D01*
X36035081Y-18747929D01*
X36280643Y-18583849D01*
X36444723Y-18338287D01*
X36502340Y-18048626D01*
X36502340Y-17511374D01*
X36444723Y-17221713D01*
X36280643Y-16976151D01*
X36035081Y-16812071D01*
X35745420Y-16754454D01*
X35455759Y-16812071D01*
X35210197Y-16976151D01*
X35046117Y-17221713D01*
X34988500Y-17511374D01*
X31051500Y-17511374D01*
X30993883Y-17221713D01*
X30829803Y-16976151D01*
X30584241Y-16812071D01*
X30294580Y-16754454D01*
X30004919Y-16812071D01*
X29759357Y-16976151D01*
X29595277Y-17221713D01*
X29537660Y-17511374D01*
X27488568Y-17511374D01*
X27567650Y-17113808D01*
X27786410Y-16786410D01*
X28113808Y-16567650D01*
X28547414Y-16481400D01*
X36952586Y-16481400D01*
X37386192Y-16567650D01*
D21*
G36*
X76283277Y-37500000D02*
X59641638Y-54141638D01*
X59360583Y-54422693D01*
X59168159Y-54596791D01*
X58826653Y-54879753D01*
X58819206Y-54888914D01*
X58809089Y-54894999D01*
X58610599Y-55075444D01*
X58319150Y-55284922D01*
X57914184Y-55561484D01*
X57910381Y-55565365D01*
X57905428Y-55567600D01*
X57641895Y-55755838D01*
X57372030Y-55917757D01*
X56945223Y-56140861D01*
X56937709Y-56146913D01*
X56928557Y-56149974D01*
X56593832Y-56341246D01*
X56337405Y-56465038D01*
X55945757Y-56617876D01*
X55922835Y-56632517D01*
X55896711Y-56640086D01*
X55662013Y-56761781D01*
X55379651Y-56855902D01*
X54799682Y-57023012D01*
X54781000Y-57032664D01*
X54760261Y-57036143D01*
X54496715Y-57136109D01*
X54153470Y-57224120D01*
X53713164Y-57300695D01*
X53707104Y-57303035D01*
X53700609Y-57303042D01*
X53263378Y-57390488D01*
X52943528Y-57437525D01*
X52440785Y-57496671D01*
X52421451Y-57502938D01*
X52401129Y-57502938D01*
X52209787Y-57540998D01*
X52209785Y-57540999D01*
X52209784Y-57540999D01*
X52206834Y-57542221D01*
X52027096Y-57616671D01*
X52027095Y-57616672D01*
X52027093Y-57616673D01*
X51864882Y-57725059D01*
X51827880Y-57762062D01*
X51725059Y-57864882D01*
X51719635Y-57873000D01*
X51280365Y-57873000D01*
X51274941Y-57864882D01*
X51172120Y-57762062D01*
X51135118Y-57725059D01*
X50972907Y-57616672D01*
X50972903Y-57616670D01*
X50881022Y-57578612D01*
X50790216Y-57540999D01*
X50790215Y-57540999D01*
X50790213Y-57540998D01*
X50599055Y-57502975D01*
X50399392Y-57463042D01*
X50372793Y-57463014D01*
X50347305Y-57455413D01*
X50036739Y-57426297D01*
X49681657Y-57379576D01*
X49288287Y-57302821D01*
X48902719Y-57225707D01*
X48535795Y-57131624D01*
X48146448Y-57014820D01*
X47801833Y-56910634D01*
X47912158Y-56865049D01*
X48123124Y-56654452D01*
X48237438Y-56379152D01*
X48237698Y-56081062D01*
X48207279Y-56007444D01*
X49423156Y-54791567D01*
X49518592Y-54648737D01*
X49552105Y-54480257D01*
X49518592Y-54311777D01*
X49423156Y-54168947D01*
X47040069Y-51785860D01*
X47040069Y-51686185D01*
X47040070Y-51686180D01*
X46992699Y-51448036D01*
X46857802Y-51246147D01*
X46535581Y-50923926D01*
X46734856Y-50724999D01*
X46849170Y-50449699D01*
X46849430Y-50151609D01*
X46735596Y-49876110D01*
X46524999Y-49665144D01*
X46391248Y-49609606D01*
X46499170Y-49349699D01*
X46499430Y-49051609D01*
X46385596Y-48776110D01*
X46174999Y-48565144D01*
X45906253Y-48453552D01*
X45934856Y-48424999D01*
X46049170Y-48149699D01*
X46049430Y-47851609D01*
X45935596Y-47576110D01*
X45724999Y-47365144D01*
X45449699Y-47250830D01*
X45269092Y-47250672D01*
X45223510Y-47205090D01*
X45444620Y-47113729D01*
X45655586Y-46903132D01*
X45769900Y-46627832D01*
X45770073Y-46429117D01*
X45843761Y-46318837D01*
X45862414Y-46225059D01*
X45882430Y-46124433D01*
X45882430Y-42569190D01*
X46253643Y-42197977D01*
X46363764Y-42033171D01*
X46371142Y-41996079D01*
X46402433Y-41838767D01*
X46402433Y-41196480D01*
X57420177Y-30178736D01*
X57508915Y-30393499D01*
X57719512Y-30604465D01*
X57994812Y-30718779D01*
X58292902Y-30719039D01*
X58568401Y-30605205D01*
X58696221Y-30477609D01*
X59439189Y-30477609D01*
X62322765Y-33361185D01*
X62487571Y-33471306D01*
X62681975Y-33509975D01*
X63695010Y-33509975D01*
X63704786Y-33533634D01*
X63968925Y-33798234D01*
X64314216Y-33941612D01*
X64460163Y-33941739D01*
X64460069Y-34049669D01*
X63168609Y-35341129D01*
X63157161Y-35283574D01*
X63022264Y-35081685D01*
X63022261Y-35081683D01*
X62102774Y-34162195D01*
X61900885Y-34027298D01*
X61683977Y-33984151D01*
X61667227Y-33967372D01*
X61391927Y-33853058D01*
X61093837Y-33852798D01*
X60818338Y-33966632D01*
X60607372Y-34177229D01*
X60493058Y-34452529D01*
X60492798Y-34750619D01*
X60552086Y-34894106D01*
X60399699Y-34830830D01*
X60101609Y-34830570D01*
X59826110Y-34944404D01*
X59615144Y-35155001D01*
X59500830Y-35430301D01*
X59500570Y-35728391D01*
X59614404Y-36003890D01*
X59697822Y-36087455D01*
X59576844Y-36208433D01*
X59481408Y-36351263D01*
X59447895Y-36519743D01*
X59481408Y-36688223D01*
X59576844Y-36831053D01*
X63168947Y-40423156D01*
X63311777Y-40518592D01*
X63480257Y-40552105D01*
X63648737Y-40518592D01*
X63791567Y-40423156D01*
X64187572Y-40027151D01*
X64345001Y-40184856D01*
X64620301Y-40299170D01*
X64918391Y-40299430D01*
X65193890Y-40185596D01*
X65404856Y-39974999D01*
X65519170Y-39699699D01*
X65519200Y-39664964D01*
X65783890Y-39555596D01*
X65994856Y-39344999D01*
X66109170Y-39069699D01*
X66109430Y-38771609D01*
X65995596Y-38496110D01*
X65884680Y-38385000D01*
X65984856Y-38284999D01*
X66099170Y-38009699D01*
X66099430Y-37711609D01*
X65985596Y-37436110D01*
X65774999Y-37225144D01*
X65499699Y-37110830D01*
X65480879Y-37110814D01*
X65347802Y-36977736D01*
X65219290Y-36891868D01*
X65219430Y-36731609D01*
X65105596Y-36456110D01*
X64894999Y-36245144D01*
X64619699Y-36130830D01*
X64321609Y-36130570D01*
X64046110Y-36244404D01*
X63936728Y-36353595D01*
X63836698Y-36253565D01*
X65250592Y-34839670D01*
X65586118Y-34839963D01*
X65931659Y-34697188D01*
X66196259Y-34433049D01*
X66339637Y-34087758D01*
X66339764Y-33941812D01*
X66484143Y-33941938D01*
X66829684Y-33799163D01*
X67094284Y-33535024D01*
X67237662Y-33189733D01*
X67237988Y-32815857D01*
X67095213Y-32470316D01*
X66831074Y-32205716D01*
X66485783Y-32062338D01*
X66339837Y-32062211D01*
X66339963Y-31917831D01*
X66197188Y-31572290D01*
X65933049Y-31307690D01*
X65908000Y-31297289D01*
X65908000Y-30403258D01*
X65869331Y-30208855D01*
X65869331Y-30208854D01*
X65759210Y-30044048D01*
X63845006Y-28129844D01*
X63680199Y-28019723D01*
X63485796Y-27981054D01*
X56835665Y-27981054D01*
X56673515Y-28013308D01*
X56641261Y-28019723D01*
X56476455Y-28129844D01*
X44620790Y-39985509D01*
X44510669Y-40150316D01*
X44472000Y-40344719D01*
X44472000Y-41019579D01*
X43791598Y-41699982D01*
X43681477Y-41864789D01*
X43642808Y-42059192D01*
X43642808Y-44037902D01*
X43515952Y-44164536D01*
X43401638Y-44439836D01*
X43401378Y-44737926D01*
X43515212Y-45013425D01*
X43711535Y-45210092D01*
X43682000Y-45358573D01*
X43682000Y-46890000D01*
X43720669Y-47084403D01*
X43830790Y-47249210D01*
X44550726Y-47969146D01*
X44550570Y-48148391D01*
X44664404Y-48423890D01*
X44875001Y-48634856D01*
X45143747Y-48746448D01*
X45115144Y-48775001D01*
X45000830Y-49050301D01*
X45000570Y-49348391D01*
X45114404Y-49623890D01*
X45127700Y-49637209D01*
X45127700Y-50599995D01*
X45127699Y-50600000D01*
X45127700Y-50600005D01*
X45127700Y-50657577D01*
X43412382Y-52372895D01*
X43316946Y-52515725D01*
X43283433Y-52684205D01*
X43316946Y-52852685D01*
X43412382Y-52995515D01*
X45913399Y-55496532D01*
X45948438Y-55672685D01*
X46058559Y-55837492D01*
X46688894Y-56467827D01*
X46031924Y-56139342D01*
X45710927Y-55969403D01*
X45376208Y-55764852D01*
X45097727Y-55572796D01*
X45088977Y-55569020D01*
X45082088Y-55562432D01*
X44767397Y-55362174D01*
X44487904Y-55154808D01*
X44192856Y-54897831D01*
X44181573Y-54891368D01*
X44173112Y-54881494D01*
X43910496Y-54675153D01*
X43612589Y-54395866D01*
X43371739Y-54155015D01*
X43353517Y-54126869D01*
X43020249Y-53783799D01*
X42764687Y-53499842D01*
X42593952Y-53291166D01*
X42281516Y-52900619D01*
X42067830Y-52612608D01*
X41937568Y-52407912D01*
X41933777Y-52403948D01*
X41931683Y-52398878D01*
X41676573Y-52016213D01*
X41483133Y-51703026D01*
X41363296Y-51463352D01*
X41358511Y-51457187D01*
X41356223Y-51449726D01*
X41151243Y-51069050D01*
X40996563Y-50750591D01*
X40875087Y-50423539D01*
X40868446Y-50412755D01*
X40865823Y-50400361D01*
X40692369Y-49995636D01*
X40582394Y-49684039D01*
X40486206Y-49356998D01*
X40482631Y-49350171D01*
X40481711Y-49342517D01*
X40320140Y-48848302D01*
X40257574Y-48553344D01*
X40199088Y-48221926D01*
X40198090Y-48219360D01*
X40198120Y-48216603D01*
X40108872Y-47740612D01*
X40042735Y-47353239D01*
X40004517Y-46951951D01*
X39997062Y-46927087D01*
X39997062Y-46901129D01*
X39959002Y-46709787D01*
X39883329Y-46527096D01*
X39883327Y-46527094D01*
X39883327Y-46527093D01*
X39774941Y-46364882D01*
X39693788Y-46283730D01*
X39635118Y-46225059D01*
X39627000Y-46219635D01*
X39627000Y-45780365D01*
X39635118Y-45774941D01*
X39721654Y-45688404D01*
X39774941Y-45635118D01*
X39883327Y-45472907D01*
X39883328Y-45472905D01*
X39883329Y-45472904D01*
X39959002Y-45290213D01*
X39996510Y-45101649D01*
X40035929Y-44914406D01*
X40036205Y-44889607D01*
X40043700Y-44865967D01*
X40082917Y-44513017D01*
X40140065Y-44103455D01*
X40207245Y-43757957D01*
X40293648Y-43325943D01*
X40387789Y-42977619D01*
X40484117Y-42650104D01*
X40629809Y-42203315D01*
X40733413Y-41911342D01*
X40865960Y-41589441D01*
X41061049Y-41150490D01*
X41206165Y-40840911D01*
X41356161Y-40540919D01*
X41595556Y-40129159D01*
X41728284Y-39911106D01*
X41968048Y-39546664D01*
X42212400Y-39204572D01*
X42212725Y-39203851D01*
X42213299Y-39203309D01*
X42419882Y-38912215D01*
X42644791Y-38649821D01*
X42646147Y-38647409D01*
X42648306Y-38645676D01*
X42905943Y-38338493D01*
X43081449Y-38135275D01*
X43358362Y-37858362D01*
X43360440Y-37855252D01*
X43363517Y-37853131D01*
X43415273Y-37773189D01*
X43468222Y-37693944D01*
X43468952Y-37690276D01*
X43470983Y-37687138D01*
X43488212Y-37593446D01*
X43506800Y-37500000D01*
X43506071Y-37496334D01*
X43506747Y-37492656D01*
X43486809Y-37399498D01*
X43468222Y-37306056D01*
X43466144Y-37302947D01*
X43465362Y-37299291D01*
X43411304Y-37220871D01*
X43358362Y-37141638D01*
X43355252Y-37139560D01*
X43353131Y-37136483D01*
X43021548Y-36814373D01*
X42834555Y-36591763D01*
X42600739Y-36289751D01*
X42587595Y-36278324D01*
X42578787Y-36263301D01*
X42356076Y-36012750D01*
X42193995Y-35787636D01*
X41932021Y-35409229D01*
X41710303Y-35062191D01*
X41517683Y-34744369D01*
X41345045Y-34437458D01*
X41286748Y-34327000D01*
X44517509Y-34327000D01*
X44725001Y-34534856D01*
X45000301Y-34649170D01*
X45298391Y-34649430D01*
X45573890Y-34535596D01*
X45782851Y-34327000D01*
X46159700Y-34327000D01*
X46189404Y-34398890D01*
X46400001Y-34609856D01*
X46675301Y-34724170D01*
X46973391Y-34724430D01*
X47248890Y-34610596D01*
X47459856Y-34399999D01*
X47490168Y-34327000D01*
X47800000Y-34327000D01*
X47848601Y-34317333D01*
X47889803Y-34289803D01*
X60481441Y-21698165D01*
X76283277Y-37500000D01*
X76283277Y-37500000D01*
G37*
X76283277Y-37500000D02*
X59641638Y-54141638D01*
X59360583Y-54422693D01*
X59168159Y-54596791D01*
X58826653Y-54879753D01*
X58819206Y-54888914D01*
X58809089Y-54894999D01*
X58610599Y-55075444D01*
X58319150Y-55284922D01*
X57914184Y-55561484D01*
X57910381Y-55565365D01*
X57905428Y-55567600D01*
X57641895Y-55755838D01*
X57372030Y-55917757D01*
X56945223Y-56140861D01*
X56937709Y-56146913D01*
X56928557Y-56149974D01*
X56593832Y-56341246D01*
X56337405Y-56465038D01*
X55945757Y-56617876D01*
X55922835Y-56632517D01*
X55896711Y-56640086D01*
X55662013Y-56761781D01*
X55379651Y-56855902D01*
X54799682Y-57023012D01*
X54781000Y-57032664D01*
X54760261Y-57036143D01*
X54496715Y-57136109D01*
X54153470Y-57224120D01*
X53713164Y-57300695D01*
X53707104Y-57303035D01*
X53700609Y-57303042D01*
X53263378Y-57390488D01*
X52943528Y-57437525D01*
X52440785Y-57496671D01*
X52421451Y-57502938D01*
X52401129Y-57502938D01*
X52209787Y-57540998D01*
X52209785Y-57540999D01*
X52209784Y-57540999D01*
X52206834Y-57542221D01*
X52027096Y-57616671D01*
X52027095Y-57616672D01*
X52027093Y-57616673D01*
X51864882Y-57725059D01*
X51827880Y-57762062D01*
X51725059Y-57864882D01*
X51719635Y-57873000D01*
X51280365Y-57873000D01*
X51274941Y-57864882D01*
X51172120Y-57762062D01*
X51135118Y-57725059D01*
X50972907Y-57616672D01*
X50972903Y-57616670D01*
X50881022Y-57578612D01*
X50790216Y-57540999D01*
X50790215Y-57540999D01*
X50790213Y-57540998D01*
X50599055Y-57502975D01*
X50399392Y-57463042D01*
X50372793Y-57463014D01*
X50347305Y-57455413D01*
X50036739Y-57426297D01*
X49681657Y-57379576D01*
X49288287Y-57302821D01*
X48902719Y-57225707D01*
X48535795Y-57131624D01*
X48146448Y-57014820D01*
X47801833Y-56910634D01*
X47912158Y-56865049D01*
X48123124Y-56654452D01*
X48237438Y-56379152D01*
X48237698Y-56081062D01*
X48207279Y-56007444D01*
X49423156Y-54791567D01*
X49518592Y-54648737D01*
X49552105Y-54480257D01*
X49518592Y-54311777D01*
X49423156Y-54168947D01*
X47040069Y-51785860D01*
X47040069Y-51686185D01*
X47040070Y-51686180D01*
X46992699Y-51448036D01*
X46857802Y-51246147D01*
X46535581Y-50923926D01*
X46734856Y-50724999D01*
X46849170Y-50449699D01*
X46849430Y-50151609D01*
X46735596Y-49876110D01*
X46524999Y-49665144D01*
X46391248Y-49609606D01*
X46499170Y-49349699D01*
X46499430Y-49051609D01*
X46385596Y-48776110D01*
X46174999Y-48565144D01*
X45906253Y-48453552D01*
X45934856Y-48424999D01*
X46049170Y-48149699D01*
X46049430Y-47851609D01*
X45935596Y-47576110D01*
X45724999Y-47365144D01*
X45449699Y-47250830D01*
X45269092Y-47250672D01*
X45223510Y-47205090D01*
X45444620Y-47113729D01*
X45655586Y-46903132D01*
X45769900Y-46627832D01*
X45770073Y-46429117D01*
X45843761Y-46318837D01*
X45862414Y-46225059D01*
X45882430Y-46124433D01*
X45882430Y-42569190D01*
X46253643Y-42197977D01*
X46363764Y-42033171D01*
X46371142Y-41996079D01*
X46402433Y-41838767D01*
X46402433Y-41196480D01*
X57420177Y-30178736D01*
X57508915Y-30393499D01*
X57719512Y-30604465D01*
X57994812Y-30718779D01*
X58292902Y-30719039D01*
X58568401Y-30605205D01*
X58696221Y-30477609D01*
X59439189Y-30477609D01*
X62322765Y-33361185D01*
X62487571Y-33471306D01*
X62681975Y-33509975D01*
X63695010Y-33509975D01*
X63704786Y-33533634D01*
X63968925Y-33798234D01*
X64314216Y-33941612D01*
X64460163Y-33941739D01*
X64460069Y-34049669D01*
X63168609Y-35341129D01*
X63157161Y-35283574D01*
X63022264Y-35081685D01*
X63022261Y-35081683D01*
X62102774Y-34162195D01*
X61900885Y-34027298D01*
X61683977Y-33984151D01*
X61667227Y-33967372D01*
X61391927Y-33853058D01*
X61093837Y-33852798D01*
X60818338Y-33966632D01*
X60607372Y-34177229D01*
X60493058Y-34452529D01*
X60492798Y-34750619D01*
X60552086Y-34894106D01*
X60399699Y-34830830D01*
X60101609Y-34830570D01*
X59826110Y-34944404D01*
X59615144Y-35155001D01*
X59500830Y-35430301D01*
X59500570Y-35728391D01*
X59614404Y-36003890D01*
X59697822Y-36087455D01*
X59576844Y-36208433D01*
X59481408Y-36351263D01*
X59447895Y-36519743D01*
X59481408Y-36688223D01*
X59576844Y-36831053D01*
X63168947Y-40423156D01*
X63311777Y-40518592D01*
X63480257Y-40552105D01*
X63648737Y-40518592D01*
X63791567Y-40423156D01*
X64187572Y-40027151D01*
X64345001Y-40184856D01*
X64620301Y-40299170D01*
X64918391Y-40299430D01*
X65193890Y-40185596D01*
X65404856Y-39974999D01*
X65519170Y-39699699D01*
X65519200Y-39664964D01*
X65783890Y-39555596D01*
X65994856Y-39344999D01*
X66109170Y-39069699D01*
X66109430Y-38771609D01*
X65995596Y-38496110D01*
X65884680Y-38385000D01*
X65984856Y-38284999D01*
X66099170Y-38009699D01*
X66099430Y-37711609D01*
X65985596Y-37436110D01*
X65774999Y-37225144D01*
X65499699Y-37110830D01*
X65480879Y-37110814D01*
X65347802Y-36977736D01*
X65219290Y-36891868D01*
X65219430Y-36731609D01*
X65105596Y-36456110D01*
X64894999Y-36245144D01*
X64619699Y-36130830D01*
X64321609Y-36130570D01*
X64046110Y-36244404D01*
X63936728Y-36353595D01*
X63836698Y-36253565D01*
X65250592Y-34839670D01*
X65586118Y-34839963D01*
X65931659Y-34697188D01*
X66196259Y-34433049D01*
X66339637Y-34087758D01*
X66339764Y-33941812D01*
X66484143Y-33941938D01*
X66829684Y-33799163D01*
X67094284Y-33535024D01*
X67237662Y-33189733D01*
X67237988Y-32815857D01*
X67095213Y-32470316D01*
X66831074Y-32205716D01*
X66485783Y-32062338D01*
X66339837Y-32062211D01*
X66339963Y-31917831D01*
X66197188Y-31572290D01*
X65933049Y-31307690D01*
X65908000Y-31297289D01*
X65908000Y-30403258D01*
X65869331Y-30208855D01*
X65869331Y-30208854D01*
X65759210Y-30044048D01*
X63845006Y-28129844D01*
X63680199Y-28019723D01*
X63485796Y-27981054D01*
X56835665Y-27981054D01*
X56673515Y-28013308D01*
X56641261Y-28019723D01*
X56476455Y-28129844D01*
X44620790Y-39985509D01*
X44510669Y-40150316D01*
X44472000Y-40344719D01*
X44472000Y-41019579D01*
X43791598Y-41699982D01*
X43681477Y-41864789D01*
X43642808Y-42059192D01*
X43642808Y-44037902D01*
X43515952Y-44164536D01*
X43401638Y-44439836D01*
X43401378Y-44737926D01*
X43515212Y-45013425D01*
X43711535Y-45210092D01*
X43682000Y-45358573D01*
X43682000Y-46890000D01*
X43720669Y-47084403D01*
X43830790Y-47249210D01*
X44550726Y-47969146D01*
X44550570Y-48148391D01*
X44664404Y-48423890D01*
X44875001Y-48634856D01*
X45143747Y-48746448D01*
X45115144Y-48775001D01*
X45000830Y-49050301D01*
X45000570Y-49348391D01*
X45114404Y-49623890D01*
X45127700Y-49637209D01*
X45127700Y-50599995D01*
X45127699Y-50600000D01*
X45127700Y-50600005D01*
X45127700Y-50657577D01*
X43412382Y-52372895D01*
X43316946Y-52515725D01*
X43283433Y-52684205D01*
X43316946Y-52852685D01*
X43412382Y-52995515D01*
X45913399Y-55496532D01*
X45948438Y-55672685D01*
X46058559Y-55837492D01*
X46688894Y-56467827D01*
X46031924Y-56139342D01*
X45710927Y-55969403D01*
X45376208Y-55764852D01*
X45097727Y-55572796D01*
X45088977Y-55569020D01*
X45082088Y-55562432D01*
X44767397Y-55362174D01*
X44487904Y-55154808D01*
X44192856Y-54897831D01*
X44181573Y-54891368D01*
X44173112Y-54881494D01*
X43910496Y-54675153D01*
X43612589Y-54395866D01*
X43371739Y-54155015D01*
X43353517Y-54126869D01*
X43020249Y-53783799D01*
X42764687Y-53499842D01*
X42593952Y-53291166D01*
X42281516Y-52900619D01*
X42067830Y-52612608D01*
X41937568Y-52407912D01*
X41933777Y-52403948D01*
X41931683Y-52398878D01*
X41676573Y-52016213D01*
X41483133Y-51703026D01*
X41363296Y-51463352D01*
X41358511Y-51457187D01*
X41356223Y-51449726D01*
X41151243Y-51069050D01*
X40996563Y-50750591D01*
X40875087Y-50423539D01*
X40868446Y-50412755D01*
X40865823Y-50400361D01*
X40692369Y-49995636D01*
X40582394Y-49684039D01*
X40486206Y-49356998D01*
X40482631Y-49350171D01*
X40481711Y-49342517D01*
X40320140Y-48848302D01*
X40257574Y-48553344D01*
X40199088Y-48221926D01*
X40198090Y-48219360D01*
X40198120Y-48216603D01*
X40108872Y-47740612D01*
X40042735Y-47353239D01*
X40004517Y-46951951D01*
X39997062Y-46927087D01*
X39997062Y-46901129D01*
X39959002Y-46709787D01*
X39883329Y-46527096D01*
X39883327Y-46527094D01*
X39883327Y-46527093D01*
X39774941Y-46364882D01*
X39693788Y-46283730D01*
X39635118Y-46225059D01*
X39627000Y-46219635D01*
X39627000Y-45780365D01*
X39635118Y-45774941D01*
X39721654Y-45688404D01*
X39774941Y-45635118D01*
X39883327Y-45472907D01*
X39883328Y-45472905D01*
X39883329Y-45472904D01*
X39959002Y-45290213D01*
X39996510Y-45101649D01*
X40035929Y-44914406D01*
X40036205Y-44889607D01*
X40043700Y-44865967D01*
X40082917Y-44513017D01*
X40140065Y-44103455D01*
X40207245Y-43757957D01*
X40293648Y-43325943D01*
X40387789Y-42977619D01*
X40484117Y-42650104D01*
X40629809Y-42203315D01*
X40733413Y-41911342D01*
X40865960Y-41589441D01*
X41061049Y-41150490D01*
X41206165Y-40840911D01*
X41356161Y-40540919D01*
X41595556Y-40129159D01*
X41728284Y-39911106D01*
X41968048Y-39546664D01*
X42212400Y-39204572D01*
X42212725Y-39203851D01*
X42213299Y-39203309D01*
X42419882Y-38912215D01*
X42644791Y-38649821D01*
X42646147Y-38647409D01*
X42648306Y-38645676D01*
X42905943Y-38338493D01*
X43081449Y-38135275D01*
X43358362Y-37858362D01*
X43360440Y-37855252D01*
X43363517Y-37853131D01*
X43415273Y-37773189D01*
X43468222Y-37693944D01*
X43468952Y-37690276D01*
X43470983Y-37687138D01*
X43488212Y-37593446D01*
X43506800Y-37500000D01*
X43506071Y-37496334D01*
X43506747Y-37492656D01*
X43486809Y-37399498D01*
X43468222Y-37306056D01*
X43466144Y-37302947D01*
X43465362Y-37299291D01*
X43411304Y-37220871D01*
X43358362Y-37141638D01*
X43355252Y-37139560D01*
X43353131Y-37136483D01*
X43021548Y-36814373D01*
X42834555Y-36591763D01*
X42600739Y-36289751D01*
X42587595Y-36278324D01*
X42578787Y-36263301D01*
X42356076Y-36012750D01*
X42193995Y-35787636D01*
X41932021Y-35409229D01*
X41710303Y-35062191D01*
X41517683Y-34744369D01*
X41345045Y-34437458D01*
X41286748Y-34327000D01*
X44517509Y-34327000D01*
X44725001Y-34534856D01*
X45000301Y-34649170D01*
X45298391Y-34649430D01*
X45573890Y-34535596D01*
X45782851Y-34327000D01*
X46159700Y-34327000D01*
X46189404Y-34398890D01*
X46400001Y-34609856D01*
X46675301Y-34724170D01*
X46973391Y-34724430D01*
X47248890Y-34610596D01*
X47459856Y-34399999D01*
X47490168Y-34327000D01*
X47800000Y-34327000D01*
X47848601Y-34317333D01*
X47889803Y-34289803D01*
X60481441Y-21698165D01*
X76283277Y-37500000D01*
M02*
