M48
;DRILL file {KiCad (2016-07-22 BZR 6991, Git 146a78a)-product} date Tue Jul 26 18:11:16 2016
;FORMAT={-:-/ absolute / inch / decimal}
FMAT,2
INCH,TZ
T1C0.012
T2C0.026
T3C0.028
T4C0.028
T5C0.031
T6C0.040
%
G90
G05
M72
T1
X1.169Y-1.9402
X1.1779Y-1.9802
X1.2283Y-0.8858
X1.2343Y-2.4047
X1.2463Y-2.083
X1.2464Y-1.7382
X1.2646Y-1.9784
X1.2663Y-1.9432
X1.2939Y-2.3753
X1.2953Y-1.1772
X1.2961Y-1.8431
X1.3305Y-2.3919
X1.378Y-1.252
X1.3937Y-0.9764
X1.3965Y-2.3731
X1.4047Y-2.5531
X1.4331Y-1.252
X1.4449Y-2.0512
X1.4582Y-2.5079
X1.4626Y-0.9645
X1.4646Y-1.1339
X1.4653Y-2.4752
X1.4744Y-2.5348
X1.4748Y-2.3744
X1.5056Y-2.3698
X1.5061Y-2.5536
X1.5392Y-2.4665
X1.5413Y-2.3636
X1.5433Y-2.5045
X1.561Y-2.5576
X1.5786Y-2.5026
X1.5797Y-2.3626
X1.5799Y-2.4309
X1.6004Y-2.5576
X1.6145Y-2.4279
X1.6808Y-2.484
X1.6929Y-1.374
X1.7014Y-2.4296
X1.7205Y-1.9567
X1.7285Y-2.4647
X1.7382Y-1.7555
X1.7441Y-1.9803
X1.7618Y-1.7948
X1.7725Y-1.8298
X1.7776Y-1.3346
X1.7835Y-1.8898
X1.7925Y-1.5038
X1.8012Y-1.937
X1.8071Y-2.4816
X1.815Y-1.9803
X1.8209Y-1.4756
X1.822Y-2.4536
X1.8435Y-1.3376
X1.8696Y-2.2138
X1.8701Y-2.0197
X1.8701Y-2.0551
X1.8713Y-2.5176
X1.9547Y-1.7402
X1.9642Y-2.4673
X2.0232Y-2.5118
X2.0331Y-2.4779
X2.1394Y-2.4673
X2.2099Y-2.4555
X2.2892Y-1.1799
X2.3209Y-2.4677
X2.372Y-1.4008
X2.3839Y-2.4528
X2.4093Y-1.2104
X2.4111Y-1.3623
X2.498Y-2.4654
X2.5382Y-1.452
X2.55Y-1.5571
X2.5598Y-2.5129
X2.561Y-2.4528
X2.5728Y-1.4906
X2.5732Y-1.5323
X2.5799Y-2.4169
X2.6748Y-2.4673
X2.7368Y-2.5179
X2.7402Y-2.4528
X2.761Y-2.4146
X2.8488Y-2.4673
X2.9035Y-2.4083
T3
X1.1992Y-2.1904
T5
X1.1992Y-2.1404
X1.2492Y-2.1404
X1.2492Y-2.1904
X1.2992Y-2.1404
X1.2992Y-2.1904
X1.3492Y-2.1404
X1.3492Y-2.1904
X1.3992Y-2.1404
X1.3992Y-2.1904
T6
X1.1339Y-1.0795
X1.1339Y-1.1795
X1.1339Y-1.2795
X1.1339Y-1.3795
X1.1339Y-1.4795
X1.1339Y-1.5795
X1.1437Y-2.4118
X1.1437Y-2.5118
X1.32Y-1.38
X1.32Y-1.48
X1.32Y-1.58
X1.32Y-1.68
X1.32Y-1.78
X1.42Y-1.38
X1.42Y-1.48
X1.42Y-1.58
X1.42Y-1.68
X1.42Y-1.78
T2
X1.2045Y-0.8271G85X1.2045Y-0.8115
G05
X1.3955Y-0.8271G85X1.3955Y-0.8115
G05
T4
X1.1927Y-0.7098G85X1.1927Y-0.6902
G05
X1.4073Y-0.7098G85X1.4073Y-0.6902
G05
T0
M30
