G04 #@! TF.FileFunction,Soldermask,Bot*
%FSLAX46Y46*%
G04 Gerber Fmt 4.6, Leading zero omitted, Abs format (unit mm)*
G04 Created by KiCad (PCBNEW (2016-07-22 BZR 6991, Git 146a78a)-product) date Tue Jul 26 18:11:02 2016*
%MOMM*%
%LPD*%
G01*
G04 APERTURE LIST*
%ADD10C,0.100000*%
%ADD11C,0.150000*%
%ADD12C,1.416000*%
%ADD13R,2.432000X2.432000*%
%ADD14O,2.432000X2.432000*%
%ADD15R,2.432000X2.127200*%
%ADD16O,2.432000X2.127200*%
%ADD17R,2.398980X1.799540*%
%ADD18R,1.700480X2.851100*%
%ADD19O,1.504800X2.012800*%
%ADD20C,18.180000*%
G04 APERTURE END LIST*
D10*
D11*
X38500000Y-17500000D02*
G75*
G03X37000000Y-16000000I-1500000J0D01*
G01*
X28500000Y-16000000D02*
G75*
G03X27000000Y-17500000I0J-1500000D01*
G01*
X37000000Y-58000000D02*
G75*
G03X38500000Y-56500000I0J1500000D01*
G01*
X27000000Y-56500000D02*
G75*
G03X28500000Y-58000000I1500000J0D01*
G01*
X43260000Y-54760000D02*
X43000000Y-54500000D01*
X43580000Y-55060000D02*
X43260000Y-54760000D01*
X43860000Y-55280000D02*
X43580000Y-55060000D01*
X44170000Y-55550000D02*
X43860000Y-55280000D01*
X44480000Y-55780000D02*
X44170000Y-55550000D01*
X44810000Y-55990000D02*
X44480000Y-55780000D01*
X45100000Y-56190000D02*
X44810000Y-55990000D01*
X45460000Y-56410000D02*
X45100000Y-56190000D01*
X45800000Y-56590000D02*
X45460000Y-56410000D01*
X46240000Y-56810000D02*
X45800000Y-56590000D01*
X46540000Y-56960000D02*
X46240000Y-56810000D01*
X46880000Y-57100000D02*
X46540000Y-56960000D01*
X47180000Y-57230000D02*
X46880000Y-57100000D01*
X47570000Y-57370000D02*
X47180000Y-57230000D01*
X48000000Y-57500000D02*
X47570000Y-57370000D01*
X48400000Y-57620000D02*
X48000000Y-57500000D01*
X48790000Y-57720000D02*
X48400000Y-57620000D01*
X49190000Y-57800000D02*
X48790000Y-57720000D01*
X49600000Y-57880000D02*
X49190000Y-57800000D01*
X49980000Y-57930000D02*
X49600000Y-57880000D01*
X50300000Y-57960000D02*
X49980000Y-57930000D01*
X50500000Y-58000000D02*
X50300000Y-57960000D01*
X53010000Y-57940000D02*
X52500000Y-58000000D01*
X53350000Y-57890000D02*
X53010000Y-57940000D01*
X53800000Y-57800000D02*
X53350000Y-57890000D01*
X54260000Y-57720000D02*
X53800000Y-57800000D01*
X54650000Y-57620000D02*
X54260000Y-57720000D01*
X54940000Y-57510000D02*
X54650000Y-57620000D01*
X55530000Y-57340000D02*
X54940000Y-57510000D01*
X55860000Y-57230000D02*
X55530000Y-57340000D01*
X56130000Y-57090000D02*
X55860000Y-57230000D01*
X56540000Y-56930000D02*
X56130000Y-57090000D01*
X56830000Y-56790000D02*
X56540000Y-56930000D01*
X57180000Y-56590000D02*
X56830000Y-56790000D01*
X57620000Y-56360000D02*
X57180000Y-56590000D01*
X57920000Y-56180000D02*
X57620000Y-56360000D01*
X58200000Y-55980000D02*
X57920000Y-56180000D01*
X58610000Y-55700000D02*
X58200000Y-55980000D01*
X58930000Y-55470000D02*
X58610000Y-55700000D01*
X59150000Y-55270000D02*
X58930000Y-55470000D01*
X59500000Y-54980000D02*
X59150000Y-55270000D01*
X59710000Y-54790000D02*
X59500000Y-54980000D01*
X60000000Y-54500000D02*
X59710000Y-54790000D01*
X52500000Y-59000000D02*
X77000000Y-59000000D01*
X50500000Y-59000000D02*
X34000000Y-59000000D01*
X34000000Y-58000000D02*
G75*
G03X34000000Y-59000000I0J-500000D01*
G01*
X52500000Y-58000000D02*
G75*
G03X52500000Y-59000000I0J-500000D01*
G01*
X50500000Y-59000000D02*
G75*
G03X50500000Y-58000000I0J500000D01*
G01*
X32000000Y-59000000D02*
G75*
G03X32500000Y-58500000I0J500000D01*
G01*
X32000000Y-59000000D02*
X27000000Y-59000000D01*
X77000000Y-66000000D02*
X77000000Y-59000000D01*
X27000000Y-66000000D02*
X77000000Y-66000000D01*
X27000000Y-59000000D02*
X27000000Y-66000000D01*
X38500000Y-47000000D02*
X38500000Y-56500000D01*
X38500000Y-30000000D02*
X38500000Y-45000000D01*
X42990000Y-54480000D02*
X43000000Y-54500000D01*
X42650000Y-54130000D02*
X42990000Y-54480000D01*
X42380000Y-53830000D02*
X42650000Y-54130000D01*
X42200000Y-53610000D02*
X42380000Y-53830000D01*
X41880000Y-53210000D02*
X42200000Y-53610000D01*
X41650000Y-52900000D02*
X41880000Y-53210000D01*
X41510000Y-52680000D02*
X41650000Y-52900000D01*
X41250000Y-52290000D02*
X41510000Y-52680000D01*
X41040000Y-51950000D02*
X41250000Y-52290000D01*
X40910000Y-51690000D02*
X41040000Y-51950000D01*
X40700000Y-51300000D02*
X40910000Y-51690000D01*
X40530000Y-50950000D02*
X40700000Y-51300000D01*
X40400000Y-50600000D02*
X40530000Y-50950000D01*
X40220000Y-50180000D02*
X40400000Y-50600000D01*
X40100000Y-49840000D02*
X40220000Y-50180000D01*
X40000000Y-49500000D02*
X40100000Y-49840000D01*
X39830000Y-48980000D02*
X40000000Y-49500000D01*
X39760000Y-48650000D02*
X39830000Y-48980000D01*
X39700000Y-48310000D02*
X39760000Y-48650000D01*
X39610000Y-47830000D02*
X39700000Y-48310000D01*
X39540000Y-47420000D02*
X39610000Y-47830000D01*
X39500000Y-47000000D02*
X39540000Y-47420000D01*
X39500000Y-47000000D02*
G75*
G03X38500000Y-47000000I-500000J0D01*
G01*
X38500000Y-45000000D02*
G75*
G03X39500000Y-45000000I500000J0D01*
G01*
X39540000Y-44810000D02*
X39500000Y-45000000D01*
X39580000Y-44450000D02*
X39540000Y-44810000D01*
X39640000Y-44020000D02*
X39580000Y-44450000D01*
X39710000Y-43660000D02*
X39640000Y-44020000D01*
X39800000Y-43210000D02*
X39710000Y-43660000D01*
X39900000Y-42840000D02*
X39800000Y-43210000D01*
X40000000Y-42500000D02*
X39900000Y-42840000D01*
X40150000Y-42040000D02*
X40000000Y-42500000D01*
X40260000Y-41730000D02*
X40150000Y-42040000D01*
X40400000Y-41390000D02*
X40260000Y-41730000D01*
X40600000Y-40940000D02*
X40400000Y-41390000D01*
X40750000Y-40620000D02*
X40600000Y-40940000D01*
X40910000Y-40300000D02*
X40750000Y-40620000D01*
X41160000Y-39870000D02*
X40910000Y-40300000D01*
X41300000Y-39640000D02*
X41160000Y-39870000D01*
X41550000Y-39260000D02*
X41300000Y-39640000D01*
X41800000Y-38910000D02*
X41550000Y-39260000D01*
X42020000Y-38600000D02*
X41800000Y-38910000D01*
X42260000Y-38320000D02*
X42020000Y-38600000D01*
X42520000Y-38010000D02*
X42260000Y-38320000D01*
X42710000Y-37790000D02*
X42520000Y-38010000D01*
X43000000Y-37500000D02*
X42710000Y-37790000D01*
X38500000Y-17500000D02*
X38500000Y-28000000D01*
X60000000Y-20500000D02*
G75*
G03X43000000Y-20500000I-8500000J-8500000D01*
G01*
X42650000Y-37160000D02*
X43000000Y-37500000D01*
X42440000Y-36910000D02*
X42650000Y-37160000D01*
X42200000Y-36600000D02*
X42440000Y-36910000D01*
X41960000Y-36330000D02*
X42200000Y-36600000D01*
X41780000Y-36080000D02*
X41960000Y-36330000D01*
X41510000Y-35690000D02*
X41780000Y-36080000D01*
X41280000Y-35330000D02*
X41510000Y-35690000D01*
X41080000Y-35000000D02*
X41280000Y-35330000D01*
X40900000Y-34680000D02*
X41080000Y-35000000D01*
X40710000Y-34320000D02*
X40900000Y-34680000D01*
X40550000Y-33990000D02*
X40710000Y-34320000D01*
X40400000Y-33600000D02*
X40550000Y-33990000D01*
X40260000Y-33280000D02*
X40400000Y-33600000D01*
X40120000Y-32890000D02*
X40260000Y-33280000D01*
X40000000Y-32500000D02*
X40120000Y-32890000D01*
X39820000Y-31860000D02*
X40000000Y-32500000D01*
X39700000Y-31320000D02*
X39820000Y-31860000D01*
X39600000Y-30750000D02*
X39700000Y-31320000D01*
X39500000Y-30000000D02*
X39600000Y-30750000D01*
X39600000Y-27300000D02*
X39500000Y-28000000D01*
X39720000Y-26620000D02*
X39600000Y-27300000D01*
X39860000Y-26000000D02*
X39720000Y-26620000D01*
X40000000Y-25490000D02*
X39860000Y-26000000D01*
X40170000Y-24990000D02*
X40000000Y-25490000D01*
X40400000Y-24390000D02*
X40170000Y-24990000D01*
X40730000Y-23690000D02*
X40400000Y-24390000D01*
X40910000Y-23320000D02*
X40730000Y-23690000D01*
X41240000Y-22770000D02*
X40910000Y-23320000D01*
X41540000Y-22280000D02*
X41240000Y-22770000D01*
X41770000Y-21970000D02*
X41540000Y-22280000D01*
X42170000Y-21430000D02*
X41770000Y-21970000D01*
X42330000Y-21240000D02*
X42170000Y-21430000D01*
X42610000Y-20930000D02*
X42330000Y-21240000D01*
X43000000Y-20500000D02*
X42610000Y-20930000D01*
X39500000Y-30000000D02*
G75*
G03X38500000Y-30000000I-500000J0D01*
G01*
X38500000Y-28000000D02*
G75*
G03X39500000Y-28000000I500000J0D01*
G01*
X77000000Y-37500000D02*
X60000000Y-20500000D01*
X60000000Y-54500000D02*
X77000000Y-37500000D01*
X37000000Y-58000000D02*
X34000000Y-58000000D01*
X32000000Y-58000000D02*
X28500000Y-58000000D01*
X32500000Y-58500000D02*
G75*
G03X32000000Y-58000000I-500000J0D01*
G01*
X28500000Y-16000000D02*
X37000000Y-16000000D01*
X27000000Y-56500000D02*
X27000000Y-17500000D01*
D12*
X67196051Y-33900000D03*
X66298025Y-33001975D03*
X65400000Y-32103949D03*
X64501974Y-31205924D03*
X63603949Y-30307898D03*
X65400000Y-33900000D03*
X64501974Y-33001975D03*
X63603949Y-32103949D03*
X62705923Y-31205924D03*
X31060000Y-63135000D03*
X32330000Y-63135000D03*
X33600000Y-63135000D03*
X34870000Y-63135000D03*
X36140000Y-63135000D03*
X32330000Y-61865000D03*
X33600000Y-61865000D03*
X34870000Y-61865000D03*
X36140000Y-61865000D03*
D13*
X29050000Y-63800000D03*
D14*
X29050000Y-61260000D03*
D13*
X36068000Y-45212000D03*
D14*
X33528000Y-45212000D03*
D13*
X36068000Y-40132000D03*
D14*
X33528000Y-40132000D03*
D13*
X36068000Y-37592000D03*
D14*
X33528000Y-37592000D03*
D15*
X28800000Y-27420000D03*
D16*
X28800000Y-29960000D03*
X28800000Y-32500000D03*
X28800000Y-35040000D03*
X28800000Y-37580000D03*
X28800000Y-40120000D03*
D17*
X35920680Y-20810220D03*
X30119320Y-20810220D03*
D18*
X35745420Y-17929860D03*
X30294580Y-17929860D03*
D19*
X30460000Y-54111000D03*
X31730000Y-54111000D03*
X33000000Y-54111000D03*
X34270000Y-54111000D03*
X35540000Y-54111000D03*
X30460000Y-55889000D03*
X31730000Y-55889000D03*
X33000000Y-55889000D03*
X34270000Y-55889000D03*
X35540000Y-55889000D03*
D10*
G36*
X61684205Y-34440849D02*
X65559151Y-38315795D01*
X63480257Y-40394689D01*
X59605311Y-36519743D01*
X61684205Y-34440849D01*
X61684205Y-34440849D01*
G37*
G36*
X45519743Y-50605311D02*
X49394689Y-54480257D01*
X47315795Y-56559151D01*
X43440849Y-52684205D01*
X45519743Y-50605311D01*
X45519743Y-50605311D01*
G37*
D20*
X54500000Y-45500000D03*
D13*
X36068000Y-42672000D03*
D14*
X33528000Y-42672000D03*
D13*
X36068000Y-35052000D03*
D14*
X33528000Y-35052000D03*
M02*
