G04 #@! TF.FileFunction,Soldermask,Top*
%FSLAX46Y46*%
G04 Gerber Fmt 4.6, Leading zero omitted, Abs format (unit mm)*
G04 Created by KiCad (PCBNEW (2016-07-22 BZR 6991, Git 146a78a)-product) date Tue Jul 26 18:11:02 2016*
%MOMM*%
%LPD*%
G01*
G04 APERTURE LIST*
%ADD10C,0.100000*%
%ADD11C,0.150000*%
%ADD12R,1.300000X0.900000*%
%ADD13R,0.900000X1.300000*%
%ADD14R,1.150000X1.200000*%
%ADD15R,1.200000X1.150000*%
%ADD16R,1.460000X1.050000*%
%ADD17R,2.432000X2.432000*%
%ADD18O,2.432000X2.432000*%
%ADD19R,0.750000X0.700000*%
%ADD20R,0.950000X0.700000*%
%ADD21R,0.700000X0.750000*%
%ADD22R,0.700000X0.950000*%
%ADD23R,0.700000X0.550000*%
%ADD24R,0.550000X0.700000*%
%ADD25R,1.600000X1.300000*%
%ADD26R,2.432000X2.127200*%
%ADD27O,2.432000X2.127200*%
%ADD28R,0.798780X2.150060*%
%ADD29R,1.824940X2.899360*%
%ADD30R,2.398980X1.799540*%
%ADD31R,1.700480X2.851100*%
%ADD32R,2.226260X1.101040*%
%ADD33O,1.504800X2.012800*%
%ADD34R,1.197560X1.197560*%
%ADD35R,1.050000X1.460000*%
%ADD36R,1.450000X0.975000*%
%ADD37R,0.975000X1.450000*%
G04 APERTURE END LIST*
D10*
D11*
X38500000Y-17500000D02*
G75*
G03X37000000Y-16000000I-1500000J0D01*
G01*
X28500000Y-16000000D02*
G75*
G03X27000000Y-17500000I0J-1500000D01*
G01*
X37000000Y-58000000D02*
G75*
G03X38500000Y-56500000I0J1500000D01*
G01*
X27000000Y-56500000D02*
G75*
G03X28500000Y-58000000I1500000J0D01*
G01*
X43260000Y-54760000D02*
X43000000Y-54500000D01*
X43580000Y-55060000D02*
X43260000Y-54760000D01*
X43860000Y-55280000D02*
X43580000Y-55060000D01*
X44170000Y-55550000D02*
X43860000Y-55280000D01*
X44480000Y-55780000D02*
X44170000Y-55550000D01*
X44810000Y-55990000D02*
X44480000Y-55780000D01*
X45100000Y-56190000D02*
X44810000Y-55990000D01*
X45460000Y-56410000D02*
X45100000Y-56190000D01*
X45800000Y-56590000D02*
X45460000Y-56410000D01*
X46240000Y-56810000D02*
X45800000Y-56590000D01*
X46540000Y-56960000D02*
X46240000Y-56810000D01*
X46880000Y-57100000D02*
X46540000Y-56960000D01*
X47180000Y-57230000D02*
X46880000Y-57100000D01*
X47570000Y-57370000D02*
X47180000Y-57230000D01*
X48000000Y-57500000D02*
X47570000Y-57370000D01*
X48400000Y-57620000D02*
X48000000Y-57500000D01*
X48790000Y-57720000D02*
X48400000Y-57620000D01*
X49190000Y-57800000D02*
X48790000Y-57720000D01*
X49600000Y-57880000D02*
X49190000Y-57800000D01*
X49980000Y-57930000D02*
X49600000Y-57880000D01*
X50300000Y-57960000D02*
X49980000Y-57930000D01*
X50500000Y-58000000D02*
X50300000Y-57960000D01*
X53010000Y-57940000D02*
X52500000Y-58000000D01*
X53350000Y-57890000D02*
X53010000Y-57940000D01*
X53800000Y-57800000D02*
X53350000Y-57890000D01*
X54260000Y-57720000D02*
X53800000Y-57800000D01*
X54650000Y-57620000D02*
X54260000Y-57720000D01*
X54940000Y-57510000D02*
X54650000Y-57620000D01*
X55530000Y-57340000D02*
X54940000Y-57510000D01*
X55860000Y-57230000D02*
X55530000Y-57340000D01*
X56130000Y-57090000D02*
X55860000Y-57230000D01*
X56540000Y-56930000D02*
X56130000Y-57090000D01*
X56830000Y-56790000D02*
X56540000Y-56930000D01*
X57180000Y-56590000D02*
X56830000Y-56790000D01*
X57620000Y-56360000D02*
X57180000Y-56590000D01*
X57920000Y-56180000D02*
X57620000Y-56360000D01*
X58200000Y-55980000D02*
X57920000Y-56180000D01*
X58610000Y-55700000D02*
X58200000Y-55980000D01*
X58930000Y-55470000D02*
X58610000Y-55700000D01*
X59150000Y-55270000D02*
X58930000Y-55470000D01*
X59500000Y-54980000D02*
X59150000Y-55270000D01*
X59710000Y-54790000D02*
X59500000Y-54980000D01*
X60000000Y-54500000D02*
X59710000Y-54790000D01*
X52500000Y-59000000D02*
X77000000Y-59000000D01*
X50500000Y-59000000D02*
X34000000Y-59000000D01*
X34000000Y-58000000D02*
G75*
G03X34000000Y-59000000I0J-500000D01*
G01*
X52500000Y-58000000D02*
G75*
G03X52500000Y-59000000I0J-500000D01*
G01*
X50500000Y-59000000D02*
G75*
G03X50500000Y-58000000I0J500000D01*
G01*
X32000000Y-59000000D02*
G75*
G03X32500000Y-58500000I0J500000D01*
G01*
X32000000Y-59000000D02*
X27000000Y-59000000D01*
X77000000Y-66000000D02*
X77000000Y-59000000D01*
X27000000Y-66000000D02*
X77000000Y-66000000D01*
X27000000Y-59000000D02*
X27000000Y-66000000D01*
X38500000Y-47000000D02*
X38500000Y-56500000D01*
X38500000Y-30000000D02*
X38500000Y-45000000D01*
X42990000Y-54480000D02*
X43000000Y-54500000D01*
X42650000Y-54130000D02*
X42990000Y-54480000D01*
X42380000Y-53830000D02*
X42650000Y-54130000D01*
X42200000Y-53610000D02*
X42380000Y-53830000D01*
X41880000Y-53210000D02*
X42200000Y-53610000D01*
X41650000Y-52900000D02*
X41880000Y-53210000D01*
X41510000Y-52680000D02*
X41650000Y-52900000D01*
X41250000Y-52290000D02*
X41510000Y-52680000D01*
X41040000Y-51950000D02*
X41250000Y-52290000D01*
X40910000Y-51690000D02*
X41040000Y-51950000D01*
X40700000Y-51300000D02*
X40910000Y-51690000D01*
X40530000Y-50950000D02*
X40700000Y-51300000D01*
X40400000Y-50600000D02*
X40530000Y-50950000D01*
X40220000Y-50180000D02*
X40400000Y-50600000D01*
X40100000Y-49840000D02*
X40220000Y-50180000D01*
X40000000Y-49500000D02*
X40100000Y-49840000D01*
X39830000Y-48980000D02*
X40000000Y-49500000D01*
X39760000Y-48650000D02*
X39830000Y-48980000D01*
X39700000Y-48310000D02*
X39760000Y-48650000D01*
X39610000Y-47830000D02*
X39700000Y-48310000D01*
X39540000Y-47420000D02*
X39610000Y-47830000D01*
X39500000Y-47000000D02*
X39540000Y-47420000D01*
X39500000Y-47000000D02*
G75*
G03X38500000Y-47000000I-500000J0D01*
G01*
X38500000Y-45000000D02*
G75*
G03X39500000Y-45000000I500000J0D01*
G01*
X39540000Y-44810000D02*
X39500000Y-45000000D01*
X39580000Y-44450000D02*
X39540000Y-44810000D01*
X39640000Y-44020000D02*
X39580000Y-44450000D01*
X39710000Y-43660000D02*
X39640000Y-44020000D01*
X39800000Y-43210000D02*
X39710000Y-43660000D01*
X39900000Y-42840000D02*
X39800000Y-43210000D01*
X40000000Y-42500000D02*
X39900000Y-42840000D01*
X40150000Y-42040000D02*
X40000000Y-42500000D01*
X40260000Y-41730000D02*
X40150000Y-42040000D01*
X40400000Y-41390000D02*
X40260000Y-41730000D01*
X40600000Y-40940000D02*
X40400000Y-41390000D01*
X40750000Y-40620000D02*
X40600000Y-40940000D01*
X40910000Y-40300000D02*
X40750000Y-40620000D01*
X41160000Y-39870000D02*
X40910000Y-40300000D01*
X41300000Y-39640000D02*
X41160000Y-39870000D01*
X41550000Y-39260000D02*
X41300000Y-39640000D01*
X41800000Y-38910000D02*
X41550000Y-39260000D01*
X42020000Y-38600000D02*
X41800000Y-38910000D01*
X42260000Y-38320000D02*
X42020000Y-38600000D01*
X42520000Y-38010000D02*
X42260000Y-38320000D01*
X42710000Y-37790000D02*
X42520000Y-38010000D01*
X43000000Y-37500000D02*
X42710000Y-37790000D01*
X38500000Y-17500000D02*
X38500000Y-28000000D01*
X60000000Y-20500000D02*
G75*
G03X43000000Y-20500000I-8500000J-8500000D01*
G01*
X42650000Y-37160000D02*
X43000000Y-37500000D01*
X42440000Y-36910000D02*
X42650000Y-37160000D01*
X42200000Y-36600000D02*
X42440000Y-36910000D01*
X41960000Y-36330000D02*
X42200000Y-36600000D01*
X41780000Y-36080000D02*
X41960000Y-36330000D01*
X41510000Y-35690000D02*
X41780000Y-36080000D01*
X41280000Y-35330000D02*
X41510000Y-35690000D01*
X41080000Y-35000000D02*
X41280000Y-35330000D01*
X40900000Y-34680000D02*
X41080000Y-35000000D01*
X40710000Y-34320000D02*
X40900000Y-34680000D01*
X40550000Y-33990000D02*
X40710000Y-34320000D01*
X40400000Y-33600000D02*
X40550000Y-33990000D01*
X40260000Y-33280000D02*
X40400000Y-33600000D01*
X40120000Y-32890000D02*
X40260000Y-33280000D01*
X40000000Y-32500000D02*
X40120000Y-32890000D01*
X39820000Y-31860000D02*
X40000000Y-32500000D01*
X39700000Y-31320000D02*
X39820000Y-31860000D01*
X39600000Y-30750000D02*
X39700000Y-31320000D01*
X39500000Y-30000000D02*
X39600000Y-30750000D01*
X39600000Y-27300000D02*
X39500000Y-28000000D01*
X39720000Y-26620000D02*
X39600000Y-27300000D01*
X39860000Y-26000000D02*
X39720000Y-26620000D01*
X40000000Y-25490000D02*
X39860000Y-26000000D01*
X40170000Y-24990000D02*
X40000000Y-25490000D01*
X40400000Y-24390000D02*
X40170000Y-24990000D01*
X40730000Y-23690000D02*
X40400000Y-24390000D01*
X40910000Y-23320000D02*
X40730000Y-23690000D01*
X41240000Y-22770000D02*
X40910000Y-23320000D01*
X41540000Y-22280000D02*
X41240000Y-22770000D01*
X41770000Y-21970000D02*
X41540000Y-22280000D01*
X42170000Y-21430000D02*
X41770000Y-21970000D01*
X42330000Y-21240000D02*
X42170000Y-21430000D01*
X42610000Y-20930000D02*
X42330000Y-21240000D01*
X43000000Y-20500000D02*
X42610000Y-20930000D01*
X39500000Y-30000000D02*
G75*
G03X38500000Y-30000000I-500000J0D01*
G01*
X38500000Y-28000000D02*
G75*
G03X39500000Y-28000000I500000J0D01*
G01*
X77000000Y-37500000D02*
X60000000Y-20500000D01*
X60000000Y-54500000D02*
X77000000Y-37500000D01*
X37000000Y-58000000D02*
X34000000Y-58000000D01*
X32000000Y-58000000D02*
X28500000Y-58000000D01*
X32500000Y-58500000D02*
G75*
G03X32000000Y-58000000I-500000J0D01*
G01*
X28500000Y-16000000D02*
X37000000Y-16000000D01*
X27000000Y-56500000D02*
X27000000Y-17500000D01*
D12*
X32900000Y-30550000D03*
X32900000Y-32050000D03*
D13*
X50575000Y-55075000D03*
X49075000Y-55075000D03*
X47675000Y-55075000D03*
X46175000Y-55075000D03*
D14*
X46400000Y-40800000D03*
X46400000Y-39300000D03*
D12*
X46525000Y-34650000D03*
X46525000Y-36150000D03*
X73750000Y-61750000D03*
X73750000Y-63250000D03*
D14*
X36200000Y-63200000D03*
X36200000Y-64700000D03*
X36200000Y-61800000D03*
X36200000Y-60300000D03*
X44150000Y-63500000D03*
X44150000Y-62000000D03*
X31300000Y-60450000D03*
X31300000Y-61950000D03*
X31300000Y-64500000D03*
X31300000Y-63000000D03*
D15*
X34400000Y-60950000D03*
X32900000Y-60950000D03*
D13*
X46750000Y-61350000D03*
X48250000Y-61350000D03*
D16*
X32550000Y-62250000D03*
X32550000Y-63200000D03*
X32550000Y-64150000D03*
X34750000Y-64150000D03*
X34750000Y-62250000D03*
D17*
X29050000Y-63800000D03*
D18*
X29050000Y-61260000D03*
D14*
X45150000Y-63500000D03*
X45150000Y-62000000D03*
D13*
X51000000Y-63650000D03*
X52500000Y-63650000D03*
X69000000Y-62500000D03*
X70500000Y-62500000D03*
X46750000Y-63650000D03*
X48250000Y-63650000D03*
X70500000Y-61350000D03*
X69000000Y-61350000D03*
X46750000Y-62500000D03*
X48250000Y-62500000D03*
X55500000Y-63650000D03*
X57000000Y-63650000D03*
X60000000Y-63650000D03*
X61500000Y-63650000D03*
X51000000Y-62500000D03*
X52500000Y-62500000D03*
X55500000Y-62500000D03*
X57000000Y-62500000D03*
X52500000Y-61350000D03*
X51000000Y-61350000D03*
X56950000Y-61350000D03*
X55450000Y-61350000D03*
X64500000Y-63650000D03*
X66000000Y-63650000D03*
X69000000Y-63650000D03*
X70500000Y-63650000D03*
X60000000Y-62500000D03*
X61500000Y-62500000D03*
X64500000Y-62500000D03*
X66000000Y-62500000D03*
X61500000Y-61350000D03*
X60000000Y-61350000D03*
X66000000Y-61350000D03*
X64500000Y-61350000D03*
D19*
X42125000Y-64000000D03*
D20*
X42025000Y-63500000D03*
X42025000Y-63000000D03*
X42025000Y-62500000D03*
X42025000Y-62000000D03*
X42025000Y-61500000D03*
D19*
X42125000Y-61000000D03*
D21*
X41650000Y-60525000D03*
D22*
X41150000Y-60625000D03*
X40650000Y-60625000D03*
X40150000Y-60625000D03*
X39650000Y-60625000D03*
X39150000Y-60625000D03*
D21*
X38650000Y-60525000D03*
D19*
X38175000Y-61000000D03*
D20*
X38275000Y-61500000D03*
X38275000Y-62000000D03*
X38275000Y-62500000D03*
X38275000Y-63000000D03*
X38275000Y-63500000D03*
D19*
X38175000Y-64000000D03*
D21*
X38650000Y-64475000D03*
D22*
X39150000Y-64375000D03*
X39650000Y-64375000D03*
X40150000Y-64375000D03*
X40650000Y-64375000D03*
X41150000Y-64375000D03*
D21*
X41650000Y-64475000D03*
D23*
X41950000Y-63925000D03*
D10*
G36*
X42310000Y-63800000D02*
X42160000Y-64350000D01*
X41750000Y-64350000D01*
X41600000Y-63800000D01*
X42310000Y-63800000D01*
X42310000Y-63800000D01*
G37*
G36*
X42160000Y-60650000D02*
X42310000Y-61200000D01*
X41600000Y-61200000D01*
X41750000Y-60650000D01*
X42160000Y-60650000D01*
X42160000Y-60650000D01*
G37*
G36*
X38550000Y-60650000D02*
X38700000Y-61200000D01*
X37990000Y-61200000D01*
X38140000Y-60650000D01*
X38550000Y-60650000D01*
X38550000Y-60650000D01*
G37*
G36*
X38700000Y-63800000D02*
X38550000Y-64350000D01*
X38140000Y-64350000D01*
X37990000Y-63800000D01*
X38700000Y-63800000D01*
X38700000Y-63800000D01*
G37*
G36*
X42000000Y-60490000D02*
X42000000Y-60900000D01*
X41450000Y-61050000D01*
X41450000Y-60340000D01*
X42000000Y-60490000D01*
X42000000Y-60490000D01*
G37*
G36*
X38850000Y-60340000D02*
X38850000Y-61050000D01*
X38300000Y-60900000D01*
X38300000Y-60490000D01*
X38850000Y-60340000D01*
X38850000Y-60340000D01*
G37*
G36*
X38850000Y-63950000D02*
X38850000Y-64660000D01*
X38300000Y-64510000D01*
X38300000Y-64100000D01*
X38850000Y-63950000D01*
X38850000Y-63950000D01*
G37*
G36*
X42000000Y-64100000D02*
X42000000Y-64510000D01*
X41450000Y-64660000D01*
X41450000Y-63950000D01*
X42000000Y-64100000D01*
X42000000Y-64100000D01*
G37*
D23*
X41950000Y-61075000D03*
X38350000Y-63925000D03*
X38350000Y-61075000D03*
D24*
X41575000Y-60700000D03*
X38725000Y-60700000D03*
X38725000Y-64300000D03*
X41575000Y-64300000D03*
D17*
X36068000Y-45212000D03*
D18*
X33528000Y-45212000D03*
D17*
X36068000Y-40132000D03*
D18*
X33528000Y-40132000D03*
D17*
X36068000Y-37592000D03*
D18*
X33528000Y-37592000D03*
D25*
X28364000Y-23622000D03*
X30564000Y-23622000D03*
D26*
X28800000Y-27420000D03*
D27*
X28800000Y-29960000D03*
X28800000Y-32500000D03*
X28800000Y-35040000D03*
X28800000Y-37580000D03*
X28800000Y-40120000D03*
D12*
X36600000Y-51450000D03*
X36600000Y-49950000D03*
X31600000Y-30550000D03*
X31600000Y-32050000D03*
D28*
X34320480Y-20604480D03*
X33670240Y-20604480D03*
X33020000Y-20604480D03*
X32369760Y-20604480D03*
X31719520Y-20604480D03*
D29*
X33982660Y-17531080D03*
X32057340Y-17531080D03*
D30*
X35920680Y-20810220D03*
X30119320Y-20810220D03*
D31*
X35745420Y-17929860D03*
D32*
X36007040Y-19479260D03*
X30032960Y-19479260D03*
D31*
X30294580Y-17929860D03*
D33*
X30460000Y-54111000D03*
X31730000Y-54111000D03*
X33000000Y-54111000D03*
X34270000Y-54111000D03*
X35540000Y-54111000D03*
X30460000Y-55889000D03*
X31730000Y-55889000D03*
X33000000Y-55889000D03*
X34270000Y-55889000D03*
X35540000Y-55889000D03*
D14*
X45150000Y-41600000D03*
X45150000Y-40100000D03*
X45050000Y-49050000D03*
X45050000Y-50550000D03*
X46250000Y-49900000D03*
X46250000Y-51400000D03*
X43725000Y-34650000D03*
X43725000Y-36150000D03*
D13*
X50260000Y-44370000D03*
X48760000Y-44370000D03*
X50250000Y-48675000D03*
X48750000Y-48675000D03*
X50530000Y-45710000D03*
X49030000Y-45710000D03*
D12*
X47950000Y-40140000D03*
X47950000Y-41640000D03*
D13*
X54300000Y-51875000D03*
X55800000Y-51875000D03*
X49160000Y-42830000D03*
X47660000Y-42830000D03*
X50250000Y-50275000D03*
X48750000Y-50275000D03*
X53175000Y-54275000D03*
X51675000Y-54275000D03*
X51675000Y-51075000D03*
X53175000Y-51075000D03*
X54300000Y-50275000D03*
X55800000Y-50275000D03*
X53175000Y-52675000D03*
X51675000Y-52675000D03*
X50260000Y-47070000D03*
X48760000Y-47070000D03*
X52850000Y-49225000D03*
X51350000Y-49225000D03*
X55800000Y-53475000D03*
X54300000Y-53475000D03*
D12*
X45100000Y-34650000D03*
X45100000Y-36150000D03*
D21*
X46150000Y-43325000D03*
D22*
X45650000Y-43425000D03*
X45150000Y-43425000D03*
X44650000Y-43425000D03*
X44150000Y-43425000D03*
X43650000Y-43425000D03*
D21*
X43150000Y-43325000D03*
D19*
X42675000Y-43800000D03*
D20*
X42775000Y-44300000D03*
X42775000Y-44800000D03*
X42775000Y-45300000D03*
X42775000Y-45800000D03*
X42775000Y-46300000D03*
D19*
X42675000Y-46800000D03*
D21*
X43150000Y-47275000D03*
D22*
X43650000Y-47175000D03*
X44150000Y-47175000D03*
X44650000Y-47175000D03*
X45150000Y-47175000D03*
X45650000Y-47175000D03*
D21*
X46150000Y-47275000D03*
D19*
X46625000Y-46800000D03*
D20*
X46525000Y-46300000D03*
X46525000Y-45800000D03*
X46525000Y-45300000D03*
X46525000Y-44800000D03*
X46525000Y-44300000D03*
D19*
X46625000Y-43800000D03*
D24*
X46075000Y-43500000D03*
D10*
G36*
X45950000Y-43140000D02*
X46500000Y-43290000D01*
X46500000Y-43700000D01*
X45950000Y-43850000D01*
X45950000Y-43140000D01*
X45950000Y-43140000D01*
G37*
G36*
X42800000Y-43290000D02*
X43350000Y-43140000D01*
X43350000Y-43850000D01*
X42800000Y-43700000D01*
X42800000Y-43290000D01*
X42800000Y-43290000D01*
G37*
G36*
X42800000Y-46900000D02*
X43350000Y-46750000D01*
X43350000Y-47460000D01*
X42800000Y-47310000D01*
X42800000Y-46900000D01*
X42800000Y-46900000D01*
G37*
G36*
X45950000Y-46750000D02*
X46500000Y-46900000D01*
X46500000Y-47310000D01*
X45950000Y-47460000D01*
X45950000Y-46750000D01*
X45950000Y-46750000D01*
G37*
G36*
X42640000Y-43450000D02*
X43050000Y-43450000D01*
X43200000Y-44000000D01*
X42490000Y-44000000D01*
X42640000Y-43450000D01*
X42640000Y-43450000D01*
G37*
G36*
X42490000Y-46600000D02*
X43200000Y-46600000D01*
X43050000Y-47150000D01*
X42640000Y-47150000D01*
X42490000Y-46600000D01*
X42490000Y-46600000D01*
G37*
G36*
X46100000Y-46600000D02*
X46810000Y-46600000D01*
X46660000Y-47150000D01*
X46250000Y-47150000D01*
X46100000Y-46600000D01*
X46100000Y-46600000D01*
G37*
G36*
X46250000Y-43450000D02*
X46660000Y-43450000D01*
X46810000Y-44000000D01*
X46100000Y-44000000D01*
X46250000Y-43450000D01*
X46250000Y-43450000D01*
G37*
D24*
X43225000Y-43500000D03*
X46075000Y-47100000D03*
X43225000Y-47100000D03*
D23*
X42850000Y-43875000D03*
X42850000Y-46725000D03*
X46450000Y-46725000D03*
X46450000Y-43875000D03*
D10*
G36*
X68076638Y-31329835D02*
X67229835Y-32176638D01*
X66383032Y-31329835D01*
X67229835Y-30483032D01*
X68076638Y-31329835D01*
X68076638Y-31329835D01*
G37*
G36*
X67016968Y-30270165D02*
X66170165Y-31116968D01*
X65323362Y-30270165D01*
X66170165Y-29423362D01*
X67016968Y-30270165D01*
X67016968Y-30270165D01*
G37*
D34*
X59249720Y-28000000D03*
X60748320Y-28000000D03*
D10*
G36*
X53829835Y-29423362D02*
X54676638Y-30270165D01*
X53829835Y-31116968D01*
X52983032Y-30270165D01*
X53829835Y-29423362D01*
X53829835Y-29423362D01*
G37*
G36*
X52770165Y-30483032D02*
X53616968Y-31329835D01*
X52770165Y-32176638D01*
X51923362Y-31329835D01*
X52770165Y-30483032D01*
X52770165Y-30483032D01*
G37*
D34*
X50500000Y-36750700D03*
X50500000Y-38249300D03*
D10*
G36*
X51923362Y-43670165D02*
X52770165Y-42823362D01*
X53616968Y-43670165D01*
X52770165Y-44516968D01*
X51923362Y-43670165D01*
X51923362Y-43670165D01*
G37*
G36*
X52983032Y-44729835D02*
X53829835Y-43883032D01*
X54676638Y-44729835D01*
X53829835Y-45576638D01*
X52983032Y-44729835D01*
X52983032Y-44729835D01*
G37*
D34*
X60749300Y-47000000D03*
X59250700Y-47000000D03*
D10*
G36*
X67229835Y-42823362D02*
X68076638Y-43670165D01*
X67229835Y-44516968D01*
X66383032Y-43670165D01*
X67229835Y-42823362D01*
X67229835Y-42823362D01*
G37*
G36*
X66170165Y-43883032D02*
X67016968Y-44729835D01*
X66170165Y-45576638D01*
X65323362Y-44729835D01*
X66170165Y-43883032D01*
X66170165Y-43883032D01*
G37*
D34*
X69500000Y-36749720D03*
X69500000Y-38248320D03*
D10*
G36*
X61823362Y-33770165D02*
X62670165Y-32923362D01*
X63516968Y-33770165D01*
X62670165Y-34616968D01*
X61823362Y-33770165D01*
X61823362Y-33770165D01*
G37*
G36*
X62883032Y-34829835D02*
X63729835Y-33983032D01*
X64576638Y-34829835D01*
X63729835Y-35676638D01*
X62883032Y-34829835D01*
X62883032Y-34829835D01*
G37*
G36*
X57329835Y-32923362D02*
X58176638Y-33770165D01*
X57329835Y-34616968D01*
X56483032Y-33770165D01*
X57329835Y-32923362D01*
X57329835Y-32923362D01*
G37*
G36*
X56270165Y-33983032D02*
X57116968Y-34829835D01*
X56270165Y-35676638D01*
X55423362Y-34829835D01*
X56270165Y-33983032D01*
X56270165Y-33983032D01*
G37*
G36*
X55423362Y-40170165D02*
X56270165Y-39323362D01*
X57116968Y-40170165D01*
X56270165Y-41016968D01*
X55423362Y-40170165D01*
X55423362Y-40170165D01*
G37*
G36*
X56483032Y-41229835D02*
X57329835Y-40383032D01*
X58176638Y-41229835D01*
X57329835Y-42076638D01*
X56483032Y-41229835D01*
X56483032Y-41229835D01*
G37*
G36*
X63729835Y-39323362D02*
X64576638Y-40170165D01*
X63729835Y-41016968D01*
X62883032Y-40170165D01*
X63729835Y-39323362D01*
X63729835Y-39323362D01*
G37*
G36*
X62670165Y-40383032D02*
X63516968Y-41229835D01*
X62670165Y-42076638D01*
X61823362Y-41229835D01*
X62670165Y-40383032D01*
X62670165Y-40383032D01*
G37*
D14*
X36700000Y-29550000D03*
X36700000Y-31050000D03*
D15*
X36850000Y-23700000D03*
X35350000Y-23700000D03*
D14*
X34800000Y-29550000D03*
X34800000Y-31050000D03*
D17*
X36068000Y-42672000D03*
D18*
X33528000Y-42672000D03*
D35*
X36650000Y-25700000D03*
X35700000Y-25700000D03*
X34750000Y-25700000D03*
X34750000Y-27900000D03*
X36650000Y-27900000D03*
D17*
X36068000Y-35052000D03*
D18*
X33528000Y-35052000D03*
D36*
X60875000Y-37037500D03*
X60875000Y-37962500D03*
X59125000Y-37962500D03*
X59125000Y-37037500D03*
D37*
X49962500Y-63375000D03*
X49037500Y-63375000D03*
X49037500Y-61625000D03*
X49962500Y-61625000D03*
X54462500Y-63375000D03*
X53537500Y-63375000D03*
X53537500Y-61625000D03*
X54462500Y-61625000D03*
X58962500Y-63375000D03*
X58037500Y-63375000D03*
X58037500Y-61625000D03*
X58962500Y-61625000D03*
X63462500Y-63375000D03*
X62537500Y-63375000D03*
X62537500Y-61625000D03*
X63462500Y-61625000D03*
X67962500Y-63375000D03*
X67037500Y-63375000D03*
X67037500Y-61625000D03*
X67962500Y-61625000D03*
X72462500Y-63375000D03*
X71537500Y-63375000D03*
X71537500Y-61625000D03*
X72462500Y-61625000D03*
M02*
